<svg xmlns="http://www.w3.org/2000/svg" xmlns:xlink="http://www.w3.org/1999/xlink" width="500" zoomAndPan="magnify" viewBox="0 0 375 374.999991" height="500" preserveAspectRatio="xMidYMid meet" version="1.0"><defs><clipPath id="3c8e09168d"><path d="M 100.195312 83.789062 L 283.945312 83.789062 L 283.945312 267.539062 L 100.195312 267.539062 Z M 100.195312 83.789062 " clip-rule="nonzero"/></clipPath></defs><g clip-path="url(#3c8e09168d)"><path fill="#0ad9fd" d="M 142.761719 125.898438 C 142.488281 124.902344 143.074219 123.871094 144.070312 123.597656 C 145.066406 123.324219 146.097656 123.910156 146.371094 124.910156 C 148.492188 132.652344 154.457031 136.582031 160.773438 140.742188 C 161.941406 141.511719 163.132812 142.296875 164.320312 143.125 C 180.800781 126.894531 172.621094 113.195312 172.257812 112.609375 C 171.714844 111.730469 171.980469 110.578125 172.855469 110.03125 C 173.726562 109.484375 174.875 109.746094 175.425781 110.617188 C 175.539062 110.796875 178.203125 115.085938 178.308594 121.726562 C 178.40625 127.472656 176.53125 136.128906 167.371094 145.363281 C 172.863281 149.679688 177.761719 155.375 179.222656 165.0625 C 179.375 166.082031 178.671875 167.039062 177.648438 167.191406 C 177.554688 167.207031 177.460938 167.210938 177.367188 167.210938 C 176.457031 167.210938 175.660156 166.546875 175.519531 165.621094 C 173.734375 153.761719 166.4375 148.957031 158.710938 143.867188 C 152.097656 139.507812 145.253906 135 142.761719 125.898438 Z M 175.863281 192.207031 C 176.871094 192.433594 177.875 191.800781 178.101562 190.792969 C 178.328125 189.785156 177.695312 188.78125 176.6875 188.554688 C 168.390625 186.6875 161.648438 187.988281 156.375 190.484375 C 155.535156 177.304688 148.007812 170.675781 141.613281 167.402344 C 134.34375 163.683594 127.144531 163.476562 126.839844 163.46875 C 125.808594 163.449219 124.953125 164.261719 124.925781 165.296875 C 124.902344 166.328125 125.71875 167.183594 126.75 167.210938 C 126.820312 167.214844 133.503906 167.421875 140.015625 170.789062 C 148.328125 175.089844 152.59375 182.40625 152.707031 192.542969 C 150.765625 193.8125 149.089844 195.207031 147.675781 196.582031 C 141.734375 202.34375 139.066406 208.769531 138.957031 209.039062 C 138.566406 209.996094 139.023438 211.085938 139.980469 211.476562 C 140.210938 211.570312 140.453125 211.617188 140.6875 211.617188 C 141.425781 211.617188 142.121094 211.179688 142.421875 210.457031 C 142.445312 210.394531 144.953125 204.394531 150.371094 199.179688 C 157.476562 192.34375 166.054688 189.996094 175.863281 192.207031 Z M 167.285156 207.925781 C 166.277344 208.15625 165.652344 209.160156 165.878906 210.167969 C 165.992188 210.660156 168.496094 222.292969 157.46875 229.378906 C 156.601562 229.9375 156.347656 231.09375 156.90625 231.964844 C 157.265625 232.519531 157.867188 232.824219 158.484375 232.824219 C 158.832031 232.824219 159.179688 232.726562 159.492188 232.527344 C 166.433594 228.066406 168.796875 222.003906 169.558594 217.703125 C 170.382812 213.066406 169.5625 209.46875 169.527344 209.320312 C 169.292969 208.316406 168.289062 207.695312 167.285156 207.925781 Z M 283.59375 175.488281 C 283.59375 180.320312 279.660156 184.253906 274.828125 184.253906 C 270.636719 184.253906 267.125 181.296875 266.265625 177.359375 L 233.949219 177.359375 L 233.949219 178.695312 C 233.949219 181.710938 231.496094 184.160156 228.484375 184.160156 L 226.320312 184.160156 C 225.273438 184.160156 224.316406 184.828125 223.941406 185.816406 C 223.726562 186.375 223.496094 186.929688 223.25 187.476562 C 222.804688 188.460938 223.003906 189.589844 223.761719 190.34375 L 225.289062 191.875 C 226.320312 192.902344 226.890625 194.273438 226.890625 195.734375 C 226.890625 197.195312 226.324219 198.570312 225.289062 199.601562 L 224.238281 200.65625 L 236.84375 213.261719 L 251.160156 213.261719 C 252.019531 209.324219 255.53125 206.367188 259.722656 206.367188 C 264.554688 206.367188 268.488281 210.296875 268.488281 215.132812 C 268.488281 219.964844 264.554688 223.898438 259.722656 223.898438 C 255.53125 223.898438 252.019531 220.941406 251.160156 217.003906 L 236.066406 217.003906 C 235.570312 217.003906 235.097656 216.804688 234.746094 216.457031 L 221.589844 203.300781 L 220.753906 204.136719 C 219.722656 205.171875 218.347656 205.738281 216.886719 205.738281 C 215.425781 205.738281 214.054688 205.171875 213.023438 204.136719 L 211.492188 202.613281 C 210.738281 201.855469 209.613281 201.65625 208.628906 202.101562 C 208.101562 202.339844 207.5625 202.5625 206.972656 202.789062 C 205.976562 203.164062 205.3125 204.121094 205.3125 205.171875 L 205.3125 207.332031 C 205.3125 210.347656 202.859375 212.800781 199.847656 212.800781 L 195.300781 212.800781 L 195.300781 223.703125 L 207.324219 223.703125 C 207.976562 223.703125 208.582031 224.042969 208.921875 224.601562 L 220.234375 243.226562 C 221.125 242.921875 222.082031 242.753906 223.074219 242.753906 C 227.910156 242.753906 231.839844 246.683594 231.839844 251.519531 C 231.839844 256.351562 227.910156 260.285156 223.074219 260.285156 C 218.242188 260.285156 214.308594 256.351562 214.308594 251.519531 C 214.308594 249.023438 215.359375 246.769531 217.039062 245.171875 L 206.269531 227.445312 L 195.300781 227.445312 L 195.300781 249.503906 C 195.300781 259.253906 187.371094 267.1875 177.621094 267.1875 C 170.082031 267.1875 163.628906 262.441406 161.09375 255.78125 C 159.546875 256.128906 157.964844 256.308594 156.363281 256.308594 C 144.589844 256.308594 135.011719 246.777344 135.011719 235.066406 C 135.011719 233.242188 135.246094 231.457031 135.695312 229.722656 C 122.734375 229.617188 112.222656 219.042969 112.222656 206.058594 C 112.222656 201.050781 113.816406 196.183594 116.734375 192.160156 C 106.761719 185.816406 100.195312 174.664062 100.195312 162.019531 C 100.195312 146.398438 110.363281 132.636719 125.125 127.980469 C 124.996094 126.945312 124.925781 125.894531 124.925781 124.832031 C 124.925781 110.832031 136.316406 99.4375 150.320312 99.4375 C 151.265625 99.4375 152.210938 99.496094 153.144531 99.601562 C 155.632812 90.5 163.96875 83.789062 173.84375 83.789062 C 185.675781 83.789062 195.300781 93.414062 195.300781 105.246094 L 195.300781 123.53125 L 206.269531 123.53125 L 217.039062 105.804688 C 215.359375 104.207031 214.308594 101.953125 214.308594 99.457031 C 214.308594 94.625 218.242188 90.691406 223.074219 90.691406 C 227.910156 90.691406 231.839844 94.625 231.839844 99.457031 C 231.839844 104.292969 227.910156 108.222656 223.074219 108.222656 C 222.082031 108.222656 221.125 108.054688 220.234375 107.75 L 208.921875 126.375 C 208.582031 126.933594 207.976562 127.273438 207.324219 127.273438 L 195.300781 127.273438 L 195.300781 138.175781 L 199.847656 138.175781 C 202.859375 138.175781 205.3125 140.628906 205.3125 143.640625 L 205.3125 145.804688 C 205.3125 146.855469 205.976562 147.8125 206.96875 148.1875 C 207.507812 148.390625 208.066406 148.621094 208.625 148.875 C 209.613281 149.320312 210.738281 149.121094 211.492188 148.367188 L 213.023438 146.835938 C 214.054688 145.804688 215.425781 145.234375 216.886719 145.234375 C 218.347656 145.234375 219.722656 145.804688 220.753906 146.835938 L 221.589844 147.675781 L 234.746094 134.519531 C 235.097656 134.171875 235.570312 133.972656 236.066406 133.972656 L 251.160156 133.972656 C 252.019531 130.035156 255.53125 127.078125 259.722656 127.078125 C 264.554688 127.078125 268.488281 131.011719 268.488281 135.84375 C 268.488281 140.679688 264.554688 144.609375 259.722656 144.609375 C 255.53125 144.609375 252.019531 141.652344 251.160156 137.714844 L 236.84375 137.714844 L 224.238281 150.320312 L 225.289062 151.375 C 227.417969 153.503906 227.417969 156.972656 225.289062 159.101562 L 223.757812 160.632812 C 223.015625 161.375 222.8125 162.527344 223.25 163.5 C 223.488281 164.027344 223.722656 164.582031 223.9375 165.152344 C 224.316406 166.148438 225.273438 166.8125 226.320312 166.8125 L 228.484375 166.8125 C 231.496094 166.8125 233.949219 169.265625 233.949219 172.28125 L 233.949219 173.617188 L 266.265625 173.617188 C 267.125 169.679688 270.636719 166.722656 274.828125 166.722656 C 279.660156 166.722656 283.59375 170.65625 283.59375 175.488281 Z M 254.699219 135.84375 C 254.699219 138.613281 256.953125 140.867188 259.722656 140.867188 C 262.492188 140.867188 264.746094 138.613281 264.746094 135.84375 C 264.746094 133.074219 262.492188 130.824219 259.722656 130.824219 C 256.953125 130.824219 254.699219 133.074219 254.699219 135.84375 Z M 218.054688 99.457031 C 218.054688 102.226562 220.304688 104.480469 223.074219 104.480469 C 225.84375 104.480469 228.097656 102.226562 228.097656 99.457031 C 228.097656 96.6875 225.84375 94.4375 223.074219 94.4375 C 220.304688 94.4375 218.054688 96.6875 218.054688 99.457031 Z M 223.074219 246.496094 C 220.304688 246.496094 218.054688 248.75 218.054688 251.519531 C 218.054688 254.289062 220.304688 256.539062 223.074219 256.539062 C 225.84375 256.539062 228.097656 254.289062 228.097656 251.519531 C 228.097656 248.75 225.84375 246.496094 223.074219 246.496094 Z M 254.699219 215.132812 C 254.699219 217.902344 256.953125 220.15625 259.722656 220.15625 C 262.492188 220.15625 264.746094 217.902344 264.746094 215.132812 C 264.746094 212.363281 262.492188 210.109375 259.722656 210.109375 C 256.953125 210.109375 254.699219 212.363281 254.699219 215.132812 Z M 195.300781 188.582031 C 195.671875 188.613281 196.046875 188.632812 196.425781 188.632812 C 203.671875 188.632812 209.570312 182.734375 209.570312 175.488281 C 209.570312 168.242188 203.671875 162.34375 196.425781 162.34375 C 196.046875 162.34375 195.671875 162.363281 195.300781 162.394531 Z M 191.558594 238.929688 C 191.558594 237.550781 191.03125 236.777344 189.851562 236.425781 C 187.347656 235.675781 182.855469 237.21875 180.824219 240.324219 C 178.253906 244.253906 177.855469 248.765625 179.871094 251.058594 C 180.554688 251.832031 180.480469 253.015625 179.703125 253.699219 C 179.347656 254.011719 178.90625 254.164062 178.46875 254.164062 C 177.949219 254.164062 177.433594 253.953125 177.0625 253.53125 C 173.902344 249.945312 174.164062 243.671875 177.695312 238.273438 C 180.476562 234.019531 186.535156 231.53125 190.921875 232.839844 C 191.140625 232.902344 191.351562 232.980469 191.558594 233.066406 L 191.558594 105.246094 C 191.558594 95.480469 183.613281 87.53125 173.84375 87.53125 C 164.078125 87.53125 156.128906 95.480469 156.128906 105.246094 C 156.128906 108.84375 157.203125 112.308594 159.230469 115.261719 C 159.816406 116.113281 159.601562 117.28125 158.75 117.867188 C 157.894531 118.449219 156.730469 118.234375 156.144531 117.382812 C 153.6875 113.800781 152.386719 109.605469 152.386719 105.246094 C 152.386719 104.585938 152.421875 103.933594 152.480469 103.289062 C 151.765625 103.21875 151.042969 103.179688 150.320312 103.179688 C 138.382812 103.179688 128.667969 112.894531 128.667969 124.832031 C 128.667969 130.851562 131.078125 136.445312 135.457031 140.578125 C 136.210938 141.289062 136.242188 142.472656 135.535156 143.222656 C 135.164062 143.613281 134.667969 143.808594 134.171875 143.808594 C 133.710938 143.808594 133.25 143.640625 132.886719 143.300781 C 129.464844 140.066406 127.074219 136.074219 125.855469 131.679688 C 112.859375 135.96875 103.9375 148.175781 103.9375 162.019531 C 103.9375 179.066406 117.261719 193.082031 134.269531 193.933594 C 135.300781 193.984375 136.097656 194.863281 136.042969 195.894531 C 135.996094 196.894531 135.167969 197.671875 134.175781 197.671875 C 134.144531 197.671875 134.113281 197.671875 134.082031 197.671875 C 129.035156 197.417969 124.28125 196.128906 120.019531 194.015625 C 117.398438 197.46875 115.964844 201.699219 115.964844 206.058594 C 115.964844 217.046875 124.902344 225.984375 135.890625 225.984375 C 139.917969 225.984375 143.792969 224.789062 147.105469 222.53125 C 147.960938 221.949219 149.125 222.167969 149.707031 223.023438 C 150.289062 223.878906 150.070312 225.042969 149.214844 225.625 C 146.335938 227.589844 143.097656 228.871094 139.695312 229.421875 C 139.074219 231.230469 138.753906 233.125 138.753906 235.066406 C 138.753906 244.714844 146.652344 252.566406 156.363281 252.566406 C 157.640625 252.566406 158.902344 252.425781 160.136719 252.160156 C 160.007812 251.292969 159.9375 250.40625 159.9375 249.503906 C 159.9375 245.480469 161.253906 241.691406 163.746094 238.539062 C 164.390625 237.730469 165.566406 237.59375 166.375 238.234375 C 167.1875 238.875 167.324219 240.054688 166.683594 240.863281 C 164.71875 243.34375 163.679688 246.332031 163.679688 249.503906 C 163.679688 257.191406 169.933594 263.445312 177.621094 263.445312 C 185.304688 263.445312 191.558594 257.191406 191.558594 249.503906 Z M 230.207031 172.28125 C 230.207031 171.328125 229.433594 170.554688 228.484375 170.554688 L 226.320312 170.554688 C 223.726562 170.554688 221.363281 168.917969 220.441406 166.484375 C 220.25 165.988281 220.046875 165.503906 219.839844 165.042969 C 218.765625 162.65625 219.277344 159.820312 221.113281 157.984375 L 222.640625 156.457031 C 223.3125 155.785156 223.3125 154.691406 222.640625 154.019531 L 218.105469 149.480469 C 217.78125 149.15625 217.347656 148.976562 216.886719 148.976562 C 216.425781 148.976562 215.996094 149.15625 215.667969 149.480469 L 214.136719 151.011719 C 212.304688 152.851562 209.46875 153.363281 207.085938 152.285156 C 206.597656 152.066406 206.113281 151.863281 205.648438 151.6875 C 203.207031 150.765625 201.570312 148.402344 201.570312 145.804688 L 201.570312 143.640625 C 201.570312 142.691406 200.796875 141.921875 199.847656 141.921875 L 195.300781 141.921875 L 195.300781 158.640625 C 195.675781 158.617188 196.046875 158.601562 196.425781 158.601562 C 205.734375 158.601562 213.3125 166.175781 213.3125 175.488281 C 213.3125 184.800781 205.734375 192.375 196.425781 192.375 C 196.046875 192.375 195.675781 192.359375 195.300781 192.332031 L 195.300781 209.054688 L 199.847656 209.054688 C 200.796875 209.054688 201.570312 208.28125 201.570312 207.332031 L 201.570312 205.171875 C 201.570312 202.574219 203.207031 200.210938 205.644531 199.289062 C 206.15625 199.09375 206.628906 198.898438 207.089844 198.691406 C 209.46875 197.613281 212.304688 198.125 214.140625 199.964844 L 215.667969 201.488281 C 215.996094 201.816406 216.425781 201.996094 216.886719 201.996094 C 217.347656 201.996094 217.78125 201.816406 218.105469 201.492188 L 222.640625 196.957031 C 222.96875 196.628906 223.148438 196.195312 223.148438 195.734375 C 223.148438 195.277344 222.96875 194.847656 222.644531 194.523438 L 221.113281 192.992188 C 219.277344 191.152344 218.765625 188.316406 219.839844 185.9375 C 220.054688 185.457031 220.257812 184.96875 220.441406 184.488281 C 221.363281 182.054688 223.726562 180.417969 226.320312 180.417969 L 228.484375 180.417969 C 229.433594 180.417969 230.207031 179.644531 230.207031 178.695312 Z M 279.851562 175.488281 C 279.851562 172.71875 277.597656 170.464844 274.828125 170.464844 C 272.058594 170.464844 269.804688 172.71875 269.804688 175.488281 C 269.804688 178.257812 272.058594 180.511719 274.828125 180.511719 C 277.597656 180.511719 279.851562 178.257812 279.851562 175.488281 Z M 279.851562 175.488281 " fill-opacity="1" fill-rule="nonzero"/></g></svg>