<svg xmlns="http://www.w3.org/2000/svg" xmlns:xlink="http://www.w3.org/1999/xlink" width="500" zoomAndPan="magnify" viewBox="0 0 375 374.999991" height="500" preserveAspectRatio="xMidYMid meet" version="1.0"><path fill="#0ad9fd" d="M 186.714844 216.367188 C 191.867188 206.476562 195.949219 198.414062 200.230469 190.457031 C 231.933594 131.546875 270.535156 77.925781 321.351562 33.816406 C 330.417969 25.941406 340.101562 18.742188 349.78125 11.621094 C 353.59375 8.816406 358.179688 7.054688 364.550781 3.691406 C 364.550781 10.691406 364.691406 15.375 364.527344 20.050781 C 363.917969 37.003906 362.382812 53.976562 362.859375 70.894531 C 363.148438 81.070312 366.160156 91.246094 368.589844 101.261719 C 370.804688 110.382812 370.878906 112.332031 363.0625 116.597656 C 307.433594 146.96875 266.175781 192.574219 229.144531 242.628906 C 220.273438 254.625 212.316406 267.285156 203.890625 279.613281 C 195.097656 292.484375 185.054688 292.570312 176.957031 279.429688 C 152.066406 239.035156 117.390625 210.921875 72.632812 195.171875 C 61.054688 191.097656 58.875 185.636719 65.972656 175.71875 C 78.546875 158.148438 95.679688 147.03125 117.097656 143.171875 C 125.898438 141.585938 133.921875 144.238281 139.558594 151.085938 C 150.339844 164.183594 160.761719 177.59375 170.839844 191.234375 C 176.226562 198.515625 180.578125 206.554688 186.714844 216.367188 Z M 186.714844 216.367188 " fill-opacity="1" fill-rule="nonzero"/><path fill="#0ad9fd" d="M 285.078125 53.976562 C 280.101562 59.367188 275.132812 64.746094 269.375 70.976562 C 265.359375 68.632812 261.570312 66.367188 257.734375 64.191406 C 179.785156 20 82.039062 55.894531 51.890625 139.773438 C 29.714844 201.457031 53.441406 271.066406 108.808594 306.777344 C 164.6875 342.824219 238.597656 335.882812 285.363281 289.550781 C 320.8125 254.429688 334.789062 211.886719 326.414062 162.453125 C 325.402344 156.476562 326.125 152.035156 331.546875 148.65625 C 336.046875 145.84375 340.25 142.550781 344.710938 139.378906 C 365.410156 184.582031 354.128906 274.453125 283.226562 323.914062 C 209.988281 375.003906 110.679688 360.957031 55.164062 291.625 C 0.0898438 222.835938 8.386719 122.019531 74 63.207031 C 144.496094 0.0117188 240.453125 14.902344 285.078125 53.976562 Z M 285.078125 53.976562 " fill-opacity="1" fill-rule="nonzero"/></svg>