<svg xmlns="http://www.w3.org/2000/svg" xmlns:xlink="http://www.w3.org/1999/xlink" width="500" zoomAndPan="magnify" viewBox="0 0 375 374.999991" height="500" preserveAspectRatio="xMidYMid meet" version="1.0"><defs><clipPath id="2d1cd7e325"><path d="M 112.5 120.28125 L 262.5 120.28125 L 262.5 254.53125 L 112.5 254.53125 Z M 112.5 120.28125 " clip-rule="nonzero"/></clipPath></defs><g clip-path="url(#2d1cd7e325)"><path fill="#0ad9fd" d="M 254.71875 220.96875 C 251.332031 220.96875 248.449219 223.144531 247.394531 226.171875 C 247.253906 226.148438 247.109375 226.132812 246.960938 226.132812 L 226.28125 226.132812 L 226.28125 202.898438 L 247.410156 202.898438 C 255.714844 202.898438 262.476562 195.949219 262.476562 187.40625 C 262.476562 178.863281 255.714844 171.914062 247.410156 171.914062 C 246.542969 171.914062 245.679688 171.992188 244.835938 172.140625 C 244.945312 171.210938 245 170.273438 245 169.335938 C 245 156.523438 234.882812 146.097656 222.445312 146.097656 C 220.796875 146.097656 219.144531 146.285156 217.535156 146.652344 C 217.539062 146.441406 217.542969 146.230469 217.542969 146.019531 C 217.542969 131.828125 205.746094 120.28125 191.246094 120.28125 C 179.050781 120.28125 168.667969 128.390625 165.761719 139.648438 C 161.125 137.867188 155.957031 137.882812 151.140625 139.769531 C 143.847656 142.601562 138.820312 149.140625 137.902344 156.605469 C 136.964844 156.484375 136.019531 156.425781 135.082031 156.425781 C 122.644531 156.425781 112.527344 166.847656 112.527344 179.660156 C 112.527344 192.472656 122.644531 202.894531 135.082031 202.894531 L 148.722656 202.894531 L 148.722656 223.550781 L 127.59375 223.550781 C 126.527344 220.542969 123.652344 218.386719 120.28125 218.386719 C 116.003906 218.386719 112.527344 221.859375 112.527344 226.132812 C 112.527344 230.402344 116.003906 233.875 120.28125 233.875 C 123.652344 233.875 126.527344 231.71875 127.59375 228.710938 L 151.304688 228.710938 C 152.734375 228.710938 153.890625 227.558594 153.890625 226.132812 L 153.890625 202.894531 L 166.820312 202.894531 L 166.820312 239.484375 C 163.808594 240.550781 161.648438 243.417969 161.648438 246.785156 C 161.648438 251.054688 165.128906 254.53125 169.402344 254.53125 C 173.679688 254.53125 177.160156 251.054688 177.160156 246.785156 C 177.160156 243.417969 175 240.550781 171.988281 239.484375 L 171.988281 202.894531 L 184.914062 202.894531 L 184.914062 226.132812 C 184.914062 226.816406 185.1875 227.472656 185.671875 227.957031 L 198.601562 240.867188 C 198.113281 241.878906 197.84375 243.011719 197.84375 244.203125 C 197.84375 248.476562 201.320312 251.949219 205.597656 251.949219 C 209.875 251.949219 213.355469 248.476562 213.355469 244.203125 C 213.355469 239.933594 209.875 236.460938 205.597656 236.460938 C 204.402344 236.460938 203.269531 236.730469 202.257812 237.214844 L 190.085938 225.0625 L 190.085938 202.898438 L 203.011719 202.898438 L 203.011719 211.085938 C 200.003906 212.152344 197.84375 215.023438 197.84375 218.386719 C 197.84375 222.660156 201.320312 226.132812 205.597656 226.132812 C 209.875 226.132812 213.355469 222.660156 213.355469 218.386719 C 213.355469 215.023438 211.191406 212.152344 208.183594 211.085938 L 208.183594 202.898438 L 221.109375 202.898438 L 221.109375 228.714844 C 221.109375 230.140625 222.265625 231.296875 223.695312 231.296875 L 246.964844 231.296875 C 247.109375 231.296875 247.253906 231.28125 247.394531 231.257812 C 248.453125 234.28125 251.335938 236.460938 254.71875 236.460938 C 258.996094 236.460938 262.476562 232.984375 262.476562 228.714844 C 262.476562 224.445312 258.996094 220.96875 254.71875 220.96875 Z M 120.28125 228.714844 C 118.855469 228.714844 117.695312 227.554688 117.695312 226.132812 C 117.695312 224.707031 118.855469 223.550781 120.28125 223.550781 C 121.707031 223.550781 122.867188 224.707031 122.867188 226.132812 C 122.867188 227.554688 121.707031 228.714844 120.28125 228.714844 Z M 169.402344 249.367188 C 167.976562 249.367188 166.816406 248.210938 166.816406 246.785156 C 166.816406 245.363281 167.976562 244.203125 169.402344 244.203125 C 170.828125 244.203125 171.988281 245.363281 171.988281 246.785156 C 171.988281 248.210938 170.828125 249.367188 169.402344 249.367188 Z M 208.183594 244.203125 C 208.183594 245.628906 207.023438 246.785156 205.597656 246.785156 C 204.171875 246.785156 203.011719 245.628906 203.011719 244.203125 C 203.011719 243.542969 203.265625 242.9375 203.675781 242.480469 C 203.710938 242.449219 203.746094 242.421875 203.78125 242.390625 C 203.8125 242.355469 203.839844 242.320312 203.871094 242.285156 C 204.328125 241.875 204.933594 241.621094 205.597656 241.621094 C 207.023438 241.621094 208.183594 242.78125 208.183594 244.203125 Z M 205.597656 220.96875 C 204.171875 220.96875 203.011719 219.8125 203.011719 218.386719 C 203.011719 216.964844 204.171875 215.804688 205.597656 215.804688 C 207.023438 215.804688 208.183594 216.964844 208.183594 218.386719 C 208.183594 219.8125 207.023438 220.96875 205.597656 220.96875 Z M 117.695312 179.660156 C 117.695312 169.695312 125.496094 161.589844 135.078125 161.589844 C 136.613281 161.589844 138.152344 161.800781 139.652344 162.214844 C 140.445312 162.433594 141.300781 162.265625 141.949219 161.753906 C 142.59375 161.246094 142.960938 160.457031 142.929688 159.636719 C 142.6875 153.070312 146.742188 147.019531 153.019531 144.578125 C 157.492188 142.832031 162.34375 143.226562 166.328125 145.664062 C 167.082031 146.128906 168.023438 146.175781 168.8125 145.785156 C 169.609375 145.394531 170.148438 144.628906 170.25 143.753906 C 171.421875 133.316406 180.445312 125.445312 191.242188 125.445312 C 202.890625 125.445312 212.371094 134.675781 212.371094 146.019531 C 212.371094 147.308594 212.246094 148.597656 211.996094 149.859375 C 211.808594 150.804688 212.167969 151.777344 212.921875 152.378906 C 213.675781 152.976562 214.710938 153.105469 215.589844 152.714844 C 217.710938 151.761719 220.082031 151.261719 222.445312 151.261719 C 232.03125 151.261719 239.828125 159.367188 239.828125 169.332031 C 239.828125 171.371094 239.496094 173.382812 238.839844 175.324219 C 238.496094 176.347656 238.824219 177.472656 239.660156 178.152344 C 240.5 178.832031 241.671875 178.917969 242.605469 178.371094 C 244.039062 177.527344 245.703125 177.078125 247.40625 177.078125 C 252.863281 177.078125 257.300781 181.710938 257.300781 187.40625 C 257.300781 193.101562 252.863281 197.730469 247.40625 197.730469 L 135.078125 197.730469 C 125.496094 197.730469 117.695312 189.625 117.695312 179.660156 Z M 254.71875 231.296875 C 253.292969 231.296875 252.132812 230.136719 252.132812 228.714844 C 252.132812 227.289062 253.292969 226.132812 254.71875 226.132812 C 256.144531 226.132812 257.304688 227.289062 257.304688 228.714844 C 257.304688 230.136719 256.144531 231.296875 254.71875 231.296875 Z M 254.71875 231.296875 " fill-opacity="1" fill-rule="nonzero"/></g></svg>