<svg xmlns="http://www.w3.org/2000/svg" xmlns:xlink="http://www.w3.org/1999/xlink" width="500" zoomAndPan="magnify" viewBox="0 0 375 374.999991" height="500" preserveAspectRatio="xMidYMid meet" version="1.0"><defs><clipPath id="7a73e2fa7d"><path d="M 44.058594 81.535156 L 331.308594 81.535156 L 331.308594 293.785156 L 44.058594 293.785156 Z M 44.058594 81.535156 " clip-rule="nonzero"/></clipPath></defs><g clip-path="url(#7a73e2fa7d)"><path fill="#0ad9fd" d="M 327.734375 223.464844 L 255.152344 223.464844 L 255.152344 198.703125 L 309.332031 198.703125 C 321.453125 198.703125 331.308594 188.839844 331.308594 176.71875 L 331.308594 103.613281 C 331.308594 91.488281 321.445312 81.628906 309.332031 81.628906 L 166.285156 81.628906 C 154.164062 81.628906 144.304688 91.496094 144.304688 103.613281 L 144.304688 176.71875 C 144.304688 188.84375 154.167969 198.703125 166.285156 198.703125 L 220.460938 198.703125 L 220.460938 223.464844 L 126.117188 223.464844 L 126.117188 207.039062 C 126.117188 205.066406 124.511719 203.460938 122.539062 203.460938 L 118.320312 203.460938 L 118.320312 159.695312 C 118.320312 154.878906 114.539062 149.980469 111.496094 146.042969 C 110.871094 145.234375 110.28125 144.472656 109.8125 143.816406 C 109.136719 142.878906 108.058594 142.324219 106.910156 142.324219 C 105.757812 142.324219 104.675781 142.878906 104.007812 143.816406 L 99.078125 150.6875 L 94.144531 143.816406 C 93.46875 142.878906 92.390625 142.324219 91.242188 142.324219 C 90.089844 142.324219 89.007812 142.878906 88.339844 143.816406 L 83.40625 150.6875 L 78.46875 143.816406 C 77.796875 142.878906 76.71875 142.324219 75.566406 142.324219 C 74.417969 142.324219 73.332031 142.878906 72.664062 143.816406 C 72.195312 144.472656 71.605469 145.238281 70.980469 146.042969 C 67.941406 149.980469 64.15625 154.878906 64.15625 159.695312 L 64.15625 203.460938 L 59.9375 203.460938 C 57.964844 203.460938 56.359375 205.066406 56.359375 207.039062 L 56.359375 223.464844 L 47.640625 223.464844 C 45.667969 223.464844 44.066406 225.070312 44.066406 227.042969 L 44.066406 290.054688 C 44.066406 292.027344 45.667969 293.632812 47.640625 293.632812 L 327.738281 293.632812 C 329.710938 293.632812 331.316406 292.027344 331.316406 290.054688 L 331.316406 227.042969 C 331.316406 225.070312 329.710938 223.464844 327.738281 223.464844 Z M 151.449219 176.71875 L 151.449219 103.613281 C 151.449219 95.4375 158.101562 88.785156 166.277344 88.785156 L 309.324219 88.785156 C 317.5 88.785156 324.152344 95.4375 324.152344 103.613281 L 324.152344 176.71875 C 324.152344 184.898438 317.5 191.550781 309.324219 191.550781 L 166.277344 191.550781 C 158.101562 191.550781 151.449219 184.898438 151.449219 176.71875 Z M 227.609375 198.703125 L 248 198.703125 L 248 223.464844 L 227.609375 223.464844 Z M 71.300781 159.691406 C 71.300781 157.714844 73.511719 154.515625 75.476562 151.910156 L 80.492188 158.898438 C 81.164062 159.832031 82.242188 160.386719 83.394531 160.386719 C 84.542969 160.386719 85.628906 159.832031 86.296875 158.898438 L 91.230469 152.023438 L 96.164062 158.898438 C 96.835938 159.832031 97.917969 160.386719 99.066406 160.386719 C 100.214844 160.386719 101.300781 159.832031 101.96875 158.898438 L 106.980469 151.910156 C 108.945312 154.515625 111.160156 157.714844 111.160156 159.691406 L 111.160156 203.453125 L 71.300781 203.453125 Z M 63.503906 210.609375 L 118.960938 210.609375 L 118.960938 223.460938 L 63.503906 223.460938 Z M 324.160156 286.480469 L 51.210938 286.480469 L 51.210938 230.621094 L 324.160156 230.621094 Z M 61.039062 280.226562 L 314.335938 280.226562 C 316.308594 280.226562 317.914062 278.621094 317.914062 276.648438 L 317.914062 240.441406 C 317.914062 238.46875 316.308594 236.867188 314.335938 236.867188 L 61.039062 236.867188 C 59.066406 236.867188 57.460938 238.46875 57.460938 240.441406 L 57.460938 276.648438 C 57.460938 278.621094 59.066406 280.226562 61.039062 280.226562 Z M 64.613281 244.019531 L 310.761719 244.019531 L 310.761719 273.074219 L 64.613281 273.074219 Z M 314.636719 176.816406 L 314.636719 103.519531 C 314.636719 100.644531 312.296875 98.304688 309.421875 98.304688 L 166.183594 98.304688 C 163.308594 98.304688 160.96875 100.640625 160.96875 103.519531 L 160.96875 176.816406 C 160.96875 179.6875 163.304688 182.03125 166.183594 182.03125 L 309.421875 182.03125 C 312.292969 182.03125 314.636719 179.695312 314.636719 176.816406 Z M 307.484375 174.871094 L 168.121094 174.871094 L 168.121094 105.449219 L 307.484375 105.449219 Z M 211.539062 258.546875 C 211.539062 260.519531 209.9375 262.121094 207.964844 262.121094 L 167.410156 262.121094 C 165.4375 262.121094 163.835938 260.519531 163.835938 258.546875 C 163.835938 256.574219 165.4375 254.96875 167.410156 254.96875 L 207.964844 254.96875 C 209.9375 254.96875 211.539062 256.574219 211.539062 258.546875 Z M 106.863281 175.992188 C 106.863281 177.964844 105.257812 179.570312 103.285156 179.570312 L 79.179688 179.570312 C 77.207031 179.570312 75.605469 177.964844 75.605469 175.992188 C 75.605469 174.019531 77.207031 172.417969 79.179688 172.417969 L 103.285156 172.417969 C 105.257812 172.417969 106.863281 174.019531 106.863281 175.992188 Z M 106.863281 189.667969 C 106.863281 191.640625 105.257812 193.242188 103.285156 193.242188 L 79.179688 193.242188 C 77.207031 193.242188 75.605469 191.640625 75.605469 189.667969 C 75.605469 187.695312 77.207031 186.089844 79.179688 186.089844 L 103.285156 186.089844 C 105.257812 186.089844 106.863281 187.695312 106.863281 189.667969 Z M 269.796875 131.066406 C 269.796875 125.320312 273.640625 120.460938 278.890625 118.910156 L 278.890625 117.320312 C 278.890625 115.347656 280.492188 113.742188 282.464844 113.742188 C 284.4375 113.742188 286.042969 115.347656 286.042969 117.320312 L 286.042969 118.90625 C 288.8125 119.722656 291.261719 121.46875 292.9375 123.917969 C 294.050781 125.550781 293.632812 127.773438 292 128.890625 C 290.367188 130.003906 288.144531 129.585938 287.03125 127.953125 C 286 126.445312 284.292969 125.539062 282.464844 125.539062 C 279.421875 125.539062 276.945312 128.019531 276.945312 131.058594 C 276.945312 134.097656 279.425781 136.578125 282.464844 136.578125 C 289.457031 136.578125 295.136719 142.265625 295.136719 149.25 C 295.136719 155 291.292969 159.855469 286.042969 161.40625 L 286.042969 162.996094 C 286.042969 164.972656 284.4375 166.574219 282.464844 166.574219 C 280.492188 166.574219 278.890625 164.972656 278.890625 162.996094 L 278.890625 161.414062 C 276.117188 160.59375 273.667969 158.847656 271.996094 156.398438 C 270.878906 154.765625 271.296875 152.542969 272.929688 151.425781 C 274.5625 150.3125 276.785156 150.730469 277.898438 152.363281 C 278.929688 153.878906 280.640625 154.777344 282.464844 154.777344 C 285.511719 154.777344 287.984375 152.296875 287.984375 149.257812 C 287.984375 146.21875 285.503906 143.738281 282.464844 143.738281 C 275.476562 143.738281 269.796875 138.050781 269.796875 131.066406 Z M 180.46875 119.804688 C 180.46875 117.832031 182.070312 116.226562 184.042969 116.226562 L 223.375 116.226562 C 225.347656 116.226562 226.953125 117.832031 226.953125 119.804688 C 226.953125 121.777344 225.347656 123.382812 223.375 123.382812 L 184.042969 123.382812 C 182.070312 123.382812 180.46875 121.777344 180.46875 119.804688 Z M 237.738281 119.804688 C 237.738281 117.832031 239.34375 116.226562 241.316406 116.226562 L 251.070312 116.226562 C 253.042969 116.226562 254.644531 117.832031 254.644531 119.804688 C 254.644531 121.777344 253.042969 123.382812 251.070312 123.382812 L 241.316406 123.382812 C 239.34375 123.382812 237.738281 121.777344 237.738281 119.804688 Z M 180.46875 133.378906 C 180.46875 131.40625 182.070312 129.800781 184.042969 129.800781 L 223.375 129.800781 C 225.347656 129.800781 226.953125 131.40625 226.953125 133.378906 C 226.953125 135.351562 225.347656 136.953125 223.375 136.953125 L 184.042969 136.953125 C 182.070312 136.953125 180.46875 135.351562 180.46875 133.378906 Z M 237.738281 133.378906 C 237.738281 131.40625 239.34375 129.800781 241.316406 129.800781 L 251.070312 129.800781 C 253.042969 129.800781 254.644531 131.40625 254.644531 133.378906 C 254.644531 135.351562 253.042969 136.953125 251.070312 136.953125 L 241.316406 136.953125 C 239.34375 136.953125 237.738281 135.351562 237.738281 133.378906 Z M 180.46875 146.949219 C 180.46875 144.976562 182.070312 143.375 184.042969 143.375 L 251.066406 143.375 C 253.035156 143.375 254.640625 144.976562 254.640625 146.949219 C 254.640625 148.925781 253.035156 150.527344 251.066406 150.527344 L 184.042969 150.527344 C 182.070312 150.527344 180.46875 148.925781 180.46875 146.949219 Z M 180.46875 160.523438 C 180.46875 158.550781 182.070312 156.949219 184.042969 156.949219 L 223.375 156.949219 C 225.347656 156.949219 226.953125 158.550781 226.953125 160.523438 C 226.953125 162.496094 225.347656 164.101562 223.375 164.101562 L 184.042969 164.101562 C 182.070312 164.101562 180.46875 162.496094 180.46875 160.523438 Z M 254.644531 160.523438 C 254.644531 162.496094 253.042969 164.101562 251.070312 164.101562 L 241.316406 164.101562 C 239.34375 164.101562 237.738281 162.496094 237.738281 160.523438 C 237.738281 158.550781 239.34375 156.949219 241.316406 156.949219 L 251.070312 156.949219 C 253.042969 156.949219 254.644531 158.550781 254.644531 160.523438 Z M 254.644531 160.523438 " fill-opacity="1" fill-rule="nonzero"/></g></svg>