<svg xmlns="http://www.w3.org/2000/svg" xmlns:xlink="http://www.w3.org/1999/xlink" width="500" zoomAndPan="magnify" viewBox="0 0 375 374.999991" height="500" preserveAspectRatio="xMidYMid meet" version="1.0"><defs><clipPath id="2c4e3ac67e"><path d="M 83.640625 83.640625 L 291.390625 83.640625 L 291.390625 291.390625 L 83.640625 291.390625 Z M 83.640625 83.640625 " clip-rule="nonzero"/></clipPath></defs><g clip-path="url(#2c4e3ac67e)"><path fill="#0ad9fd" d="M 272.585938 101.832031 L 172.238281 101.832031 C 170.386719 101.832031 168.890625 103.328125 168.890625 105.179688 C 168.890625 107.027344 170.386719 108.527344 172.238281 108.527344 L 272.585938 108.527344 C 279.265625 108.527344 284.695312 113.960938 284.695312 120.636719 L 284.695312 226.972656 C 284.695312 233.644531 279.265625 239.070312 272.585938 239.070312 L 102.449219 239.070312 C 95.769531 239.070312 90.335938 233.644531 90.335938 226.972656 L 90.335938 157.765625 C 90.335938 155.914062 88.839844 154.414062 86.988281 154.414062 C 85.140625 154.414062 83.640625 155.914062 83.640625 157.765625 L 83.640625 226.972656 C 83.640625 237.335938 92.078125 245.765625 102.449219 245.765625 L 152.574219 245.765625 L 152.574219 263.632812 L 132.402344 263.632812 C 123.28125 263.632812 115.863281 269.859375 115.863281 277.515625 L 115.863281 288.046875 C 115.863281 289.894531 117.363281 291.394531 119.210938 291.394531 L 255.820312 291.394531 C 257.671875 291.394531 259.171875 289.894531 259.171875 288.046875 L 259.171875 277.515625 C 259.171875 269.863281 251.75 263.632812 242.632812 263.632812 L 222.460938 263.632812 L 222.460938 245.765625 L 272.585938 245.765625 C 282.957031 245.765625 291.394531 237.335938 291.394531 226.972656 L 291.394531 120.636719 C 291.394531 110.265625 282.957031 101.832031 272.585938 101.832031 Z M 252.472656 277.515625 L 252.472656 284.695312 L 122.5625 284.695312 L 122.5625 277.515625 C 122.5625 273.621094 127.066406 270.332031 132.402344 270.332031 L 242.632812 270.332031 C 247.96875 270.332031 252.472656 273.621094 252.472656 277.515625 Z M 215.761719 263.636719 L 159.273438 263.636719 L 159.273438 245.765625 L 215.761719 245.765625 Z M 99.917969 171.714844 C 98.070312 171.714844 96.570312 173.214844 96.570312 175.0625 L 96.570312 216.394531 C 96.570312 218.242188 98.070312 219.742188 99.917969 219.742188 L 275.117188 219.742188 C 276.964844 219.742188 278.464844 218.242188 278.464844 216.394531 L 278.464844 120.246094 C 278.464844 117.222656 276.003906 114.761719 272.980469 114.761719 L 176.464844 114.761719 C 174.613281 114.761719 173.117188 116.257812 173.117188 118.109375 C 173.117188 119.957031 174.613281 121.457031 176.464844 121.457031 L 271.769531 121.457031 L 271.769531 213.042969 L 262.269531 213.042969 L 262.269531 146.1875 C 262.269531 144.339844 260.769531 142.839844 258.921875 142.839844 L 243.332031 142.839844 C 241.484375 142.839844 239.984375 144.339844 239.984375 146.1875 L 239.984375 213.042969 L 233.324219 213.042969 L 233.324219 173.128906 C 233.324219 171.277344 231.824219 169.777344 229.976562 169.777344 L 214.386719 169.777344 C 212.535156 169.777344 211.039062 171.277344 211.039062 173.128906 L 211.039062 213.042969 L 204.375 213.042969 L 204.375 166.632812 C 204.375 164.785156 202.878906 163.285156 201.027344 163.285156 L 185.441406 163.285156 C 183.589844 163.285156 182.089844 164.785156 182.089844 166.632812 L 182.089844 213.042969 L 175.429688 213.042969 L 175.429688 185.9375 C 175.429688 184.089844 173.933594 182.589844 172.082031 182.589844 L 156.503906 182.589844 C 154.65625 182.589844 153.15625 184.089844 153.15625 185.9375 L 153.15625 213.042969 L 103.265625 213.042969 L 103.265625 175.0625 C 103.265625 173.214844 101.769531 171.714844 99.917969 171.714844 Z M 246.679688 149.535156 L 255.574219 149.535156 L 255.574219 213.042969 L 246.679688 213.042969 Z M 217.734375 176.476562 L 226.625 176.476562 L 226.625 213.042969 L 217.734375 213.042969 Z M 188.789062 169.980469 L 197.679688 169.980469 L 197.679688 213.042969 L 188.789062 213.042969 Z M 159.855469 189.285156 L 168.734375 189.285156 L 168.734375 213.042969 L 159.855469 213.042969 Z M 99.152344 120.363281 C 97.863281 120.863281 97.011719 122.101562 97.011719 123.488281 L 97.011719 130.730469 C 97.011719 132.113281 97.859375 133.355469 99.152344 133.851562 L 102.003906 134.953125 C 102.472656 136.460938 103.078125 137.914062 103.816406 139.3125 L 102.570312 142.105469 C 102.007812 143.375 102.28125 144.855469 103.261719 145.835938 L 108.378906 150.953125 C 109.359375 151.933594 110.84375 152.207031 112.109375 151.644531 L 114.910156 150.398438 C 116.304688 151.128906 117.757812 151.730469 119.257812 152.203125 L 120.363281 155.0625 C 120.859375 156.355469 122.101562 157.207031 123.488281 157.207031 L 130.730469 157.207031 C 132.113281 157.207031 133.355469 156.355469 133.851562 155.0625 L 134.957031 152.203125 C 136.46875 151.730469 137.925781 151.128906 139.308594 150.398438 L 142.105469 151.644531 C 143.375 152.207031 144.855469 151.933594 145.835938 150.953125 L 150.953125 145.835938 C 151.933594 144.855469 152.207031 143.371094 151.644531 142.105469 L 150.398438 139.308594 C 151.128906 137.925781 151.730469 136.46875 152.203125 134.957031 L 155.0625 133.851562 C 156.355469 133.355469 157.207031 132.113281 157.207031 130.730469 L 157.207031 123.484375 C 157.207031 122.101562 156.355469 120.859375 155.0625 120.363281 L 152.203125 119.257812 C 151.730469 117.746094 151.128906 116.289062 150.398438 114.90625 L 151.644531 112.109375 C 152.207031 110.84375 151.933594 109.359375 150.953125 108.378906 L 145.835938 103.261719 C 144.855469 102.28125 143.375 102.007812 142.105469 102.570312 L 139.3125 103.816406 C 137.914062 103.078125 136.460938 102.472656 134.953125 102.003906 L 133.851562 99.152344 C 133.355469 97.859375 132.113281 97.011719 130.730469 97.011719 L 123.488281 97.011719 C 122.101562 97.011719 120.863281 97.859375 120.363281 99.152344 L 119.261719 102.003906 C 117.757812 102.472656 116.300781 103.078125 114.90625 103.816406 L 112.109375 102.570312 C 110.84375 102.007812 109.359375 102.28125 108.378906 103.261719 L 103.261719 108.378906 C 102.28125 109.359375 102.007812 110.84375 102.570312 112.109375 L 103.816406 114.90625 C 103.078125 116.300781 102.472656 117.757812 102.003906 119.261719 Z M 103.707031 125.78125 L 105.992188 124.902344 C 107.023438 124.503906 107.789062 123.621094 108.046875 122.546875 C 108.519531 120.535156 109.316406 118.621094 110.410156 116.859375 C 110.996094 115.914062 111.074219 114.742188 110.625 113.730469 L 109.625 111.488281 L 111.488281 109.625 L 113.730469 110.625 C 114.742188 111.074219 115.914062 110.996094 116.859375 110.410156 C 118.621094 109.316406 120.535156 108.519531 122.546875 108.046875 C 123.621094 107.792969 124.503906 107.023438 124.902344 105.992188 L 125.78125 103.707031 L 128.433594 103.707031 L 129.316406 105.992188 C 129.714844 107.023438 130.59375 107.789062 131.667969 108.046875 C 133.679688 108.519531 135.59375 109.316406 137.359375 110.410156 C 138.300781 110.996094 139.472656 111.074219 140.484375 110.625 L 142.730469 109.625 L 144.589844 111.488281 L 143.59375 113.730469 C 143.140625 114.742188 143.222656 115.914062 143.804688 116.859375 C 144.882812 118.59375 145.679688 120.511719 146.175781 122.5625 C 146.433594 123.628906 147.199219 124.503906 148.222656 124.898438 L 150.507812 125.78125 L 150.507812 128.433594 L 148.222656 129.316406 C 147.199219 129.710938 146.433594 130.585938 146.175781 131.652344 C 145.679688 133.703125 144.882812 135.621094 143.804688 137.355469 C 143.222656 138.300781 143.140625 139.472656 143.59375 140.484375 L 144.589844 142.726562 L 142.730469 144.589844 L 140.484375 143.589844 C 139.472656 143.140625 138.300781 143.21875 137.359375 143.804688 C 135.621094 144.882812 133.703125 145.679688 131.652344 146.171875 C 130.585938 146.429688 129.710938 147.195312 129.316406 148.222656 L 128.433594 150.507812 L 125.785156 150.507812 L 124.902344 148.222656 C 124.503906 147.195312 123.632812 146.429688 122.5625 146.171875 C 120.539062 145.6875 118.617188 144.886719 116.847656 143.796875 C 115.90625 143.21875 114.738281 143.140625 113.730469 143.589844 L 111.488281 144.589844 L 109.625 142.726562 L 110.625 140.484375 C 111.074219 139.472656 110.996094 138.300781 110.410156 137.355469 C 109.316406 135.59375 108.519531 133.679688 108.046875 131.667969 C 107.792969 130.59375 107.023438 129.710938 105.992188 129.316406 L 103.707031 128.433594 Z M 127.109375 143.089844 C 135.921875 143.089844 143.089844 135.921875 143.089844 127.109375 C 143.089844 118.296875 135.917969 111.128906 127.109375 111.128906 C 118.296875 111.128906 111.128906 118.296875 111.128906 127.109375 C 111.128906 135.921875 118.296875 143.089844 127.109375 143.089844 Z M 127.109375 117.824219 C 132.226562 117.824219 136.394531 121.988281 136.394531 127.109375 C 136.394531 132.226562 132.226562 136.394531 127.109375 136.394531 C 121.988281 136.394531 117.824219 132.226562 117.824219 127.109375 C 117.824219 121.988281 121.988281 117.824219 127.109375 117.824219 Z M 158.898438 108.621094 C 157.964844 107.027344 158.503906 104.976562 160.101562 104.042969 C 161.699219 103.113281 163.75 103.652344 164.679688 105.25 C 168.535156 111.859375 170.574219 119.417969 170.574219 127.109375 C 170.574219 151.078125 151.074219 170.574219 127.109375 170.574219 C 119.476562 170.574219 111.996094 168.550781 105.4375 164.78125 C 105.152344 165.894531 104.304688 166.832031 103.117188 167.167969 C 102.808594 167.257812 102.5 167.296875 102.195312 167.296875 C 100.738281 167.296875 99.398438 166.339844 98.980469 164.867188 L 96.949219 157.757812 C 96.667969 156.769531 96.855469 155.703125 97.457031 154.871094 C 98.0625 154.039062 99.015625 153.53125 100.042969 153.492188 L 107.441406 153.21875 C 109.289062 153.152344 110.84375 154.59375 110.910156 156.441406 C 110.953125 157.640625 110.363281 158.710938 109.4375 159.335938 C 114.824219 162.289062 120.902344 163.878906 127.109375 163.878906 C 147.382812 163.878906 163.878906 147.382812 163.878906 127.109375 C 163.878906 120.601562 162.15625 114.210938 158.898438 108.621094 Z M 89.816406 149.441406 C 85.777344 142.710938 83.640625 134.988281 83.640625 127.109375 C 83.640625 103.140625 103.140625 83.640625 127.109375 83.640625 C 134.757812 83.640625 142.21875 85.667969 148.765625 89.433594 C 149.054688 88.320312 149.902344 87.386719 151.085938 87.046875 C 152.863281 86.539062 154.71875 87.570312 155.226562 89.347656 L 157.253906 96.460938 C 157.539062 97.449219 157.347656 98.515625 156.742188 99.347656 C 156.136719 100.179688 155.183594 100.6875 154.152344 100.726562 L 146.757812 100.988281 C 146.71875 100.988281 146.675781 100.988281 146.636719 100.988281 C 144.84375 100.988281 143.355469 99.566406 143.292969 97.757812 C 143.25 96.5625 143.84375 95.492188 144.769531 94.867188 C 139.390625 91.917969 133.324219 90.339844 127.109375 90.339844 C 106.832031 90.339844 90.335938 106.832031 90.335938 127.109375 C 90.335938 133.777344 92.144531 140.308594 95.558594 145.996094 C 96.511719 147.582031 95.996094 149.640625 94.410156 150.589844 C 93.871094 150.914062 93.277344 151.070312 92.691406 151.070312 C 91.554688 151.066406 90.445312 150.488281 89.816406 149.441406 Z M 162.238281 167.136719 L 191.183594 144.601562 C 192.058594 143.921875 193.21875 143.71875 194.273438 144.058594 L 221.257812 152.804688 L 242.320312 131.566406 L 241.996094 131.59375 C 240.152344 131.757812 238.53125 130.390625 238.371094 128.550781 C 238.210938 126.707031 239.574219 125.085938 241.417969 124.925781 L 250.832031 124.105469 C 251.832031 124.015625 252.816406 124.382812 253.515625 125.101562 C 254.21875 125.820312 254.558594 126.8125 254.449219 127.808594 L 253.40625 137.203125 C 253.214844 138.914062 251.765625 140.179688 250.082031 140.179688 C 249.957031 140.179688 249.832031 140.171875 249.707031 140.160156 C 247.921875 139.960938 246.628906 138.394531 246.738281 136.621094 L 224.566406 158.980469 C 223.675781 159.878906 222.355469 160.199219 221.15625 159.808594 L 193.898438 150.976562 L 166.351562 172.421875 C 165.742188 172.898438 165.015625 173.128906 164.296875 173.128906 C 163.300781 173.128906 162.3125 172.683594 161.652344 171.835938 C 160.515625 170.375 160.777344 168.273438 162.238281 167.136719 Z M 162.238281 167.136719 " fill-opacity="1" fill-rule="nonzero"/></g></svg>