<svg xmlns="http://www.w3.org/2000/svg" xmlns:xlink="http://www.w3.org/1999/xlink" width="500" zoomAndPan="magnify" viewBox="0 0 375 374.999991" height="500" preserveAspectRatio="xMidYMid meet" version="1.0"><defs><clipPath id="01599e0ade"><path d="M 37.5 37.5 L 331.5 37.5 L 331.5 351.75 L 37.5 351.75 Z M 37.5 37.5 " clip-rule="nonzero"/></clipPath></defs><g clip-path="url(#01599e0ade)"><path fill="#0ad9fd" d="M 107.328125 182.261719 L 270.839844 182.261719 C 292.265625 182.261719 309.699219 164.828125 309.699219 143.402344 C 309.699219 121.976562 292.265625 104.546875 270.839844 104.546875 C 270.445312 104.546875 270.050781 104.550781 269.660156 104.5625 C 268.730469 93.550781 264.078125 83.308594 256.261719 75.265625 C 247.167969 65.90625 234.964844 60.753906 221.902344 60.753906 C 217.050781 60.753906 212.277344 61.496094 207.734375 62.910156 C 198.296875 47.132812 181.472656 37.5 162.851562 37.5 C 135.121094 37.5 112.363281 59.1875 110.628906 86.496094 C 109.535156 86.421875 108.433594 86.386719 107.328125 86.386719 C 80.898438 86.386719 59.398438 107.894531 59.398438 134.332031 C 59.398438 160.761719 80.898438 182.261719 107.328125 182.261719 Z M 107.328125 96.1875 C 109.660156 96.1875 111.960938 96.394531 114.214844 96.804688 C 114.4375 96.863281 114.664062 96.90625 114.894531 96.933594 C 120.152344 97.988281 125.132812 100.148438 129.5625 103.332031 C 131.761719 104.910156 134.824219 104.402344 136.402344 102.207031 C 137.980469 100.007812 137.476562 96.945312 135.277344 95.367188 C 130.703125 92.085938 125.671875 89.667969 120.359375 88.171875 C 121.238281 65.488281 139.960938 47.300781 162.851562 47.300781 C 177.527344 47.300781 190.832031 54.664062 198.617188 66.808594 C 192.640625 70.128906 187.359375 74.722656 183.226562 80.359375 C 181.628906 82.542969 182.101562 85.609375 184.285156 87.210938 C 186.464844 88.808594 189.535156 88.335938 191.132812 86.15625 C 198.292969 76.386719 209.796875 70.554688 221.902344 70.554688 C 232.292969 70.554688 242 74.652344 249.234375 82.097656 C 256.484375 89.558594 260.3125 99.40625 260.015625 109.828125 C 259.972656 111.304688 260.597656 112.71875 261.71875 113.683594 C 262.835938 114.644531 264.332031 115.054688 265.78125 114.789062 C 267.417969 114.496094 269.117188 114.347656 270.839844 114.347656 C 286.863281 114.347656 299.898438 127.382812 299.898438 143.402344 C 299.898438 159.425781 286.863281 172.460938 270.839844 172.460938 L 107.328125 172.460938 C 86.304688 172.460938 69.199219 155.355469 69.199219 134.332031 C 69.199219 113.296875 86.304688 96.1875 107.328125 96.1875 Z M 294.039062 240.871094 L 294.039062 222.40625 C 294.039062 219.699219 291.84375 217.503906 289.136719 217.503906 L 189.441406 217.503906 L 189.441406 205.179688 L 192.71875 208.457031 C 194.628906 210.371094 197.734375 210.371094 199.648438 208.457031 C 201.5625 206.542969 201.5625 203.441406 199.648438 201.527344 L 188.003906 189.882812 C 187.085938 188.964844 185.839844 188.449219 184.539062 188.449219 C 184.539062 188.449219 184.539062 188.449219 184.535156 188.449219 C 183.238281 188.449219 181.988281 188.964844 181.070312 189.886719 L 169.445312 201.527344 C 167.53125 203.445312 167.535156 206.546875 169.449219 208.460938 C 170.40625 209.414062 171.660156 209.890625 172.914062 209.890625 C 174.167969 209.890625 175.421875 209.414062 176.378906 208.453125 L 179.636719 205.191406 L 179.636719 217.503906 L 79.957031 217.503906 C 77.25 217.503906 75.054688 219.699219 75.054688 222.40625 L 75.054688 240.867188 C 55.730469 241.863281 37.605469 248.726562 37.605469 260.984375 L 37.605469 331.140625 C 37.605469 344.429688 58.910156 351.382812 79.957031 351.382812 C 101.003906 351.382812 122.308594 344.429688 122.308594 331.140625 L 122.308594 260.984375 C 122.308594 248.726562 104.183594 241.863281 84.855469 240.867188 L 84.855469 227.304688 L 179.636719 227.304688 L 179.636719 240.871094 C 160.320312 241.863281 142.207031 248.726562 142.207031 260.984375 L 142.207031 331.140625 C 142.207031 344.433594 163.5 351.386719 184.539062 351.386719 C 205.585938 351.386719 226.890625 344.429688 226.890625 331.140625 L 226.890625 260.984375 C 226.890625 248.726562 208.765625 241.863281 189.441406 240.871094 L 189.441406 227.304688 L 284.238281 227.304688 L 284.238281 240.871094 C 264.910156 241.863281 246.789062 248.726562 246.789062 260.984375 L 246.789062 331.140625 C 246.789062 344.433594 268.09375 351.386719 289.136719 351.386719 C 310.175781 351.386719 331.472656 344.429688 331.472656 331.140625 L 331.472656 260.984375 C 331.472656 248.726562 313.359375 241.863281 294.039062 240.871094 Z M 112.503906 331.140625 C 112.503906 334.824219 100.148438 341.585938 79.957031 341.585938 C 59.765625 341.585938 47.40625 334.824219 47.40625 331.140625 L 47.40625 321.164062 C 55.582031 325.675781 67.808594 327.996094 79.957031 327.996094 C 92.105469 327.996094 104.332031 325.675781 112.507812 321.164062 L 112.507812 331.140625 Z M 112.503906 307.765625 C 112.503906 311.441406 100.148438 318.195312 79.957031 318.195312 C 59.765625 318.195312 47.40625 311.441406 47.40625 307.765625 L 47.40625 297.78125 C 55.582031 302.296875 67.808594 304.621094 79.957031 304.621094 C 92.105469 304.621094 104.332031 302.300781 112.507812 297.78125 L 112.507812 307.765625 Z M 112.503906 284.375 C 112.503906 288.058594 100.148438 294.820312 79.957031 294.820312 C 59.765625 294.820312 47.40625 288.058594 47.40625 284.375 L 47.40625 274.339844 C 48.65625 275.035156 50.058594 275.710938 51.636719 276.359375 C 59.300781 279.5 69.359375 281.230469 79.957031 281.230469 C 90.554688 281.230469 100.609375 279.5 108.277344 276.359375 C 109.855469 275.710938 111.257812 275.035156 112.507812 274.339844 L 112.507812 284.375 Z M 112.503906 260.984375 C 112.503906 264.667969 100.148438 271.429688 79.957031 271.429688 C 59.765625 271.429688 47.40625 264.667969 47.40625 260.984375 C 47.40625 257.300781 59.765625 250.539062 79.957031 250.539062 C 100.148438 250.539062 112.503906 257.300781 112.503906 260.984375 Z M 217.089844 331.140625 C 217.089844 334.824219 204.730469 341.585938 184.539062 341.585938 C 164.359375 341.585938 152.007812 334.824219 152.007812 331.140625 L 152.007812 321.164062 C 160.175781 325.675781 172.398438 327.996094 184.539062 327.996094 C 196.6875 327.996094 208.914062 325.675781 217.089844 321.164062 Z M 217.089844 307.765625 C 217.089844 311.441406 204.730469 318.195312 184.539062 318.195312 C 164.359375 318.195312 152.007812 311.441406 152.007812 307.765625 L 152.007812 297.785156 C 160.175781 302.300781 172.398438 304.621094 184.539062 304.621094 C 196.6875 304.621094 208.914062 302.300781 217.089844 297.78125 Z M 217.089844 284.375 C 217.089844 288.058594 204.730469 294.820312 184.539062 294.820312 C 164.359375 294.820312 152.007812 288.058594 152.007812 284.375 L 152.007812 274.339844 C 153.257812 275.035156 154.65625 275.710938 156.234375 276.359375 C 163.898438 279.5 173.949219 281.230469 184.539062 281.230469 C 195.136719 281.230469 205.195312 279.5 212.859375 276.359375 C 214.4375 275.710938 215.839844 275.035156 217.089844 274.339844 Z M 217.089844 260.984375 C 217.089844 264.667969 204.730469 271.429688 184.539062 271.429688 C 164.359375 271.429688 152.007812 264.667969 152.007812 260.984375 C 152.007812 257.300781 164.359375 250.539062 184.539062 250.539062 C 204.730469 250.539062 217.089844 257.300781 217.089844 260.984375 Z M 321.671875 331.140625 C 321.671875 334.824219 309.320312 341.585938 289.136719 341.585938 C 268.945312 341.585938 256.589844 334.824219 256.589844 331.140625 L 256.589844 321.164062 C 264.761719 325.675781 276.988281 327.996094 289.136719 327.996094 C 301.28125 327.996094 313.5 325.675781 321.671875 321.164062 Z M 321.671875 307.765625 C 321.671875 311.441406 309.320312 318.195312 289.136719 318.195312 C 268.945312 318.195312 256.589844 311.441406 256.589844 307.765625 L 256.589844 297.78125 C 264.761719 302.296875 276.988281 304.621094 289.136719 304.621094 C 301.28125 304.621094 313.5 302.300781 321.671875 297.785156 Z M 321.671875 284.375 C 321.671875 288.058594 309.320312 294.820312 289.136719 294.820312 C 268.945312 294.820312 256.589844 288.058594 256.589844 284.375 L 256.589844 274.339844 C 257.839844 275.035156 259.242188 275.710938 260.820312 276.359375 C 268.484375 279.5 278.542969 281.230469 289.136719 281.230469 C 299.730469 281.230469 309.78125 279.5 317.441406 276.359375 C 319.019531 275.710938 320.421875 275.035156 321.671875 274.339844 Z M 289.136719 271.429688 C 268.945312 271.429688 256.589844 264.667969 256.589844 260.984375 C 256.589844 257.304688 268.945312 250.539062 289.136719 250.539062 C 309.320312 250.539062 321.671875 257.300781 321.671875 260.984375 C 321.671875 264.667969 309.320312 271.429688 289.136719 271.429688 Z M 289.136719 271.429688 " fill-opacity="1" fill-rule="nonzero"/></g></svg>