<svg xmlns="http://www.w3.org/2000/svg" xmlns:xlink="http://www.w3.org/1999/xlink" width="500" zoomAndPan="magnify" viewBox="0 0 375 374.999991" height="500" preserveAspectRatio="xMidYMid meet" version="1.0"><defs><clipPath id="50e13d6613"><path d="M 37.5 240 L 337.5 240 L 337.5 337.5 L 37.5 337.5 Z M 37.5 240 " clip-rule="nonzero"/></clipPath><clipPath id="e53010ff0c"><path d="M 102 37.5 L 273 37.5 L 273 308 L 102 308 Z M 102 37.5 " clip-rule="nonzero"/></clipPath></defs><g clip-path="url(#50e13d6613)"><path fill="#0ad9fd" d="M 238.648438 240.351562 C 238.648438 240.351562 238.25 240.351562 238.101562 240.351562 L 238.050781 240.351562 L 238.050781 245.550781 C 238.050781 245.550781 237.550781 250.300781 237.550781 250.300781 C 296.601562 257.101562 327.5 274.199219 327.5 287.550781 C 327.5 306.148438 273.351562 326.601562 192.550781 327.5 C 190.898438 327.5 189.199219 327.5 187.5 327.5 C 185.800781 327.5 184.101562 327.5 182.300781 327.5 C 101.648438 326.601562 47.5 306.148438 47.5 287.550781 C 47.5 274.199219 78.398438 257.148438 137.449219 250.300781 L 136.898438 245.550781 L 136.898438 240.300781 C 136.898438 240.300781 136.5 240.300781 136.300781 240.300781 C 88.5 245.800781 37.449219 261.101562 37.449219 287.449219 C 37.449219 318.851562 112 336.648438 182.101562 337.398438 C 183.851562 337.398438 185.648438 337.398438 187.449219 337.398438 C 189.25 337.398438 191.050781 337.398438 192.75 337.398438 C 262.898438 336.648438 337.449219 318.851562 337.449219 287.449219 C 337.449219 261.050781 286.398438 245.800781 238.601562 240.300781 Z M 238.648438 240.351562 " fill-opacity="1" fill-rule="nonzero"/></g><path fill="#0ad9fd" d="M 181.949219 151.300781 C 182.25 151.300781 182.5 151.300781 182.800781 151.25 C 184.25 151 185.5 150.148438 186.25 148.898438 L 216.25 98.898438 L 207.699219 93.75 L 180.699219 138.75 L 165.199219 125.800781 L 158.800781 133.5 L 178.800781 150.148438 C 179.699219 150.898438 180.851562 151.300781 182 151.300781 Z M 181.949219 151.300781 " fill-opacity="1" fill-rule="nonzero"/><g clip-path="url(#e53010ff0c)"><path fill="#0ad9fd" d="M 183 304.699219 C 183.851562 306.398438 185.601562 307.5 187.5 307.5 C 189.398438 307.5 191.148438 306.398438 192 304.699219 L 263.5 160.25 C 279.148438 127.601562 274.148438 90.5 250.851562 65.75 C 233.648438 47.5 211.199219 37.449219 187.5 37.449219 C 163.800781 37.449219 141.351562 47.5 124.148438 65.75 C 100.851562 90.5 95.898438 127.601562 111.5 160.25 C 111.5 160.25 182.949219 304.699219 182.949219 304.699219 Z M 187.5 67.5 C 217.898438 67.5 242.5 92.101562 242.5 122.5 C 242.5 152.898438 217.898438 177.5 187.5 177.5 C 157.101562 177.5 132.5 152.898438 132.5 122.5 C 132.5 92.101562 157.101562 67.5 187.5 67.5 Z M 187.5 67.5 " fill-opacity="1" fill-rule="nonzero"/></g></svg>