<svg xmlns="http://www.w3.org/2000/svg" xmlns:xlink="http://www.w3.org/1999/xlink" width="500" zoomAndPan="magnify" viewBox="0 0 375 374.999991" height="500" preserveAspectRatio="xMidYMid meet" version="1.0"><defs><clipPath id="7cea198a08"><path d="M 98.203125 101 L 261 101 L 261 280 L 98.203125 280 Z M 98.203125 101 " clip-rule="nonzero"/></clipPath><clipPath id="3c7a85d3e9"><path d="M 234 101 L 276.703125 101 L 276.703125 159 L 234 159 Z M 234 101 " clip-rule="nonzero"/></clipPath><clipPath id="66908458fa"><path d="M 98.203125 253 L 226 253 L 226 300 L 98.203125 300 Z M 98.203125 253 " clip-rule="nonzero"/></clipPath></defs><path fill="#0ad9fd" d="M 240.359375 118.9375 L 173.835938 118.699219 C 172.269531 118.699219 170.988281 117.417969 170.988281 115.851562 C 170.988281 114.289062 172.269531 113.007812 173.835938 113.007812 L 240.359375 113.242188 C 241.921875 113.242188 243.203125 114.523438 243.203125 116.089844 C 243.203125 117.65625 241.921875 118.9375 240.359375 118.9375 Z M 240.359375 118.9375 " fill-opacity="1" fill-rule="nonzero"/><g clip-path="url(#7cea198a08)"><path fill="#0ad9fd" d="M 178.960938 279.359375 C 172.933594 279.359375 164.441406 278.507812 151.675781 276.558594 C 142.1875 275.089844 134.074219 274.332031 126.910156 273.667969 C 112.53125 272.289062 103.894531 271.484375 100.101562 266.359375 C 98.34375 263.988281 97.917969 261.042969 98.675781 257.296875 C 101.761719 242.351562 130.894531 169.898438 134.976562 160.976562 C 136.160156 158.320312 138.105469 153.574219 140.335938 148.023438 C 148.59375 127.476562 155.234375 111.441406 159.457031 108.023438 C 160.40625 107.265625 161.167969 106.554688 161.878906 105.9375 C 165.625 102.519531 167.570312 101.097656 177.773438 101.097656 C 179.339844 101.097656 180.621094 102.378906 180.621094 103.945312 C 180.621094 105.507812 179.339844 106.789062 177.773438 106.789062 C 169.375 106.789062 168.519531 107.550781 165.722656 110.113281 C 165.007812 110.777344 164.15625 111.535156 163.0625 112.390625 C 159.648438 115.1875 150.539062 137.917969 145.652344 150.109375 C 143.421875 155.710938 141.476562 160.550781 140.195312 163.300781 C 135.921875 172.695312 107.21875 244.390625 104.324219 258.386719 C 103.753906 261.140625 104.277344 262.277344 104.75 262.894531 C 107.027344 265.980469 116.042969 266.832031 127.523438 267.925781 C 134.40625 268.589844 142.992188 269.394531 152.625 270.867188 C 183.941406 275.707031 187.359375 273.382812 192.53125 269.871094 C 192.957031 269.585938 193.335938 269.300781 193.8125 269.015625 C 196.089844 266.832031 204.628906 247.949219 218.625 210.558594 C 229.398438 181.710938 239.597656 152.105469 241.304688 144.558594 C 244.914062 128.570312 254.925781 107.265625 255.304688 106.363281 C 255.96875 104.941406 257.675781 104.324219 259.097656 104.988281 C 260.523438 105.652344 261.140625 107.359375 260.476562 108.785156 C 260.378906 109.019531 250.320312 130.417969 246.859375 145.792969 C 245.054688 153.667969 234.617188 184.082031 223.609375 213.550781 C 202.351562 270.203125 198.367188 272.8125 197.035156 273.714844 C 196.609375 274 196.183594 274.28125 195.757812 274.566406 C 191.484375 277.414062 188.023438 279.359375 178.960938 279.359375 Z M 193.761719 269.015625 Z M 193.761719 269.015625 " fill-opacity="1" fill-rule="nonzero"/></g><path fill="#0ad9fd" d="M 178.816406 117.371094 C 177.25 117.371094 175.96875 116.089844 175.96875 114.523438 C 175.96875 112.957031 175.921875 111.296875 175.921875 109.589844 C 175.734375 97.773438 175.542969 83.113281 182.992188 76.660156 C 184.035156 75.757812 185.554688 75.757812 186.644531 76.613281 L 191.25 80.265625 L 196.753906 75.710938 C 197.796875 74.859375 199.363281 74.859375 200.40625 75.710938 C 202.019531 77.085938 203.917969 78.605469 205.199219 79.601562 C 205.433594 79.414062 205.625 79.222656 205.816406 79.082031 C 209.941406 75.710938 211.082031 74.808594 212.648438 75.046875 C 213.40625 75.140625 214.117188 75.523438 214.59375 76.140625 C 215.164062 76.753906 217.820312 79.460938 219.574219 81.074219 C 220.761719 79.886719 222.421875 78.132812 223.84375 76.566406 C 224.367188 75.996094 225.078125 75.664062 225.839844 75.664062 C 226.597656 75.664062 227.308594 75.902344 227.878906 76.421875 L 231.199219 79.601562 C 233.191406 78.179688 236.183594 76.375 238.886719 76.1875 C 239.976562 76.089844 241.070312 76.519531 241.78125 77.324219 C 243.488281 79.269531 243.015625 82.355469 241.304688 91.039062 C 239.976562 97.679688 238.363281 105.984375 238.363281 113.527344 C 238.363281 115.09375 237.082031 116.375 235.519531 116.375 C 233.953125 116.375 232.671875 115.09375 232.671875 113.527344 C 232.671875 105.414062 234.378906 96.828125 235.707031 89.898438 C 236.183594 87.480469 236.75 84.632812 236.988281 82.640625 C 235.519531 83.398438 233.90625 84.585938 232.859375 85.484375 C 231.769531 86.433594 230.109375 86.386719 229.015625 85.390625 L 225.980469 82.496094 C 221.851562 86.863281 221.425781 87.050781 221 87.289062 C 218.863281 88.378906 217.34375 86.863281 213.976562 83.636719 C 213.40625 83.113281 212.601562 82.257812 211.792969 81.453125 C 210.988281 82.117188 209.992188 82.925781 209.328125 83.445312 C 206.765625 85.582031 206.289062 85.960938 205.101562 85.960938 C 204.058594 85.960938 203.726562 85.960938 198.460938 81.546875 L 193.003906 86.054688 C 191.960938 86.910156 190.488281 86.910156 189.398438 86.101562 L 185.082031 82.6875 C 181.238281 88.378906 181.378906 99.957031 181.523438 109.449219 C 181.570312 111.203125 181.570312 112.863281 181.570312 114.476562 C 181.664062 116.136719 180.382812 117.371094 178.816406 117.371094 Z M 210.085938 79.648438 C 210.132812 79.699219 210.179688 79.792969 210.226562 79.839844 C 210.179688 79.792969 210.132812 79.699219 210.085938 79.648438 Z M 214.59375 76.1875 C 214.59375 76.1875 214.640625 76.234375 214.640625 76.234375 C 214.640625 76.234375 214.59375 76.234375 214.59375 76.1875 Z M 214.59375 76.1875 " fill-opacity="1" fill-rule="nonzero"/><g clip-path="url(#3c7a85d3e9)"><path fill="#0ad9fd" d="M 269.347656 158.175781 L 265.648438 153.859375 C 265.648438 153.859375 265.601562 153.90625 265.550781 153.953125 C 265.601562 153.90625 268.589844 150.585938 270.867188 136.730469 C 272.621094 126.007812 262.375 113.71875 257.867188 108.925781 C 256.585938 107.550781 254.78125 106.742188 252.929688 106.742188 L 237.226562 106.742188 C 235.660156 106.742188 234.378906 105.460938 234.378906 103.894531 C 234.378906 102.332031 235.660156 101.050781 237.226562 101.050781 L 252.929688 101.050781 C 256.347656 101.050781 259.667969 102.472656 262.042969 105.035156 C 268.304688 111.773438 278.554688 124.914062 276.464844 137.632812 C 273.855469 153.621094 270.109375 157.511719 269.347656 158.175781 Z M 269.347656 158.175781 " fill-opacity="1" fill-rule="nonzero"/></g><path fill="#0ad9fd" d="M 223.894531 258.71875 C 222.042969 258.71875 219.527344 257.867188 217.488281 253.878906 C 212.171875 243.394531 221.566406 223.65625 221.664062 223.464844 C 223.371094 219.90625 238.839844 176.632812 243.535156 161.402344 C 248.234375 146.125 252.21875 142.945312 253.3125 142.328125 C 254.355469 141.761719 255.636719 141.902344 256.539062 142.660156 C 256.632812 142.707031 264.746094 149.683594 266.976562 151.582031 C 270.628906 154.617188 272.195312 162.066406 268.257812 168.757812 C 265.835938 172.886719 250.796875 209.421875 242.730469 229.015625 C 239.503906 236.847656 236.988281 243.015625 236.039062 245.195312 C 233.476562 251.222656 229.253906 258.433594 224.035156 258.625 C 224.035156 258.71875 223.941406 258.71875 223.894531 258.71875 Z M 254.972656 148.878906 C 253.644531 150.824219 251.507812 154.949219 248.992188 163.113281 C 244.4375 177.867188 228.875 221.757812 226.835938 225.933594 C 224.128906 231.578125 219.480469 245.195312 222.5625 251.316406 C 223.230469 252.648438 223.75 252.980469 223.894531 253.027344 C 223.894531 253.027344 223.894531 253.027344 223.941406 253.027344 C 224.652344 253.027344 227.640625 250.652344 230.867188 243.0625 C 231.769531 240.925781 234.332031 234.757812 237.511719 226.976562 C 249.277344 198.367188 260.949219 170.132812 263.371094 166.007812 C 266.167969 161.261719 264.507812 157.039062 263.371094 156.089844 C 261.804688 154.714844 257.582031 151.058594 254.972656 148.878906 Z M 254.972656 148.878906 " fill-opacity="1" fill-rule="nonzero"/><g clip-path="url(#66908458fa)"><path fill="#0ad9fd" d="M 192.910156 300 C 181.757812 300 154.761719 296.25 136.539062 293.6875 C 128.472656 292.550781 122.070312 291.648438 119.792969 291.507812 C 111.011719 290.796875 109.398438 288.421875 106.269531 282.632812 L 105.890625 281.96875 C 102.710938 276.179688 98.914062 264.269531 98.773438 263.75 C 98.296875 262.230469 99.105469 260.664062 100.621094 260.191406 C 102.140625 259.714844 103.707031 260.523438 104.179688 262.042969 C 104.226562 262.136719 107.976562 273.902344 110.871094 279.265625 L 111.25 279.976562 C 113.859375 284.769531 114.191406 285.386719 120.265625 285.859375 C 122.6875 286.050781 129.1875 286.953125 137.347656 288.089844 C 156.5625 290.746094 185.601562 294.828125 194.617188 294.304688 C 203.300781 293.785156 204.914062 290.796875 207.097656 286.667969 C 207.808594 285.339844 208.519531 284.011719 209.46875 282.585938 C 212.269531 278.601562 215.398438 269.109375 217.914062 261.472656 C 218.671875 259.097656 219.433594 256.871094 220.097656 254.925781 C 220.617188 253.453125 222.230469 252.648438 223.703125 253.167969 C 225.175781 253.691406 225.980469 255.304688 225.457031 256.773438 C 224.792969 258.671875 224.082031 260.855469 223.324219 263.179688 C 220.570312 271.578125 217.441406 281.117188 214.117188 285.8125 C 213.359375 286.902344 212.742188 288.042969 212.125 289.230469 C 209.660156 293.925781 206.859375 299.242188 194.949219 299.90625 C 194.332031 300 193.667969 300 192.910156 300 Z M 192.910156 300 " fill-opacity="1" fill-rule="nonzero"/></g><path fill="#0ad9fd" d="M 178.152344 288.753906 C 178.105469 288.753906 178.105469 288.753906 178.058594 288.753906 C 169.042969 288.46875 160.121094 286.808594 151.4375 285.195312 C 140.527344 283.15625 130.230469 281.210938 119.648438 281.828125 C 118.082031 281.921875 116.753906 280.734375 116.660156 279.121094 C 116.566406 277.507812 117.75 276.226562 119.363281 276.132812 C 130.609375 275.515625 141.761719 277.605469 152.53125 279.597656 C 160.976562 281.164062 169.707031 282.824219 178.246094 283.0625 C 179.8125 283.109375 181.046875 284.4375 181 286.003906 C 180.953125 287.570312 179.671875 288.753906 178.152344 288.753906 Z M 178.152344 288.753906 " fill-opacity="1" fill-rule="nonzero"/><path fill="#0ad9fd" d="M 201.542969 296.535156 C 200.261719 296.535156 199.125 295.683594 198.792969 294.402344 L 193.429688 273.285156 C 193.050781 271.769531 193.953125 270.203125 195.472656 269.824219 C 196.988281 269.441406 198.554688 270.34375 198.933594 271.863281 L 204.296875 292.976562 C 204.675781 294.496094 203.773438 296.0625 202.257812 296.441406 C 202.019531 296.488281 201.78125 296.535156 201.542969 296.535156 Z M 201.542969 296.535156 " fill-opacity="1" fill-rule="nonzero"/><path fill="#0ad9fd" d="M 217.535156 177.820312 C 217.34375 177.820312 217.109375 177.820312 216.917969 177.820312 L 152.054688 172.933594 C 149.398438 172.742188 146.980469 171.226562 145.601562 168.949219 C 144.226562 166.621094 144.085938 163.824219 145.175781 161.355469 L 160.121094 127.90625 C 161.5 124.820312 164.535156 122.921875 167.902344 123.019531 L 231.246094 124.964844 C 233.953125 125.058594 236.324219 126.386719 237.84375 128.617188 C 239.359375 130.847656 239.644531 133.550781 238.746094 136.066406 L 225.269531 172.410156 C 224.082031 175.683594 220.949219 177.820312 217.535156 177.820312 Z M 167.621094 128.710938 C 166.621094 128.710938 165.722656 129.28125 165.292969 130.230469 L 150.347656 163.679688 C 150.015625 164.441406 150.0625 165.292969 150.492188 166.007812 C 150.917969 166.71875 151.628906 167.191406 152.484375 167.238281 L 217.34375 172.125 C 218.484375 172.222656 219.527344 171.511719 219.90625 170.464844 L 233.382812 134.121094 C 233.667969 133.363281 233.574219 132.507812 233.097656 131.796875 C 232.625 131.082031 231.910156 130.703125 231.058594 130.65625 L 167.714844 128.710938 C 167.667969 128.710938 167.667969 128.710938 167.621094 128.710938 Z M 147.738281 162.496094 Z M 147.738281 162.496094 " fill-opacity="1" fill-rule="nonzero"/><path fill="#0ad9fd" d="M 175.683594 161.214844 C 174.832031 161.214844 173.976562 160.835938 173.457031 160.121094 C 172.507812 158.886719 172.695312 157.085938 173.929688 156.136719 L 198.316406 137.15625 C 199.550781 136.207031 201.355469 136.398438 202.304688 137.632812 C 203.253906 138.867188 203.0625 140.667969 201.828125 141.617188 L 177.441406 160.597656 C 176.917969 161.023438 176.300781 161.214844 175.683594 161.214844 Z M 175.683594 161.214844 " fill-opacity="1" fill-rule="nonzero"/><path fill="#0ad9fd" d="M 188.542969 164.675781 C 187.691406 164.675781 186.882812 164.296875 186.3125 163.585938 C 185.363281 162.351562 185.554688 160.550781 186.789062 159.601562 L 195.613281 152.671875 C 196.847656 151.722656 198.648438 151.914062 199.597656 153.148438 C 200.546875 154.382812 200.359375 156.183594 199.125 157.132812 L 190.300781 164.058594 C 189.777344 164.488281 189.160156 164.675781 188.542969 164.675781 Z M 188.542969 164.675781 " fill-opacity="1" fill-rule="nonzero"/><path fill="#0ad9fd" d="M 152.484375 194.996094 C 152.386719 194.996094 152.292969 194.996094 152.199219 194.996094 L 140.003906 194.285156 C 138.34375 194.191406 136.824219 193.289062 135.972656 191.816406 C 135.117188 190.394531 135.070312 188.589844 135.78125 187.074219 L 138.4375 181.570312 C 139.339844 179.71875 141.191406 178.628906 143.230469 178.722656 L 155.425781 179.433594 C 157.085938 179.527344 158.605469 180.429688 159.457031 181.902344 C 160.3125 183.324219 160.359375 185.128906 159.648438 186.644531 L 156.992188 192.148438 C 156.136719 193.90625 154.429688 194.996094 152.484375 194.996094 Z M 141.378906 188.6875 L 152.105469 189.304688 L 154.144531 185.128906 L 143.421875 184.511719 Z M 141.378906 188.6875 " fill-opacity="1" fill-rule="nonzero"/><path fill="#0ad9fd" d="M 179.527344 196.894531 C 179.480469 196.894531 179.386719 196.894531 179.339844 196.894531 L 167.144531 196.421875 C 165.484375 196.371094 163.964844 195.472656 163.0625 194.046875 C 162.164062 192.625 162.066406 190.867188 162.78125 189.351562 L 165.339844 183.800781 C 166.195312 181.949219 168.046875 180.808594 170.085938 180.855469 L 182.28125 181.332031 C 183.941406 181.378906 185.460938 182.28125 186.359375 183.703125 C 187.261719 185.128906 187.359375 186.882812 186.644531 188.402344 L 184.082031 193.953125 C 183.230469 195.757812 181.472656 196.894531 179.527344 196.894531 Z M 179.527344 191.199219 Z M 168.378906 190.773438 L 179.101562 191.199219 L 181.046875 186.976562 L 170.324219 186.550781 Z M 168.378906 190.773438 " fill-opacity="1" fill-rule="nonzero"/><path fill="#0ad9fd" d="M 207.902344 198.222656 C 207.855469 198.222656 207.761719 198.222656 207.714844 198.222656 L 195.519531 197.75 C 193.859375 197.703125 192.339844 196.800781 191.4375 195.375 C 190.535156 193.953125 190.441406 192.199219 191.152344 190.679688 L 193.714844 185.128906 C 194.570312 183.277344 196.421875 182.136719 198.460938 182.1875 L 210.65625 182.660156 C 212.316406 182.707031 213.832031 183.609375 214.734375 185.03125 C 215.636719 186.457031 215.730469 188.210938 215.019531 189.730469 L 212.457031 195.28125 C 211.652344 197.085938 209.894531 198.222656 207.902344 198.222656 Z M 196.753906 192.101562 L 207.476562 192.53125 L 209.421875 188.304688 L 198.699219 187.878906 Z M 196.753906 192.101562 " fill-opacity="1" fill-rule="nonzero"/><path fill="#0ad9fd" d="M 145.746094 213.644531 C 145.652344 213.644531 145.554688 213.644531 145.460938 213.644531 L 133.265625 212.933594 C 131.605469 212.835938 130.085938 211.9375 129.234375 210.464844 C 128.378906 208.992188 128.332031 207.238281 129.042969 205.71875 L 131.699219 200.214844 C 132.601562 198.367188 134.453125 197.273438 136.492188 197.371094 L 148.6875 198.082031 C 150.347656 198.175781 151.867188 199.078125 152.71875 200.546875 C 153.574219 201.972656 153.621094 203.773438 152.910156 205.292969 L 150.253906 210.796875 C 149.398438 212.550781 147.644531 213.644531 145.746094 213.644531 Z M 145.792969 207.949219 Z M 134.59375 207.285156 L 145.320312 207.902344 L 147.359375 203.726562 L 136.636719 203.109375 Z M 134.59375 207.285156 " fill-opacity="1" fill-rule="nonzero"/><path fill="#0ad9fd" d="M 172.742188 215.496094 C 172.695312 215.496094 172.601562 215.496094 172.554688 215.496094 L 160.359375 215.019531 C 158.699219 214.972656 157.179688 214.070312 156.277344 212.648438 C 155.378906 211.222656 155.28125 209.46875 155.996094 207.949219 L 158.554688 202.398438 C 159.410156 200.546875 161.261719 199.410156 163.300781 199.457031 L 175.496094 199.929688 C 177.15625 199.980469 178.722656 200.878906 179.574219 202.304688 C 180.476562 203.726562 180.574219 205.484375 179.859375 207 L 177.296875 212.550781 C 176.492188 214.355469 174.738281 215.496094 172.742188 215.496094 Z M 172.789062 209.800781 Z M 161.59375 209.375 L 172.316406 209.800781 L 174.261719 205.578125 L 163.539062 205.152344 Z M 161.59375 209.375 " fill-opacity="1" fill-rule="nonzero"/><path fill="#0ad9fd" d="M 201.164062 216.824219 C 201.117188 216.824219 201.023438 216.824219 200.976562 216.824219 L 188.78125 216.347656 C 187.121094 216.300781 185.601562 215.398438 184.699219 213.976562 C 183.800781 212.550781 183.703125 210.796875 184.414062 209.277344 L 186.976562 203.726562 C 187.832031 201.875 189.683594 200.738281 191.722656 200.785156 L 203.917969 201.261719 C 205.578125 201.308594 207.097656 202.207031 207.996094 203.632812 C 208.898438 205.054688 208.992188 206.8125 208.28125 208.328125 L 205.71875 213.882812 C 204.914062 215.730469 203.109375 216.824219 201.164062 216.824219 Z M 201.210938 211.128906 Z M 190.015625 210.703125 L 200.738281 211.128906 L 202.683594 206.90625 L 191.960938 206.480469 Z M 190.015625 210.703125 " fill-opacity="1" fill-rule="nonzero"/><path fill="#0ad9fd" d="M 139.007812 232.242188 C 138.914062 232.242188 138.816406 232.242188 138.722656 232.242188 L 126.527344 231.53125 C 124.867188 231.4375 123.351562 230.535156 122.496094 229.066406 C 121.640625 227.640625 121.59375 225.839844 122.304688 224.320312 L 124.964844 218.816406 C 125.863281 216.964844 127.761719 215.875 129.753906 215.96875 L 141.949219 216.679688 C 143.609375 216.777344 145.128906 217.675781 145.984375 219.148438 C 146.835938 220.570312 146.882812 222.375 146.171875 223.894531 L 143.515625 229.398438 C 142.660156 231.152344 140.90625 232.242188 139.007812 232.242188 Z M 139.007812 226.550781 Z M 127.859375 225.886719 L 138.582031 226.503906 L 140.621094 222.328125 L 129.898438 221.710938 Z M 127.859375 225.886719 " fill-opacity="1" fill-rule="nonzero"/><path fill="#0ad9fd" d="M 166.007812 234.09375 C 165.957031 234.09375 165.863281 234.09375 165.816406 234.09375 L 153.621094 233.621094 C 151.960938 233.574219 150.441406 232.671875 149.542969 231.246094 C 148.640625 229.824219 148.542969 228.066406 149.257812 226.550781 L 151.820312 221 C 152.671875 219.148438 154.523438 218.007812 156.5625 218.058594 L 168.757812 218.53125 C 170.417969 218.578125 171.984375 219.480469 172.839844 220.902344 C 173.691406 222.328125 173.835938 224.082031 173.125 225.601562 L 170.5625 231.152344 C 169.753906 232.957031 167.953125 234.09375 166.007812 234.09375 Z M 166.054688 228.402344 Z M 154.855469 227.972656 L 165.578125 228.402344 L 167.523438 224.175781 L 156.800781 223.75 Z M 154.855469 227.972656 " fill-opacity="1" fill-rule="nonzero"/><path fill="#0ad9fd" d="M 194.425781 235.46875 C 194.378906 235.46875 194.285156 235.46875 194.238281 235.46875 L 182.042969 234.996094 C 180.382812 234.949219 178.863281 234.046875 177.960938 232.625 C 177.0625 231.199219 176.964844 229.445312 177.679688 227.925781 L 180.242188 222.375 C 181.09375 220.523438 182.945312 219.386719 184.984375 219.433594 L 197.179688 219.90625 C 198.839844 219.953125 200.40625 220.855469 201.261719 222.28125 C 202.160156 223.703125 202.257812 225.457031 201.542969 226.976562 L 198.984375 232.527344 C 198.128906 234.332031 196.371094 235.46875 194.425781 235.46875 Z M 183.277344 229.347656 L 194 229.777344 L 195.945312 225.554688 L 185.222656 225.125 Z M 183.277344 229.347656 " fill-opacity="1" fill-rule="nonzero"/><path fill="#0ad9fd" d="M 132.222656 250.84375 C 132.128906 250.84375 132.03125 250.84375 131.9375 250.84375 L 119.742188 250.132812 C 118.082031 250.035156 116.566406 249.136719 115.710938 247.664062 C 114.855469 246.242188 114.808594 244.4375 115.519531 242.917969 L 118.179688 237.414062 C 119.078125 235.566406 120.929688 234.472656 122.96875 234.570312 L 135.164062 235.28125 C 136.824219 235.375 138.34375 236.277344 139.199219 237.746094 C 140.050781 239.171875 140.097656 240.972656 139.386719 242.492188 L 136.730469 247.996094 C 135.921875 249.753906 134.167969 250.84375 132.222656 250.84375 Z M 132.269531 245.148438 Z M 121.121094 244.484375 L 131.84375 245.101562 L 133.882812 240.925781 L 123.160156 240.308594 Z M 121.121094 244.484375 " fill-opacity="1" fill-rule="nonzero"/><path fill="#0ad9fd" d="M 159.269531 252.695312 C 159.222656 252.695312 159.125 252.695312 159.078125 252.695312 L 146.882812 252.21875 C 145.222656 252.171875 143.707031 251.269531 142.804688 249.847656 C 141.902344 248.421875 141.808594 246.667969 142.519531 245.148438 L 145.082031 239.597656 C 145.933594 237.746094 147.785156 236.609375 149.824219 236.65625 L 162.019531 237.132812 C 163.679688 237.179688 165.246094 238.078125 166.101562 239.503906 C 166.953125 240.925781 167.097656 242.683594 166.386719 244.199219 L 163.824219 249.753906 C 163.015625 251.554688 161.214844 252.695312 159.269531 252.695312 Z M 159.269531 247 Z M 148.117188 246.574219 L 158.839844 247 L 160.785156 242.777344 L 150.0625 242.351562 Z M 148.117188 246.574219 " fill-opacity="1" fill-rule="nonzero"/><path fill="#0ad9fd" d="M 187.691406 254.070312 C 187.640625 254.070312 187.546875 254.070312 187.5 254.070312 L 175.304688 253.59375 C 173.644531 253.546875 172.125 252.648438 171.226562 251.222656 C 170.324219 249.800781 170.230469 248.042969 170.941406 246.527344 L 173.503906 240.972656 C 174.355469 239.125 176.207031 237.984375 178.246094 238.03125 L 190.441406 238.507812 C 192.101562 238.554688 193.667969 239.457031 194.523438 240.878906 C 195.425781 242.304688 195.519531 244.058594 194.808594 245.578125 L 192.246094 251.128906 C 191.390625 252.929688 189.636719 254.070312 187.691406 254.070312 Z M 187.691406 248.375 Z M 176.539062 247.949219 L 187.261719 248.375 L 189.207031 244.152344 L 178.484375 243.726562 Z M 176.539062 247.949219 " fill-opacity="1" fill-rule="nonzero"/><path fill="#0ad9fd" d="M 158.414062 265.03125 C 158.320312 265.03125 158.222656 265.03125 158.128906 265.03125 L 137.679688 263.132812 C 136.113281 262.992188 134.976562 261.613281 135.117188 260.046875 C 135.257812 258.484375 136.636719 257.34375 138.203125 257.484375 L 158.652344 259.382812 C 160.21875 259.527344 161.355469 260.902344 161.214844 262.46875 C 161.070312 263.9375 159.835938 265.03125 158.414062 265.03125 Z M 158.414062 265.03125 " fill-opacity="1" fill-rule="nonzero"/></svg>