<svg xmlns="http://www.w3.org/2000/svg" xmlns:xlink="http://www.w3.org/1999/xlink" width="500" zoomAndPan="magnify" viewBox="0 0 375 374.999991" height="500" preserveAspectRatio="xMidYMid meet" version="1.0"><defs><clipPath id="846f7aac1b"><path d="M 35.632812 34 L 339.382812 34 L 339.382812 341 L 35.632812 341 Z M 35.632812 34 " clip-rule="nonzero"/></clipPath></defs><g clip-path="url(#846f7aac1b)"><path fill="#0ad9fd" d="M 322.519531 82.902344 C 290.789062 82.832031 259.0625 82.789062 227.332031 82.78125 L 210.925781 82.78125 C 210.535156 82.75 210.144531 82.765625 209.753906 82.820312 C 209.367188 82.875 208.988281 82.96875 208.621094 83.105469 C 208.25 83.246094 207.902344 83.417969 207.570312 83.632812 C 207.242188 83.84375 206.9375 84.089844 206.660156 84.367188 C 206.382812 84.644531 206.136719 84.949219 205.925781 85.277344 C 205.710938 85.609375 205.539062 85.957031 205.402344 86.328125 C 205.261719 86.695312 205.167969 87.074219 205.113281 87.460938 C 205.058594 87.851562 205.042969 88.242188 205.074219 88.632812 L 205.265625 123.316406 C 190.050781 119.488281 178.957031 122.722656 171.394531 133.1875 C 170.558594 134.339844 169.8125 135.546875 169.15625 136.8125 C 168.503906 138.078125 167.949219 139.382812 167.492188 140.730469 C 167.035156 142.078125 166.683594 143.453125 166.433594 144.855469 C 166.1875 146.257812 166.042969 147.667969 166.007812 149.089844 C 165.972656 150.515625 166.046875 151.929688 166.226562 153.34375 C 166.40625 154.753906 166.6875 156.144531 167.078125 157.515625 C 167.46875 158.882812 167.957031 160.214844 168.550781 161.511719 C 169.140625 162.804688 169.824219 164.046875 170.605469 165.238281 C 177.789062 176.375 188.144531 179.753906 205.097656 176.414062 L 205.097656 206.242188 L 193.183594 206.242188 C 184.636719 206.242188 176.078125 206.242188 167.511719 206.242188 C 165.179688 206.222656 162.175781 206.242188 160.753906 209.402344 C 159.417969 212.371094 161.121094 214.460938 162.625 216.308594 C 163.5 217.328125 164.242188 218.4375 164.851562 219.632812 C 165.464844 220.832031 165.925781 222.082031 166.242188 223.386719 C 166.554688 224.695312 166.714844 226.019531 166.714844 227.363281 C 166.714844 228.707031 166.558594 230.03125 166.246094 231.335938 C 166.0625 232.222656 165.8125 233.09375 165.496094 233.941406 C 165.179688 234.789062 164.796875 235.609375 164.351562 236.398438 C 163.910156 237.1875 163.40625 237.9375 162.847656 238.652344 C 162.285156 239.363281 161.675781 240.027344 161.011719 240.644531 C 160.347656 241.265625 159.640625 241.828125 158.894531 242.335938 C 158.144531 242.84375 157.359375 243.292969 156.539062 243.679688 C 155.71875 244.070312 154.875 244.390625 154.007812 244.648438 C 153.140625 244.90625 152.253906 245.09375 151.359375 245.214844 C 150.488281 245.328125 149.613281 245.378906 148.734375 245.363281 C 147.855469 245.347656 146.984375 245.269531 146.117188 245.128906 C 145.25 244.988281 144.398438 244.78125 143.558594 244.515625 C 142.722656 244.246094 141.910156 243.921875 141.121094 243.535156 C 140.332031 243.148438 139.574219 242.707031 138.851562 242.210938 C 138.125 241.714844 137.441406 241.167969 136.796875 240.570312 C 136.152344 239.972656 135.554688 239.332031 135.003906 238.648438 C 134.453125 237.964844 133.953125 237.246094 133.507812 236.488281 C 133.050781 235.707031 132.652344 234.894531 132.316406 234.054688 C 131.984375 233.210938 131.71875 232.351562 131.515625 231.46875 C 131.316406 230.582031 131.1875 229.691406 131.125 228.785156 C 131.0625 227.882812 131.070312 226.980469 131.148438 226.078125 C 131.226562 225.175781 131.375 224.285156 131.59375 223.40625 C 131.808594 222.527344 132.09375 221.667969 132.441406 220.835938 C 132.792969 220 133.203125 219.195312 133.679688 218.425781 C 134.152344 217.652344 134.683594 216.921875 135.269531 216.234375 C 135.796875 215.84375 136.246094 215.375 136.609375 214.828125 C 136.972656 214.285156 137.234375 213.691406 137.394531 213.054688 C 137.550781 212.417969 137.597656 211.773438 137.53125 211.121094 C 137.464844 210.46875 137.289062 209.84375 137.007812 209.253906 C 136.722656 208.660156 136.347656 208.132812 135.882812 207.671875 C 135.417969 207.210938 134.886719 206.84375 134.289062 206.566406 C 133.695312 206.289062 133.070312 206.121094 132.417969 206.0625 C 131.761719 206.003906 131.117188 206.054688 130.484375 206.222656 C 123.535156 206.222656 116.589844 206.222656 109.636719 206.222656 C 102.6875 206.222656 95.738281 206.222656 88.792969 206.222656 C 83.808594 206.222656 81.953125 208.054688 81.949219 212.9375 L 81.949219 221.761719 C 81.949219 255.601562 81.949219 289.4375 81.949219 323.269531 C 81.921875 323.824219 81.925781 324.378906 81.953125 324.933594 C 81.984375 325.492188 82.042969 326.042969 82.128906 326.59375 C 82.21875 327.140625 82.332031 327.6875 82.476562 328.222656 C 82.621094 328.761719 82.792969 329.289062 82.992188 329.808594 C 83.191406 330.328125 83.417969 330.835938 83.667969 331.332031 C 83.917969 331.828125 84.195312 332.308594 84.5 332.777344 C 84.800781 333.246094 85.125 333.695312 85.472656 334.128906 C 85.820312 334.5625 86.191406 334.976562 86.582031 335.371094 C 86.976562 335.769531 87.386719 336.140625 87.816406 336.492188 C 88.246094 336.847656 88.695312 337.175781 89.160156 337.480469 C 89.625 337.789062 90.105469 338.070312 90.597656 338.324219 C 91.089844 338.582031 91.597656 338.808594 92.117188 339.015625 C 92.632812 339.21875 93.160156 339.394531 93.695312 339.542969 C 94.230469 339.691406 94.773438 339.8125 95.324219 339.902344 C 95.871094 339.996094 96.425781 340.058594 96.980469 340.09375 C 97.535156 340.128906 98.089844 340.136719 98.644531 340.113281 C 135.945312 340.128906 173.246094 340.128906 210.550781 340.113281 C 247.855469 340.097656 285.15625 340.097656 322.460938 340.113281 C 323.015625 340.148438 323.574219 340.152344 324.128906 340.125 C 324.6875 340.097656 325.242188 340.042969 325.792969 339.960938 C 326.34375 339.875 326.886719 339.761719 327.425781 339.621094 C 327.964844 339.480469 328.496094 339.3125 329.019531 339.113281 C 329.539062 338.914062 330.046875 338.691406 330.546875 338.441406 C 331.042969 338.1875 331.527344 337.910156 331.996094 337.609375 C 332.464844 337.308594 332.914062 336.980469 333.347656 336.632812 C 333.785156 336.28125 334.199219 335.910156 334.59375 335.515625 C 334.988281 335.125 335.359375 334.710938 335.710938 334.277344 C 336.0625 333.84375 336.390625 333.394531 336.695312 332.925781 C 337 332.457031 337.277344 331.976562 337.53125 331.480469 C 337.78125 330.984375 338.007812 330.472656 338.207031 329.953125 C 338.40625 329.433594 338.578125 328.902344 338.722656 328.363281 C 338.863281 327.824219 338.980469 327.28125 339.066406 326.730469 C 339.152344 326.179688 339.207031 325.625 339.234375 325.070312 C 339.261719 324.511719 339.261719 323.957031 339.230469 323.398438 C 339.261719 248.796875 339.261719 174.191406 339.230469 99.582031 C 339.257812 99.027344 339.261719 98.472656 339.230469 97.917969 C 339.203125 97.363281 339.144531 96.8125 339.058594 96.261719 C 338.972656 95.714844 338.855469 95.171875 338.714844 94.636719 C 338.570312 94.097656 338.398438 93.570312 338.199219 93.054688 C 338 92.535156 337.773438 92.027344 337.523438 91.53125 C 337.269531 91.039062 336.992188 90.558594 336.691406 90.09375 C 336.386719 89.628906 336.0625 89.179688 335.710938 88.746094 C 335.363281 88.316406 334.988281 87.902344 334.597656 87.511719 C 334.203125 87.121094 333.792969 86.75 333.359375 86.398438 C 332.925781 86.050781 332.476562 85.726562 332.011719 85.421875 C 331.546875 85.121094 331.066406 84.84375 330.570312 84.59375 C 330.074219 84.34375 329.566406 84.117188 329.050781 83.921875 C 328.53125 83.722656 328.003906 83.550781 327.464844 83.410156 C 326.929688 83.265625 326.386719 83.152344 325.835938 83.066406 C 325.289062 82.980469 324.738281 82.925781 324.183594 82.898438 C 323.628906 82.871094 323.074219 82.871094 322.519531 82.902344 Z M 208.140625 284.933594 C 207.597656 285.261719 207.113281 285.664062 206.6875 286.136719 C 206.265625 286.613281 205.921875 287.140625 205.660156 287.71875 C 205.398438 288.296875 205.226562 288.902344 205.144531 289.53125 C 205.066406 290.164062 205.082031 290.792969 205.195312 291.417969 C 205.269531 301.574219 205.257812 311.730469 205.246094 321.886719 L 205.246094 328.710938 C 205.230469 328.980469 205.1875 329.242188 205.121094 329.5 L 100.59375 329.5 C 94.144531 329.5 92.660156 328.019531 92.660156 321.601562 L 92.660156 217.050781 L 122.339844 217.050781 C 118.835938 232.765625 122.128906 243.511719 132.65625 250.828125 C 133.820312 251.644531 135.039062 252.367188 136.3125 253 C 137.589844 253.628906 138.902344 254.164062 140.257812 254.59375 C 141.609375 255.027344 142.988281 255.359375 144.394531 255.585938 C 145.796875 255.808594 147.210938 255.929688 148.632812 255.941406 C 150.054688 255.953125 151.46875 255.859375 152.875 255.660156 C 154.28125 255.460938 155.667969 255.15625 157.027344 254.746094 C 158.390625 254.335938 159.714844 253.828125 161 253.21875 C 162.285156 252.613281 163.515625 251.910156 164.695312 251.117188 C 175.488281 243.917969 178.835938 233.367188 175.460938 217.011719 L 205.042969 217.011719 C 205.121094 217.515625 205.167969 218.023438 205.179688 218.53125 L 205.128906 228.570312 C 205.070312 237.515625 205.007812 246.761719 205.128906 255.855469 C 205.210938 256.921875 205.511719 257.921875 206.023438 258.859375 C 206.539062 259.792969 207.222656 260.582031 208.078125 261.222656 C 210.996094 263.199219 213.921875 260.6875 214.882812 259.859375 C 215.363281 259.4375 215.863281 259.042969 216.382812 258.675781 C 216.902344 258.304688 217.441406 257.964844 218 257.65625 C 218.558594 257.347656 219.128906 257.066406 219.71875 256.816406 C 220.304688 256.570312 220.90625 256.355469 221.515625 256.171875 C 222.128906 255.988281 222.746094 255.835938 223.375 255.71875 C 224.003906 255.601562 224.632812 255.519531 225.269531 255.472656 C 225.90625 255.425781 226.542969 255.410156 227.183594 255.429688 C 227.820312 255.449219 228.453125 255.507812 229.085938 255.59375 C 229.71875 255.683594 230.34375 255.808594 230.960938 255.964844 C 231.582031 256.121094 232.191406 256.308594 232.789062 256.53125 C 233.386719 256.753906 233.96875 257.007812 234.539062 257.292969 C 235.113281 257.582031 235.664062 257.894531 236.203125 258.242188 C 236.738281 258.585938 237.253906 258.960938 237.75 259.359375 C 238.246094 259.761719 238.71875 260.1875 239.171875 260.640625 C 239.621094 261.09375 240.046875 261.570312 240.445312 262.066406 C 240.84375 262.566406 241.214844 263.085938 241.554688 263.621094 C 241.898438 264.160156 242.210938 264.714844 242.492188 265.289062 C 242.777344 265.859375 243.027344 266.445312 243.246094 267.046875 C 243.464844 267.644531 243.652344 268.253906 243.808594 268.875 C 243.960938 269.492188 244.078125 270.117188 244.164062 270.75 C 244.25 271.382812 244.304688 272.019531 244.320312 272.65625 C 244.335938 273.292969 244.320312 273.933594 244.269531 274.566406 C 244.21875 275.203125 244.132812 275.835938 244.011719 276.460938 C 243.890625 277.089844 243.738281 277.707031 243.550781 278.316406 C 243.367188 278.929688 243.144531 279.527344 242.894531 280.113281 C 242.644531 280.699219 242.363281 281.269531 242.046875 281.828125 C 241.734375 282.382812 241.394531 282.921875 241.023438 283.441406 C 240.652344 283.957031 240.253906 284.457031 239.828125 284.933594 C 239.402344 285.410156 238.953125 285.859375 238.480469 286.289062 C 238.003906 286.714844 237.511719 287.117188 236.992188 287.488281 C 236.476562 287.863281 235.941406 288.207031 235.386719 288.523438 C 234.832031 288.839844 234.261719 289.125 233.675781 289.378906 C 232.925781 289.738281 232.152344 290.039062 231.355469 290.285156 C 230.558594 290.527344 229.75 290.707031 228.925781 290.832031 C 228.101562 290.953125 227.273438 291.011719 226.441406 291.011719 C 225.609375 291.007812 224.78125 290.945312 223.957031 290.820312 C 223.136719 290.695312 222.324219 290.507812 221.53125 290.261719 C 220.734375 290.015625 219.964844 289.710938 219.214844 289.347656 C 218.464844 288.984375 217.746094 288.570312 217.058594 288.097656 C 216.371094 287.628906 215.722656 287.113281 215.113281 286.542969 C 214.707031 286.039062 214.226562 285.613281 213.679688 285.269531 C 213.128906 284.925781 212.539062 284.679688 211.90625 284.535156 C 211.273438 284.386719 210.636719 284.347656 209.988281 284.417969 C 209.34375 284.484375 208.730469 284.65625 208.140625 284.933594 Z M 320.9375 329.515625 L 216.082031 329.515625 L 216.082031 299.722656 C 231.589844 304.296875 243.457031 299.984375 251.382812 286.898438 C 252.097656 285.695312 252.71875 284.445312 253.242188 283.144531 C 253.765625 281.84375 254.1875 280.511719 254.503906 279.144531 C 254.820312 277.78125 255.027344 276.398438 255.132812 275 C 255.234375 273.605469 255.226562 272.207031 255.113281 270.808594 C 255 269.414062 254.78125 268.03125 254.453125 266.671875 C 254.125 265.308594 253.691406 263.976562 253.160156 262.683594 C 252.625 261.386719 251.996094 260.140625 251.269531 258.941406 C 250.539062 257.742188 249.726562 256.609375 248.824219 255.535156 C 240.355469 245.355469 229.316406 242.359375 215.996094 246.617188 L 215.996094 216.871094 C 216.316406 216.8125 216.640625 216.78125 216.964844 216.773438 L 223.183594 216.773438 C 233.535156 216.773438 243.890625 216.773438 254.246094 216.828125 L 254.402344 216.828125 C 255.003906 216.925781 255.601562 216.929688 256.203125 216.835938 C 256.804688 216.742188 257.375 216.554688 257.914062 216.277344 C 258.457031 216 258.941406 215.648438 259.367188 215.214844 C 259.796875 214.785156 260.148438 214.296875 260.417969 213.753906 C 260.644531 213.179688 260.78125 212.585938 260.824219 211.972656 C 260.867188 211.355469 260.820312 210.75 260.679688 210.148438 C 260.539062 209.550781 260.3125 208.984375 259.996094 208.453125 C 259.683594 207.921875 259.296875 207.453125 258.839844 207.039062 C 258.382812 206.511719 257.957031 205.960938 257.566406 205.382812 C 257.175781 204.804688 256.820312 204.207031 256.496094 203.589844 C 256.175781 202.972656 255.894531 202.335938 255.648438 201.683594 C 255.402344 201.03125 255.195312 200.367188 255.027344 199.6875 C 254.859375 199.011719 254.730469 198.328125 254.644531 197.636719 C 254.558594 196.945312 254.511719 196.25 254.507812 195.550781 C 254.503906 194.855469 254.539062 194.160156 254.617188 193.46875 C 254.695312 192.773438 254.8125 192.089844 254.96875 191.410156 C 255.128906 190.730469 255.324219 190.0625 255.5625 189.40625 C 255.800781 188.75 256.074219 188.113281 256.386719 187.488281 C 256.699219 186.867188 257.046875 186.261719 257.429688 185.679688 C 257.816406 185.097656 258.230469 184.542969 258.679688 184.007812 C 259.132812 183.476562 259.609375 182.96875 260.121094 182.496094 C 260.628906 182.019531 261.164062 181.574219 261.726562 181.160156 C 262.285156 180.746094 262.871094 180.367188 263.476562 180.023438 C 264.082031 179.679688 264.707031 179.371094 265.351562 179.101562 C 265.992188 178.832031 266.648438 178.597656 267.320312 178.40625 C 267.988281 178.214844 268.667969 178.058594 269.355469 177.945312 C 270.042969 177.835938 270.738281 177.761719 271.433594 177.730469 C 272.128906 177.699219 272.824219 177.710938 273.519531 177.761719 C 274.214844 177.8125 274.90625 177.902344 275.589844 178.035156 C 276.277344 178.167969 276.949219 178.339844 277.613281 178.550781 C 278.277344 178.765625 278.925781 179.015625 279.5625 179.304688 C 280.195312 179.59375 280.8125 179.917969 281.410156 180.277344 C 282.003906 180.640625 282.578125 181.035156 283.128906 181.464844 C 283.675781 181.894531 284.199219 182.351562 284.695312 182.84375 C 285.191406 183.335938 285.65625 183.851562 286.089844 184.398438 C 286.523438 184.945312 286.921875 185.511719 287.289062 186.105469 C 287.65625 186.699219 287.988281 187.3125 288.28125 187.941406 C 288.578125 188.574219 288.835938 189.222656 289.050781 189.882812 C 289.269531 190.546875 289.449219 191.21875 289.589844 191.902344 C 289.726562 192.585938 289.824219 193.273438 289.882812 193.96875 C 289.984375 195.152344 289.960938 196.332031 289.820312 197.511719 C 289.679688 198.691406 289.417969 199.84375 289.039062 200.96875 C 288.664062 202.09375 288.175781 203.171875 287.574219 204.195312 C 286.976562 205.222656 286.28125 206.175781 285.488281 207.058594 C 284.996094 207.445312 284.582031 207.898438 284.246094 208.425781 C 283.910156 208.949219 283.667969 209.515625 283.523438 210.121094 C 283.375 210.730469 283.335938 211.34375 283.394531 211.964844 C 283.457031 212.585938 283.617188 213.179688 283.878906 213.746094 C 284.1875 214.304688 284.570312 214.800781 285.035156 215.238281 C 285.496094 215.679688 286.015625 216.035156 286.589844 216.308594 C 287.164062 216.585938 287.765625 216.765625 288.398438 216.855469 C 289.027344 216.941406 289.660156 216.929688 290.285156 216.816406 C 299.917969 216.734375 309.542969 216.746094 319.332031 216.757812 L 328.566406 216.757812 L 328.566406 216.992188 C 328.621094 217.75 328.671875 218.46875 328.671875 219.1875 C 328.671875 253.34375 328.671875 287.5 328.671875 321.652344 C 328.695312 327.828125 327.035156 329.511719 320.9375 329.515625 Z M 328.695312 205.941406 L 298.828125 205.941406 C 303.382812 190.558594 299.164062 178.734375 286.28125 170.789062 C 285.074219 170.050781 283.816406 169.410156 282.507812 168.871094 C 281.199219 168.328125 279.859375 167.890625 278.484375 167.558594 C 277.109375 167.226562 275.714844 167.003906 274.304688 166.890625 C 272.894531 166.773438 271.484375 166.769531 270.070312 166.875 C 268.660156 166.980469 267.265625 167.195312 265.886719 167.519531 C 264.507812 167.84375 263.164062 168.269531 261.855469 168.804688 C 260.542969 169.335938 259.28125 169.96875 258.070312 170.699219 C 256.855469 171.429688 255.707031 172.25 254.625 173.160156 C 244.394531 181.652344 241.394531 192.6875 245.695312 205.984375 L 215.804688 205.984375 L 215.804688 195.601562 C 215.804688 186.5 215.804688 177.402344 215.804688 168.300781 C 215.96875 167.671875 216.023438 167.03125 215.96875 166.378906 C 215.914062 165.730469 215.75 165.109375 215.476562 164.515625 C 215.207031 163.921875 214.84375 163.390625 214.386719 162.925781 C 213.933594 162.457031 213.414062 162.082031 212.828125 161.792969 C 212.242188 161.507812 211.625 161.328125 210.976562 161.253906 C 210.328125 161.183594 209.6875 161.21875 209.050781 161.371094 C 208.417969 161.519531 207.824219 161.769531 207.277344 162.125 C 206.730469 162.480469 206.257812 162.917969 205.863281 163.433594 C 205.433594 163.800781 204.988281 164.140625 204.523438 164.464844 C 204.0625 164.785156 203.585938 165.082031 203.09375 165.359375 C 202.605469 165.632812 202.101562 165.882812 201.585938 166.109375 C 201.070312 166.339844 200.546875 166.539062 200.011719 166.714844 C 199.476562 166.890625 198.933594 167.042969 198.386719 167.167969 C 197.835938 167.289062 197.28125 167.386719 196.722656 167.457031 C 196.164062 167.53125 195.605469 167.574219 195.042969 167.589844 C 194.480469 167.605469 193.917969 167.597656 193.355469 167.558594 C 192.792969 167.519531 192.234375 167.457031 191.679688 167.367188 C 191.125 167.273438 190.574219 167.15625 190.03125 167.011719 C 189.484375 166.867188 188.949219 166.699219 188.421875 166.503906 C 187.894531 166.304688 187.375 166.085938 186.871094 165.839844 C 186.363281 165.59375 185.871094 165.324219 185.390625 165.03125 C 184.910156 164.738281 184.441406 164.421875 183.992188 164.085938 C 183.542969 163.746094 183.109375 163.386719 182.695312 163.007812 C 182.277344 162.628906 181.882812 162.230469 181.503906 161.8125 C 180.746094 160.976562 180.070312 160.078125 179.480469 159.117188 C 178.890625 158.15625 178.398438 157.148438 178 156.089844 C 177.601562 155.035156 177.304688 153.953125 177.113281 152.839844 C 176.921875 151.730469 176.835938 150.609375 176.855469 149.480469 C 176.875 148.351562 177 147.238281 177.234375 146.132812 C 177.464844 145.027344 177.796875 143.957031 178.234375 142.914062 C 178.667969 141.875 179.199219 140.882812 179.820312 139.945312 C 180.445312 139.003906 181.152344 138.128906 181.941406 137.324219 C 182.332031 136.917969 182.742188 136.535156 183.167969 136.171875 C 183.597656 135.804688 184.042969 135.464844 184.503906 135.140625 C 184.96875 134.820312 185.441406 134.523438 185.933594 134.246094 C 186.425781 133.96875 186.925781 133.71875 187.441406 133.492188 C 187.957031 133.265625 188.480469 133.0625 189.015625 132.886719 C 189.550781 132.710938 190.089844 132.558594 190.640625 132.4375 C 191.1875 132.3125 191.742188 132.214844 192.300781 132.144531 C 192.859375 132.074219 193.417969 132.027344 193.980469 132.011719 C 194.542969 131.996094 195.105469 132.007812 195.667969 132.042969 C 196.230469 132.082031 196.785156 132.144531 197.34375 132.238281 C 197.898438 132.328125 198.445312 132.445312 198.992188 132.589844 C 199.535156 132.734375 200.070312 132.90625 200.597656 133.101562 C 201.125 133.296875 201.640625 133.519531 202.148438 133.765625 C 202.652344 134.011719 203.144531 134.28125 203.625 134.574219 C 204.105469 134.867188 204.570312 135.183594 205.019531 135.523438 C 205.46875 135.863281 205.902344 136.222656 206.316406 136.601562 C 206.734375 137.070312 207.21875 137.457031 207.769531 137.761719 C 208.316406 138.066406 208.902344 138.273438 209.519531 138.378906 C 210.136719 138.488281 210.757812 138.488281 211.375 138.386719 C 211.996094 138.285156 212.582031 138.085938 213.132812 137.785156 C 213.648438 137.460938 214.101562 137.070312 214.5 136.613281 C 214.902344 136.15625 215.226562 135.652344 215.480469 135.101562 C 215.730469 134.550781 215.898438 133.972656 215.984375 133.375 C 216.070312 132.773438 216.066406 132.171875 215.976562 131.574219 C 215.871094 122.035156 215.882812 112.695312 215.898438 102.808594 L 215.898438 93.65625 L 216.128906 93.65625 C 216.886719 93.597656 217.605469 93.542969 218.324219 93.542969 C 252.589844 93.542969 286.855469 93.542969 321.121094 93.542969 C 327.078125 93.542969 328.707031 95.199219 328.710938 101.25 C 328.710938 126.875 328.710938 152.496094 328.710938 178.117188 Z M 105.089844 158.332031 L 111.304688 160.8125 C 116.992188 163.082031 122.554688 165.304688 128.121094 167.496094 C 132.152344 169.074219 134.730469 168.074219 136.238281 164.335938 C 140.410156 154.027344 144.71875 143.367188 148.757812 132.597656 C 149.070312 131.558594 149.132812 130.507812 148.949219 129.4375 C 148.761719 128.371094 148.351562 127.402344 147.707031 126.53125 C 146.5625 125.226562 144.152344 125.253906 142.152344 125.277344 C 141.101562 125.3125 140.066406 125.429688 139.035156 125.628906 C 138.253906 125.746094 137.46875 125.785156 136.679688 125.753906 C 135.890625 125.722656 135.113281 125.617188 134.34375 125.4375 C 133.574219 125.257812 132.832031 125.007812 132.109375 124.6875 C 131.386719 124.371094 130.703125 123.984375 130.050781 123.539062 C 129.402344 123.089844 128.800781 122.585938 128.246094 122.023438 C 127.691406 121.460938 127.195312 120.851562 126.753906 120.199219 C 126.3125 119.542969 125.9375 118.851562 125.628906 118.125 C 125.320312 117.398438 125.078125 116.652344 124.910156 115.878906 C 124.742188 115.109375 124.644531 114.328125 124.621094 113.539062 C 124.601562 112.75 124.652344 111.96875 124.777344 111.1875 C 124.902344 110.410156 125.097656 109.648438 125.367188 108.90625 C 125.636719 108.164062 125.972656 107.453125 126.375 106.773438 C 126.777344 106.09375 127.238281 105.460938 127.757812 104.867188 C 128.28125 104.273438 128.855469 103.738281 129.476562 103.253906 C 130.101562 102.769531 130.761719 102.347656 131.464844 101.988281 C 132.167969 101.625 132.898438 101.335938 133.65625 101.113281 C 134.351562 100.894531 135.0625 100.738281 135.785156 100.644531 C 136.507812 100.550781 137.234375 100.519531 137.960938 100.550781 C 138.691406 100.582031 139.414062 100.675781 140.125 100.835938 C 140.835938 100.992188 141.53125 101.210938 142.203125 101.488281 C 142.878906 101.765625 143.523438 102.101562 144.140625 102.492188 C 144.757812 102.882812 145.335938 103.320312 145.875 103.8125 C 146.414062 104.304688 146.90625 104.835938 147.351562 105.414062 C 147.800781 105.992188 148.195312 106.601562 148.535156 107.246094 C 149.324219 108.628906 151.222656 111.863281 154.457031 110.859375 C 155.484375 110.472656 156.398438 109.90625 157.199219 109.152344 C 158 108.402344 158.625 107.527344 159.074219 106.527344 C 162.550781 98.269531 165.898438 89.800781 169.136719 81.609375 L 171.222656 76.324219 C 173.039062 71.75 172.015625 69.363281 167.386719 67.511719 C 162.757812 65.65625 158.242188 63.871094 153.667969 62.058594 L 128.734375 52.175781 C 115.0625 46.738281 101.382812 41.316406 87.703125 35.90625 C 87.273438 35.695312 86.832031 35.507812 86.382812 35.347656 C 85.933594 35.183594 85.476562 35.042969 85.011719 34.929688 C 84.546875 34.8125 84.078125 34.722656 83.605469 34.65625 C 83.132812 34.589844 82.65625 34.546875 82.179688 34.53125 C 81.699219 34.515625 81.222656 34.523438 80.746094 34.558594 C 80.269531 34.59375 79.796875 34.652344 79.324219 34.734375 C 78.851562 34.820312 78.386719 34.925781 77.929688 35.058594 C 77.46875 35.191406 77.019531 35.347656 76.574219 35.527344 C 76.132812 35.707031 75.699219 35.910156 75.277344 36.136719 C 74.855469 36.359375 74.445312 36.609375 74.050781 36.875 C 73.65625 37.144531 73.273438 37.433594 72.910156 37.742188 C 72.542969 38.050781 72.195312 38.375 71.863281 38.71875 C 71.53125 39.066406 71.21875 39.425781 70.925781 39.804688 C 70.632812 40.183594 70.359375 40.574219 70.109375 40.980469 C 69.855469 41.386719 69.625 41.804688 69.417969 42.234375 C 69.210938 42.664062 69.023438 43.105469 68.863281 43.554688 C 58.085938 70.46875 47.375 97.40625 36.726562 124.375 C 36.503906 124.746094 36.324219 125.140625 36.195312 125.558594 C 36.066406 125.976562 35.984375 126.402344 35.957031 126.835938 C 35.929688 127.269531 35.953125 127.703125 36.027344 128.132812 C 36.101562 128.5625 36.226562 128.976562 36.398438 129.378906 C 36.574219 129.777344 36.792969 130.152344 37.054688 130.5 C 37.316406 130.847656 37.617188 131.160156 37.957031 131.4375 C 38.292969 131.710938 38.660156 131.945312 39.050781 132.132812 C 39.445312 132.320312 39.855469 132.460938 40.28125 132.554688 C 44.835938 134.40625 49.398438 136.222656 53.964844 138.042969 L 61.777344 141.167969 C 62.308594 141.378906 62.832031 141.625 63.375 141.878906 C 62.59375 142.816406 61.890625 143.808594 61.265625 144.855469 C 60.640625 145.90625 60.101562 147 59.652344 148.132812 C 59.203125 149.269531 58.847656 150.433594 58.585938 151.625 C 58.320312 152.816406 58.152344 154.023438 58.082031 155.242188 C 58.011719 156.460938 58.039062 157.679688 58.164062 158.894531 C 58.285156 160.109375 58.507812 161.304688 58.820312 162.484375 C 59.136719 163.664062 59.542969 164.8125 60.042969 165.925781 C 60.542969 167.042969 61.125 168.109375 61.796875 169.128906 C 62.742188 170.8125 63.890625 172.339844 65.246094 173.714844 C 66.597656 175.089844 68.109375 176.261719 69.773438 177.234375 C 71.441406 178.207031 73.203125 178.941406 75.066406 179.445312 C 76.929688 179.945312 78.824219 180.195312 80.753906 180.1875 C 81.964844 180.1875 83.171875 180.101562 84.371094 179.929688 C 96.121094 178.234375 103.082031 170.980469 105.089844 158.332031 Z M 69.464844 160.835938 C 69.242188 160.179688 69.074219 159.511719 68.960938 158.832031 C 68.847656 158.148438 68.792969 157.460938 68.789062 156.769531 C 68.789062 156.078125 68.84375 155.390625 68.953125 154.707031 C 69.066406 154.027344 69.230469 153.355469 69.453125 152.699219 C 69.671875 152.046875 69.941406 151.410156 70.265625 150.800781 C 70.589844 150.1875 70.960938 149.609375 71.378906 149.058594 C 71.796875 148.507812 72.257812 147.992188 72.757812 147.519531 C 73.261719 147.042969 73.800781 146.609375 74.371094 146.222656 C 74.722656 145.984375 75.09375 145.761719 75.464844 145.539062 C 77.375 144.390625 79.75 142.964844 79.300781 139.582031 C 78.851562 136.203125 76.160156 135.238281 73.996094 134.449219 C 73.664062 134.324219 73.332031 134.207031 73.007812 134.078125 L 48.273438 124.277344 L 48.421875 123.882812 C 48.730469 123.03125 49.023438 122.214844 49.34375 121.414062 L 51.007812 117.191406 C 60.082031 94.367188 69.167969 71.542969 78.261719 48.726562 C 79.660156 45.214844 80.882812 44.648438 84.246094 45.980469 C 105.609375 54.445312 126.964844 62.921875 148.316406 71.414062 L 158.980469 75.652344 C 159.257812 75.761719 159.527344 75.894531 159.878906 76.070312 L 152.316406 95.140625 C 142.089844 88 132.199219 87.929688 122.910156 94.929688 C 122.023438 95.558594 121.191406 96.25 120.410156 97 C 119.632812 97.753906 118.910156 98.5625 118.25 99.421875 C 117.589844 100.28125 117 101.1875 116.472656 102.136719 C 115.949219 103.085938 115.496094 104.070312 115.121094 105.085938 C 114.742188 106.101562 114.441406 107.140625 114.21875 108.203125 C 113.996094 109.265625 113.851562 110.335938 113.789062 111.417969 C 113.726562 112.503906 113.746094 113.582031 113.84375 114.664062 C 113.945312 115.742188 114.121094 116.8125 114.382812 117.863281 C 116.660156 128.695312 123.832031 135.078125 135.710938 136.855469 L 128.117188 155.996094 L 103.335938 146.175781 C 103.140625 146.09375 102.949219 146 102.765625 145.894531 C 102.195312 145.558594 101.582031 145.367188 100.925781 145.3125 C 100.53125 145.3125 100.09375 145.3125 99.664062 145.3125 C 97.976562 145.050781 96.394531 145.355469 94.925781 146.230469 C 93.601562 147.324219 93.574219 149.738281 93.550781 151.675781 L 93.550781 152.027344 C 93.558594 153.113281 93.644531 154.191406 93.808594 155.261719 C 94.042969 156.589844 94.09375 157.921875 93.957031 159.261719 C 93.839844 159.941406 93.667969 160.605469 93.4375 161.257812 C 93.210938 161.90625 92.929688 162.535156 92.597656 163.136719 C 92.261719 163.742188 91.878906 164.3125 91.449219 164.855469 C 91.019531 165.394531 90.550781 165.894531 90.035156 166.355469 C 89.523438 166.816406 88.972656 167.230469 88.390625 167.597656 C 87.808594 167.96875 87.199219 168.285156 86.5625 168.550781 C 85.925781 168.816406 85.273438 169.03125 84.601562 169.1875 C 83.929688 169.34375 83.246094 169.441406 82.558594 169.484375 C 81.855469 169.542969 81.152344 169.539062 80.449219 169.480469 C 79.746094 169.417969 79.050781 169.300781 78.367188 169.125 C 77.683594 168.949219 77.019531 168.71875 76.375 168.429688 C 75.726562 168.144531 75.109375 167.804688 74.523438 167.417969 C 73.933594 167.027344 73.378906 166.59375 72.863281 166.113281 C 72.347656 165.628906 71.871094 165.109375 71.441406 164.550781 C 71.011719 163.992188 70.632812 163.398438 70.300781 162.773438 C 69.96875 162.152344 69.691406 161.503906 69.464844 160.835938 Z M 69.464844 160.835938 " fill-opacity="1" fill-rule="nonzero"/></g></svg>