<svg xmlns="http://www.w3.org/2000/svg" xmlns:xlink="http://www.w3.org/1999/xlink" width="800" zoomAndPan="magnify" viewBox="0 0 375 374.999991" height="800" preserveAspectRatio="xMidYMid meet" version="1.0"><defs><clipPath id="d939bba5b8"><path d="M 37.5 56 L 337.5 56 L 337.5 330.9375 L 37.5 330.9375 Z M 37.5 56 " clip-rule="nonzero"/></clipPath><clipPath id="11b0f5fcf5"><path d="M 198 44.4375 L 213 44.4375 L 213 89 L 198 89 Z M 198 44.4375 " clip-rule="nonzero"/></clipPath></defs><path fill="#0ad9fd" d="M 203.054688 188.101562 L 200.832031 188.101562 L 200.832031 183.050781 C 200.832031 176.914062 195.835938 171.921875 189.699219 171.921875 C 183.558594 171.921875 178.566406 176.914062 178.566406 183.050781 L 178.566406 188.101562 L 176.007812 188.101562 C 175.753906 188.101562 175.496094 188.125 175.25 188.183594 C 173.597656 188.535156 172.402344 190.019531 172.402344 191.710938 L 172.402344 206.160156 C 172.402344 209.054688 173.132812 211.515625 174.566406 213.480469 C 175.625 214.933594 177.085938 216.117188 178.894531 217.003906 C 181.625 218.339844 185.207031 219.019531 189.535156 219.019531 C 194.578125 219.019531 198.585938 218.105469 201.449219 216.296875 C 204.910156 214.113281 206.667969 210.703125 206.667969 206.160156 L 206.667969 191.710938 C 206.664062 189.71875 205.046875 188.101562 203.054688 188.101562 Z M 182.261719 183.050781 C 182.261719 178.953125 185.597656 175.613281 189.699219 175.613281 C 193.800781 175.613281 197.136719 178.953125 197.136719 183.050781 L 197.136719 188.101562 L 182.265625 188.101562 L 182.265625 183.050781 Z M 204.367188 206.15625 C 204.367188 213.164062 199.375 216.71875 189.53125 216.71875 C 185.554688 216.71875 182.316406 216.121094 179.898438 214.9375 C 178.429688 214.214844 177.257812 213.269531 176.417969 212.121094 C 175.273438 210.558594 174.695312 208.550781 174.695312 206.15625 L 174.695312 191.707031 C 174.695312 191.09375 175.132812 190.554688 175.730469 190.425781 C 175.820312 190.402344 175.914062 190.394531 176.007812 190.394531 L 203.058594 190.394531 C 203.785156 190.394531 204.371094 190.980469 204.371094 191.707031 L 204.371094 206.15625 Z M 204.367188 206.15625 " fill-opacity="1" fill-rule="nonzero"/><path fill="#0ad9fd" d="M 190.871094 202.917969 C 190.914062 202.839844 190.953125 202.757812 190.972656 202.675781 L 192.167969 198.074219 C 192.28125 197.648438 192.007812 197.300781 191.570312 197.300781 L 187.824219 197.300781 C 187.386719 197.300781 187.113281 197.648438 187.226562 198.074219 L 188.421875 202.675781 C 188.441406 202.761719 188.480469 202.84375 188.523438 202.917969 C 187.730469 203.339844 187.183594 204.171875 187.183594 205.136719 C 187.183594 206.523438 188.308594 207.648438 189.695312 207.648438 C 191.082031 207.648438 192.207031 206.523438 192.207031 205.136719 C 192.210938 204.171875 191.664062 203.339844 190.871094 202.917969 Z M 190.871094 202.917969 " fill-opacity="1" fill-rule="nonzero"/><path fill="#0ad9fd" d="M 231.46875 164.394531 L 230.367188 164.660156 C 226.648438 165.542969 222.886719 165.988281 219.191406 165.988281 C 211.300781 165.988281 199.933594 163.84375 190.625 153.621094 L 189.851562 152.769531 L 189.105469 153.644531 C 182.339844 161.585938 172.523438 165.785156 160.710938 165.785156 C 156.980469 165.785156 152.988281 165.351562 149.164062 164.53125 L 148.058594 164.292969 L 147.945312 165.421875 C 147.328125 171.414062 146.699219 183.359375 149.335938 196.035156 C 151.542969 206.644531 155.574219 215.726562 161.316406 223.046875 C 168.214844 231.835938 177.6875 238.140625 189.46875 241.785156 L 189.757812 241.875 L 190.042969 241.792969 C 202.195312 238.363281 211.894531 232.195312 218.867188 223.464844 C 224.664062 216.207031 228.660156 207.125 230.746094 196.46875 C 233.246094 183.699219 232.355469 171.597656 231.605469 165.523438 Z M 228.757812 196.082031 C 226.738281 206.414062 222.875 215.203125 217.285156 222.203125 C 210.632812 230.53125 201.378906 236.433594 189.78125 239.765625 C 178.53125 236.230469 169.492188 230.1875 162.910156 221.800781 C 157.363281 214.730469 153.464844 205.925781 151.320312 195.628906 C 148.890625 183.960938 149.296875 172.910156 149.851562 166.746094 C 153.496094 167.457031 157.148438 167.816406 160.714844 167.816406 C 166.921875 167.816406 172.621094 166.71875 177.652344 164.558594 C 182.347656 162.546875 186.464844 159.609375 189.898438 155.816406 C 199.558594 165.878906 211.109375 168.019531 219.191406 168.019531 C 222.679688 168.019531 226.214844 167.640625 229.726562 166.886719 C 230.417969 173.125 231.054688 184.320312 228.757812 196.082031 Z M 228.757812 196.082031 " fill-opacity="1" fill-rule="nonzero"/><g clip-path="url(#d939bba5b8)"><path fill="#0ad9fd" d="M 334.585938 183.777344 C 333.289062 183.777344 332.191406 184.640625 331.835938 185.820312 L 320.0625 185.820312 L 314.113281 192.425781 L 304.476562 192.425781 L 299.277344 199.769531 L 291.929688 199.769531 L 287.445312 194.082031 L 292.230469 194.082031 C 292.585938 195.261719 293.683594 196.125 294.980469 196.125 C 296.558594 196.125 297.851562 194.839844 297.851562 193.253906 C 297.851562 191.667969 296.5625 190.382812 294.980469 190.382812 C 293.683594 190.382812 292.585938 191.246094 292.230469 192.425781 L 279.445312 192.425781 L 272.960938 201.675781 L 252.273438 201.675781 L 246.851562 197.710938 L 234.898438 197.695312 C 234.945312 197.476562 234.984375 197.261719 235.027344 197.039062 C 235.132812 196.488281 235.230469 195.941406 235.324219 195.402344 L 247.113281 195.402344 L 253.304688 199.859375 L 271.308594 199.859375 L 281.484375 184.71875 L 292.230469 184.71875 C 292.585938 185.898438 293.683594 186.761719 294.980469 186.761719 C 296.558594 186.761719 297.851562 185.476562 297.851562 183.890625 C 297.851562 182.304688 296.5625 181.019531 294.980469 181.019531 C 293.683594 181.019531 292.585938 181.882812 292.230469 183.0625 L 280.601562 183.0625 L 270.429688 198.207031 L 253.84375 198.207031 L 247.648438 193.746094 L 235.605469 193.746094 C 235.722656 192.972656 235.828125 192.199219 235.925781 191.4375 L 249.726562 191.4375 L 253.46875 193.582031 L 258.765625 193.582031 C 259.121094 194.761719 260.21875 195.625 261.511719 195.625 C 263.097656 195.625 264.382812 194.339844 264.382812 192.753906 C 264.382812 191.171875 263.097656 189.882812 261.511719 189.882812 C 260.21875 189.882812 259.121094 190.742188 258.765625 191.925781 L 253.910156 191.925781 L 250.167969 189.78125 L 236.125 189.78125 C 236.210938 189.003906 236.285156 188.234375 236.347656 187.472656 L 271.25 187.472656 L 280.941406 172.925781 L 287.644531 172.925781 L 291.609375 178.308594 L 299.769531 178.308594 L 304.3125 184.714844 L 314.027344 184.714844 L 317.328125 179.546875 L 329.300781 179.546875 C 329.640625 180.753906 330.746094 181.648438 332.066406 181.648438 C 333.648438 181.648438 334.9375 180.359375 334.9375 178.777344 C 334.9375 177.195312 333.652344 175.90625 332.066406 175.90625 C 330.792969 175.90625 329.707031 176.742188 329.332031 177.890625 L 316.425781 177.890625 L 313.117188 183.0625 L 305.164062 183.0625 L 301.792969 178.3125 L 305.410156 178.3125 C 305.765625 179.492188 306.863281 180.355469 308.160156 180.355469 C 309.742188 180.355469 311.03125 179.066406 311.03125 177.484375 C 311.03125 175.90625 309.742188 174.613281 308.160156 174.613281 C 306.863281 174.613281 305.765625 175.480469 305.410156 176.660156 L 292.441406 176.660156 L 289.691406 172.929688 L 297.78125 172.929688 C 298.136719 174.109375 299.234375 174.976562 300.527344 174.976562 C 302.109375 174.976562 303.398438 173.6875 303.398438 172.105469 C 303.398438 170.523438 302.113281 169.234375 300.527344 169.234375 C 299.234375 169.234375 298.136719 170.09375 297.78125 171.277344 L 280.054688 171.277344 L 270.359375 185.820312 L 236.472656 185.820312 C 236.53125 185.039062 236.570312 184.269531 236.605469 183.511719 L 266.382812 183.511719 L 277.382812 166.289062 L 306.953125 166.289062 L 310.832031 171.761719 L 323.675781 171.761719 C 324.035156 172.941406 325.132812 173.804688 326.425781 173.804688 C 328.007812 173.804688 329.296875 172.519531 329.296875 170.933594 C 329.296875 169.351562 328.011719 168.0625 326.425781 168.0625 C 325.132812 168.0625 324.035156 168.921875 323.675781 170.105469 L 311.683594 170.105469 L 307.808594 164.632812 L 295.542969 164.632812 L 298.296875 159.472656 L 311.960938 159.472656 C 312.316406 160.652344 313.414062 161.515625 314.707031 161.515625 C 316.289062 161.515625 317.578125 160.230469 317.578125 158.644531 C 317.578125 157.066406 316.292969 155.773438 314.707031 155.773438 C 313.414062 155.773438 312.316406 156.632812 311.960938 157.820312 L 305.457031 157.820312 L 308.632812 152.324219 L 325.226562 152.324219 C 325.582031 153.503906 326.679688 154.371094 327.972656 154.371094 C 329.558594 154.371094 330.84375 153.082031 330.84375 151.5 C 330.84375 149.917969 329.558594 148.628906 327.972656 148.628906 C 326.679688 148.628906 325.582031 149.488281 325.226562 150.671875 L 307.679688 150.671875 L 303.542969 157.8125 L 297.304688 157.8125 L 293.671875 164.628906 L 278.4375 164.628906 L 280.5 161.402344 C 280.746094 161.472656 281.007812 161.511719 281.273438 161.511719 C 282.855469 161.511719 284.144531 160.226562 284.144531 158.640625 C 284.144531 157.0625 282.859375 155.769531 281.273438 155.769531 C 279.691406 155.769531 278.402344 157.054688 278.402344 158.640625 C 278.402344 159.359375 278.671875 160.007812 279.105469 160.511719 L 265.472656 181.851562 L 236.664062 181.851562 C 236.6875 181.066406 236.707031 180.296875 236.710938 179.542969 L 261.347656 179.542969 L 269.558594 166.851562 C 269.808594 166.921875 270.070312 166.964844 270.34375 166.964844 C 271.925781 166.964844 273.214844 165.679688 273.214844 164.09375 C 273.214844 162.507812 271.929688 161.222656 270.34375 161.222656 C 268.757812 161.222656 267.472656 162.507812 267.472656 164.09375 C 267.472656 164.804688 267.734375 165.457031 268.167969 165.960938 L 260.453125 177.886719 L 236.71875 177.886719 C 236.707031 175.367188 236.605469 173.085938 236.480469 171.132812 C 236.035156 164.367188 235.136719 160.046875 235.101562 159.871094 L 234.851562 158.683594 L 233.726562 159.136719 C 233.664062 159.164062 226.914062 161.855469 218.226562 161.652344 C 213.140625 161.53125 208.492188 160.488281 204.304688 158.535156 L 204.304688 143.320312 L 221.039062 134.183594 L 221.039062 126.25 C 222.21875 125.890625 223.082031 124.792969 223.082031 123.5 C 223.082031 122.207031 222.21875 121.109375 221.039062 120.753906 L 221.039062 91.597656 C 222.21875 91.242188 223.082031 90.144531 223.082031 88.851562 C 223.082031 87.269531 221.796875 85.980469 220.210938 85.980469 C 218.628906 85.980469 217.339844 87.265625 217.339844 88.851562 C 217.339844 90.144531 218.207031 91.242188 219.386719 91.597656 L 219.386719 120.753906 C 218.207031 121.109375 217.339844 122.207031 217.339844 123.5 C 217.339844 124.792969 218.207031 125.890625 219.386719 126.25 L 219.386719 133.203125 L 202.648438 142.339844 L 202.648438 157.703125 C 201.863281 157.277344 201.09375 156.820312 200.339844 156.324219 L 200.339844 138.238281 L 206.988281 134.335938 C 207.503906 134.835938 208.203125 135.144531 208.976562 135.144531 C 210.5625 135.144531 211.847656 133.859375 211.847656 132.273438 C 211.847656 130.980469 210.984375 129.882812 209.804688 129.523438 L 209.804688 117.386719 L 215.722656 113.667969 L 215.722656 96.410156 C 216.902344 96.054688 217.765625 94.957031 217.765625 93.664062 C 217.765625 92.082031 216.480469 90.792969 214.894531 90.792969 C 213.316406 90.792969 212.023438 92.078125 212.023438 93.664062 C 212.023438 94.957031 212.890625 96.054688 214.070312 96.410156 L 214.070312 100.644531 L 209.226562 96.933594 L 209.226562 85.164062 L 222.574219 77.777344 L 222.574219 67.683594 C 223.753906 67.328125 224.617188 66.230469 224.617188 64.9375 C 224.617188 63.355469 223.332031 62.066406 221.746094 62.066406 C 220.164062 62.066406 218.875 63.351562 218.875 64.9375 C 218.875 66.230469 219.742188 67.328125 220.921875 67.683594 L 220.921875 76.800781 L 209.226562 83.277344 L 209.226562 77.15625 L 216.320312 73.160156 L 216.320312 62.25 C 217.460938 61.867188 218.289062 60.792969 218.289062 59.527344 C 218.289062 57.945312 217 56.65625 215.417969 56.65625 C 213.835938 56.65625 212.546875 57.941406 212.546875 59.527344 C 212.546875 60.847656 213.445312 61.964844 214.667969 62.292969 L 214.667969 72.195312 L 207.574219 76.191406 L 207.574219 97.746094 L 214.070312 102.726562 L 214.070312 112.761719 L 209.804688 115.441406 L 209.804688 108.441406 C 210.984375 108.085938 211.847656 106.988281 211.847656 105.691406 C 211.847656 104.113281 210.5625 102.820312 208.976562 102.820312 C 207.398438 102.820312 206.105469 104.109375 206.105469 105.691406 C 206.105469 106.988281 206.972656 108.085938 208.152344 108.441406 L 208.152344 129.53125 C 206.972656 129.886719 206.105469 130.984375 206.105469 132.277344 C 206.105469 132.492188 206.132812 132.699219 206.175781 132.898438 L 200.339844 136.324219 L 200.339844 123.386719 C 201.519531 123.03125 202.382812 121.933594 202.382812 120.636719 C 202.382812 119.058594 201.097656 117.765625 199.511719 117.765625 C 197.933594 117.765625 196.640625 119.054688 196.640625 120.636719 C 196.640625 121.933594 197.503906 123.03125 198.683594 123.386719 L 198.683594 155.164062 C 197.894531 154.574219 197.125 153.941406 196.375 153.265625 L 196.375 117.414062 L 201.992188 112.941406 L 201.992188 98.457031 C 203.171875 98.097656 204.035156 97 204.035156 95.707031 C 204.035156 94.121094 202.75 92.835938 201.164062 92.835938 C 199.578125 92.835938 198.292969 94.121094 198.292969 95.707031 C 198.292969 97 199.15625 98.097656 200.335938 98.457031 L 200.335938 103.675781 L 193.589844 98.375 L 193.589844 84.0625 C 194.769531 83.707031 195.632812 82.609375 195.632812 81.316406 C 195.632812 79.734375 194.347656 78.445312 192.761719 78.445312 C 191.179688 78.445312 189.890625 79.730469 189.890625 81.316406 C 189.890625 82.609375 190.757812 83.707031 191.9375 84.0625 L 191.9375 99.171875 L 200.335938 105.777344 L 200.335938 112.144531 L 194.71875 116.617188 L 194.71875 151.671875 C 193.921875 150.855469 193.152344 149.988281 192.410156 149.070312 L 192.410156 113.492188 C 193.589844 113.132812 194.453125 112.035156 194.453125 110.742188 C 194.453125 109.15625 193.167969 107.871094 191.582031 107.871094 C 190.003906 107.871094 188.710938 109.15625 188.710938 110.742188 C 188.710938 112.035156 189.574219 113.132812 190.757812 113.492188 L 190.757812 119.105469 L 185.804688 115.128906 L 185.804688 96.425781 C 187.019531 96.09375 187.914062 94.976562 187.914062 93.660156 C 187.914062 92.078125 186.628906 90.789062 185.042969 90.789062 C 183.457031 90.789062 182.171875 92.074219 182.171875 93.660156 C 182.171875 94.929688 183.003906 96.011719 184.148438 96.386719 L 184.148438 115.921875 L 190.757812 121.230469 L 190.757812 146.894531 C 190.683594 146.792969 190.609375 146.691406 190.539062 146.585938 L 189.648438 145.308594 L 188.839844 146.636719 C 188.707031 146.851562 188.578125 147.058594 188.441406 147.269531 L 188.441406 130.375 L 182.882812 126.550781 C 182.964844 126.285156 183.011719 126 183.011719 125.703125 C 183.011719 124.121094 181.726562 122.832031 180.140625 122.832031 C 178.558594 122.832031 177.269531 124.121094 177.269531 125.703125 C 177.269531 127.285156 178.554688 128.574219 180.140625 128.574219 C 180.832031 128.574219 181.460938 128.328125 181.957031 127.925781 L 186.789062 131.242188 L 186.789062 149.628906 C 186.058594 150.578125 185.289062 151.46875 184.476562 152.304688 L 184.476562 136.03125 L 174.652344 130.191406 L 174.652344 119.695312 L 180.042969 116.578125 L 180.042969 85.222656 L 186.527344 82.425781 L 186.464844 64.84375 C 187.675781 64.507812 188.574219 63.394531 188.574219 62.078125 C 188.574219 60.496094 187.285156 59.207031 185.703125 59.207031 C 184.117188 59.207031 182.832031 60.492188 182.832031 62.078125 C 182.832031 63.347656 183.664062 64.429688 184.8125 64.804688 L 184.875 81.335938 L 180.042969 83.421875 L 180.042969 74.703125 C 181.222656 74.347656 182.085938 73.25 182.085938 71.957031 C 182.085938 70.371094 180.800781 69.085938 179.214844 69.085938 C 177.632812 69.085938 176.34375 70.371094 176.34375 71.957031 C 176.34375 73.25 177.207031 74.347656 178.386719 74.703125 L 178.386719 115.632812 L 174.652344 117.792969 L 174.652344 86.671875 C 175.832031 86.316406 176.695312 85.21875 176.695312 83.925781 C 176.695312 82.339844 175.410156 81.054688 173.824219 81.054688 C 172.242188 81.054688 170.953125 82.339844 170.953125 83.925781 C 170.953125 85.21875 171.816406 86.316406 172.996094 86.671875 L 172.996094 92.070312 L 166.742188 87.667969 L 166.742188 66.621094 C 167.921875 66.261719 168.785156 65.164062 168.785156 63.871094 C 168.785156 62.289062 167.496094 61 165.914062 61 C 164.332031 61 163.042969 62.285156 163.042969 63.871094 C 163.042969 65.164062 163.910156 66.261719 165.089844 66.621094 L 165.089844 88.523438 L 172.992188 94.09375 L 172.992188 131.140625 L 182.820312 136.976562 L 182.820312 153.890625 C 182.078125 154.542969 181.308594 155.15625 180.507812 155.726562 L 180.507812 139.441406 L 168.78125 132.722656 L 168.78125 114.253906 C 169.960938 113.894531 170.828125 112.796875 170.828125 111.503906 C 170.828125 109.921875 169.539062 108.632812 167.957031 108.632812 C 166.371094 108.632812 165.085938 109.917969 165.085938 111.503906 C 165.085938 112.796875 165.949219 113.894531 167.128906 114.253906 L 167.128906 133.683594 L 178.855469 140.398438 L 178.855469 156.820312 C 178.109375 157.277344 177.339844 157.703125 176.542969 158.09375 L 176.542969 142.636719 L 163.332031 135.039062 L 163.332031 101.523438 C 164.511719 101.167969 165.375 100.070312 165.375 98.773438 C 165.375 97.191406 164.089844 95.902344 162.503906 95.902344 C 160.917969 95.902344 159.632812 97.191406 159.632812 98.773438 C 159.632812 100.070312 160.496094 101.167969 161.675781 101.523438 L 161.675781 135.996094 L 174.890625 143.59375 L 174.890625 158.847656 C 171.109375 160.425781 166.847656 161.296875 162.132812 161.449219 C 153.117188 161.738281 145.707031 159.160156 145.632812 159.132812 L 144.519531 158.734375 L 144.300781 159.898438 C 144.269531 160.074219 143.484375 164.332031 143.171875 171.015625 C 143.078125 173.019531 143.023438 175.371094 143.070312 177.976562 L 129.789062 177.976562 L 106.527344 159.160156 C 106.703125 158.789062 106.804688 158.375 106.804688 157.9375 C 106.804688 156.355469 105.519531 155.066406 103.933594 155.066406 C 102.351562 155.066406 101.0625 156.351562 101.0625 157.9375 C 101.0625 159.519531 102.351562 160.808594 103.933594 160.808594 C 104.476562 160.808594 104.984375 160.652344 105.417969 160.390625 L 112.738281 166.3125 L 104.910156 166.3125 C 104.554688 165.132812 103.457031 164.269531 102.160156 164.269531 C 100.578125 164.269531 99.289062 165.554688 99.289062 167.140625 C 99.289062 168.722656 100.578125 170.011719 102.160156 170.011719 C 103.457031 170.011719 104.554688 169.152344 104.910156 167.96875 L 114.78125 167.96875 L 129.203125 179.632812 L 143.105469 179.632812 C 143.132812 180.386719 143.160156 181.15625 143.199219 181.941406 L 124.703125 181.941406 L 115.894531 175.382812 C 116.050781 175.027344 116.136719 174.644531 116.136719 174.234375 C 116.136719 172.652344 114.851562 171.363281 113.265625 171.363281 C 111.679688 171.363281 110.394531 172.652344 110.394531 174.234375 C 110.394531 175.820312 111.679688 177.105469 113.265625 177.105469 C 113.839844 177.105469 114.371094 176.933594 114.820312 176.640625 L 121.9375 181.9375 L 112.769531 181.9375 L 103.5 175.449219 L 99.507812 175.449219 L 94.113281 167.078125 L 90.609375 167.078125 L 85.421875 158.429688 L 78.667969 158.429688 L 74.222656 151.664062 C 74.652344 151.164062 74.917969 150.507812 74.917969 149.796875 C 74.917969 148.210938 73.632812 146.925781 72.046875 146.925781 C 70.464844 146.925781 69.175781 148.210938 69.175781 149.796875 C 69.175781 151.375 70.460938 152.667969 72.046875 152.667969 C 72.316406 152.667969 72.578125 152.625 72.828125 152.554688 L 76.699219 158.425781 L 59.171875 158.425781 C 58.816406 157.246094 57.71875 156.382812 56.425781 156.382812 C 54.839844 156.382812 53.554688 157.667969 53.554688 159.253906 C 53.554688 160.832031 54.839844 162.125 56.425781 162.125 C 57.71875 162.125 58.816406 161.257812 59.171875 160.078125 L 84.496094 160.078125 L 88.691406 167.078125 L 74.5625 167.078125 C 74.203125 165.898438 73.105469 165.035156 71.8125 165.035156 C 70.226562 165.035156 68.941406 166.320312 68.941406 167.90625 C 68.941406 169.492188 70.226562 170.777344 71.8125 170.777344 C 73.105469 170.777344 74.203125 169.914062 74.5625 168.734375 L 83.058594 168.734375 L 78.675781 173.40625 L 57.605469 173.40625 C 57.25 172.226562 56.152344 171.363281 54.855469 171.363281 C 53.277344 171.363281 51.984375 172.652344 51.984375 174.234375 C 51.984375 175.820312 53.273438 177.105469 54.855469 177.105469 C 56.152344 177.105469 57.25 176.242188 57.605469 175.0625 L 79.390625 175.0625 L 85.324219 168.734375 L 93.226562 168.734375 L 97.554688 175.449219 L 92.335938 175.449219 C 91.980469 174.269531 90.882812 173.40625 89.589844 173.40625 C 88.007812 173.40625 86.71875 174.691406 86.71875 176.277344 C 86.71875 177.859375 88.003906 179.148438 89.589844 179.148438 C 90.882812 179.148438 91.980469 178.289062 92.335938 177.105469 L 102.992188 177.105469 L 112.261719 183.59375 L 143.3125 183.59375 C 143.359375 184.351562 143.421875 185.121094 143.492188 185.902344 L 105.589844 185.902344 L 101.117188 182.929688 L 84.613281 182.929688 C 84.214844 181.820312 83.152344 181.019531 81.910156 181.019531 C 80.328125 181.019531 79.039062 182.308594 79.039062 183.890625 C 79.039062 185.472656 80.324219 186.761719 81.910156 186.761719 C 83.253906 186.761719 84.378906 185.832031 84.695312 184.582031 L 89.984375 184.582031 L 86.050781 189.867188 L 77.140625 189.867188 L 70.261719 180.179688 L 49.457031 180.179688 C 49.101562 179 48.003906 178.136719 46.710938 178.136719 C 45.128906 178.136719 43.839844 179.421875 43.839844 181.007812 C 43.839844 182.589844 45.128906 183.878906 46.710938 183.878906 C 48.003906 183.878906 49.101562 183.015625 49.457031 181.835938 L 58.691406 181.835938 L 54.859375 189.039062 L 43.15625 189.039062 C 42.800781 187.859375 41.703125 186.996094 40.40625 186.996094 C 38.828125 186.996094 37.535156 188.28125 37.535156 189.867188 C 37.535156 191.449219 38.824219 192.738281 40.40625 192.738281 C 41.703125 192.738281 42.800781 191.878906 43.15625 190.695312 L 55.859375 190.695312 L 60.566406 181.835938 L 69.40625 181.835938 L 75.109375 189.867188 L 69.058594 189.867188 C 68.699219 188.6875 67.601562 187.824219 66.308594 187.824219 C 64.726562 187.824219 63.4375 189.109375 63.4375 190.695312 C 63.4375 192.277344 64.722656 193.566406 66.308594 193.566406 C 67.601562 193.566406 68.699219 192.707031 69.058594 191.523438 L 86.878906 191.523438 L 92.046875 184.582031 L 100.617188 184.582031 L 105.089844 187.558594 L 143.652344 187.558594 C 143.730469 188.320312 143.824219 189.089844 143.921875 189.867188 L 99.625 189.867188 C 99.320312 188.613281 98.1875 187.679688 96.84375 187.679688 C 95.261719 187.679688 93.972656 188.964844 93.972656 190.550781 C 93.972656 192.132812 95.261719 193.421875 96.84375 193.421875 C 98.082031 193.421875 99.140625 192.628906 99.535156 191.523438 L 144.148438 191.523438 C 144.257812 192.285156 144.378906 193.058594 144.511719 193.832031 L 105.636719 193.832031 L 101.140625 198.777344 L 87.707031 199.25 C 87.34375 198.082031 86.253906 197.230469 84.96875 197.230469 C 83.382812 197.230469 82.097656 198.515625 82.097656 200.101562 C 82.097656 201.683594 83.382812 202.972656 84.96875 202.972656 C 86.269531 202.972656 87.375 202.097656 87.722656 200.90625 L 101.894531 200.40625 L 106.367188 195.488281 L 111.945312 195.488281 L 109.25 199.40625 C 108.980469 199.324219 108.699219 199.28125 108.402344 199.28125 C 106.824219 199.28125 105.53125 200.566406 105.53125 202.152344 C 105.53125 203.734375 106.820312 205.023438 108.402344 205.023438 C 109.988281 205.023438 111.273438 203.734375 111.273438 202.152344 C 111.273438 201.460938 111.03125 200.828125 110.625 200.332031 L 113.953125 195.488281 L 144.820312 195.488281 C 144.890625 195.878906 144.96875 196.273438 145.050781 196.667969 C 145.128906 197.046875 145.210938 197.425781 145.289062 197.796875 L 118.746094 197.796875 L 112.910156 207.621094 L 102.109375 207.621094 L 99.3125 203.71875 L 79.710938 203.71875 L 76.242188 199.28125 L 60.769531 199.28125 C 60.414062 198.101562 59.316406 197.234375 58.023438 197.234375 C 56.441406 197.234375 55.152344 198.523438 55.152344 200.105469 C 55.152344 201.6875 56.4375 202.976562 58.023438 202.976562 C 59.316406 202.976562 60.414062 202.113281 60.769531 200.933594 L 75.433594 200.933594 L 78.902344 205.378906 L 98.460938 205.378906 L 100.074219 207.628906 L 73.34375 207.628906 C 72.988281 206.449219 71.890625 205.585938 70.597656 205.585938 C 69.011719 205.585938 67.726562 206.871094 67.726562 208.457031 C 67.726562 210.039062 69.011719 211.328125 70.597656 211.328125 C 71.890625 211.328125 72.988281 210.464844 73.34375 209.285156 L 81.78125 209.285156 L 75.921875 214.859375 L 58.726562 214.859375 C 58.371094 213.679688 57.273438 212.816406 55.980469 212.816406 C 54.398438 212.816406 53.109375 214.101562 53.109375 215.6875 C 53.109375 217.265625 54.394531 218.558594 55.980469 218.558594 C 57.273438 218.558594 58.371094 217.699219 58.726562 216.515625 L 76.585938 216.515625 L 84.183594 209.273438 L 113.851562 209.273438 L 119.6875 199.445312 L 145.667969 199.445312 C 145.855469 200.226562 146.046875 200.996094 146.257812 201.757812 L 122.148438 201.757812 L 115.433594 213.484375 L 100.652344 213.484375 C 100.292969 212.304688 99.195312 211.4375 97.902344 211.4375 C 96.316406 211.4375 95.03125 212.726562 95.03125 214.308594 C 95.03125 215.890625 96.316406 217.179688 97.902344 217.179688 C 99.195312 217.179688 100.292969 216.316406 100.652344 215.136719 L 116.390625 215.136719 L 123.109375 203.410156 L 146.71875 203.410156 C 146.949219 204.191406 147.1875 204.960938 147.4375 205.722656 L 125.011719 205.722656 L 117.414062 218.933594 L 87.710938 218.933594 C 87.355469 217.753906 86.257812 216.890625 84.964844 216.890625 C 83.378906 216.890625 82.09375 218.175781 82.09375 219.761719 C 82.09375 221.34375 83.378906 222.632812 84.964844 222.632812 C 86.257812 222.632812 87.355469 221.773438 87.710938 220.589844 L 101.71875 220.589844 L 98.707031 226.34375 L 72.082031 226.34375 C 71.726562 225.164062 70.628906 224.300781 69.335938 224.300781 C 67.753906 224.300781 66.464844 225.585938 66.464844 227.171875 C 66.464844 228.757812 67.75 230.042969 69.335938 230.042969 C 70.628906 230.042969 71.726562 229.179688 72.082031 228 L 99.707031 228 L 103.585938 220.589844 L 118.367188 220.589844 L 125.964844 207.375 L 147.996094 207.375 C 150.417969 214.222656 153.703125 220.328125 157.820312 225.601562 C 162.46875 231.5625 168.183594 236.460938 174.910156 240.253906 L 174.910156 250.582031 L 158.175781 259.71875 L 158.175781 279.46875 C 156.996094 279.824219 156.132812 280.921875 156.132812 282.21875 C 156.132812 283.800781 157.417969 285.089844 159.003906 285.089844 C 160.585938 285.089844 161.875 283.800781 161.875 282.21875 C 161.875 280.921875 161.011719 279.824219 159.828125 279.46875 L 159.828125 260.703125 L 176.566406 251.566406 L 176.566406 241.152344 C 177.320312 241.550781 178.09375 241.9375 178.875 242.308594 L 178.875 255.664062 L 170.949219 260.316406 L 170.949219 264.238281 L 164.472656 267.195312 L 164.472656 289.242188 C 163.292969 289.597656 162.429688 290.695312 162.429688 291.988281 C 162.429688 293.570312 163.714844 294.859375 165.300781 294.859375 C 166.882812 294.859375 168.171875 293.570312 168.171875 291.988281 C 168.171875 290.695312 167.3125 289.597656 166.128906 289.242188 L 166.128906 268.257812 L 170.949219 266.054688 L 170.949219 272.492188 C 169.769531 272.851562 168.90625 273.949219 168.90625 275.242188 C 168.90625 276.828125 170.195312 278.113281 171.777344 278.113281 C 173.363281 278.113281 174.648438 276.828125 174.648438 275.242188 C 174.648438 273.949219 173.785156 272.851562 172.605469 272.492188 L 172.605469 261.261719 L 178.878906 257.582031 L 178.878906 273.179688 L 174.914062 279.222656 L 174.914062 292.613281 L 170.089844 297.910156 L 170.089844 311 C 168.910156 311.359375 168.046875 312.457031 168.046875 313.75 C 168.046875 315.332031 169.332031 316.621094 170.917969 316.621094 C 172.496094 316.621094 173.789062 315.335938 173.789062 313.75 C 173.789062 312.457031 172.921875 311.359375 171.742188 311 L 171.742188 298.550781 L 176.570312 293.25 L 176.570312 279.714844 L 180.535156 273.667969 L 180.535156 243.0625 C 181.289062 243.398438 182.0625 243.722656 182.84375 244.03125 L 182.84375 274.988281 L 179.871094 279.460938 L 179.871094 295.945312 C 178.730469 296.328125 177.902344 297.398438 177.902344 298.664062 C 177.902344 300.25 179.191406 301.535156 180.773438 301.535156 C 182.359375 301.535156 183.644531 300.25 183.644531 298.664062 C 183.644531 297.34375 182.746094 296.226562 181.523438 295.898438 L 181.523438 279.960938 L 184.496094 275.488281 L 184.496094 244.667969 C 185.257812 244.949219 186.03125 245.214844 186.808594 245.476562 L 186.808594 301.558594 L 179.871094 308.25 L 179.871094 324.925781 C 178.691406 325.285156 177.824219 326.382812 177.824219 327.675781 C 177.824219 329.261719 179.113281 330.546875 180.695312 330.546875 C 182.277344 330.546875 183.566406 329.261719 183.566406 327.675781 C 183.566406 326.382812 182.703125 325.285156 181.523438 324.925781 L 181.523438 308.953125 L 186.808594 303.859375 L 186.808594 315.675781 C 185.628906 316.03125 184.765625 317.128906 184.765625 318.421875 C 184.765625 320.007812 186.050781 321.292969 187.636719 321.292969 C 189.21875 321.292969 190.507812 320.007812 190.507812 318.421875 C 190.507812 317.128906 189.640625 316.03125 188.460938 315.675781 L 188.460938 246.007812 C 188.785156 246.105469 189.113281 246.203125 189.441406 246.296875 L 189.710938 246.375 L 189.984375 246.300781 C 190.253906 246.230469 190.515625 246.164062 190.777344 246.089844 L 190.777344 263.539062 L 196.714844 267.625 L 196.714844 271.714844 L 191.4375 275.691406 L 191.4375 290.339844 L 196.714844 292.777344 L 196.714844 301.527344 C 195.535156 301.882812 194.671875 302.980469 194.671875 304.277344 C 194.671875 305.863281 195.957031 307.148438 197.542969 307.148438 C 199.125 307.148438 200.414062 305.863281 200.414062 304.277344 C 200.414062 302.980469 199.550781 301.882812 198.371094 301.527344 L 198.371094 291.71875 L 193.089844 289.28125 L 193.089844 276.515625 L 196.714844 273.785156 L 196.714844 278.347656 C 195.535156 278.703125 194.671875 279.800781 194.671875 281.09375 C 194.671875 282.675781 195.957031 283.964844 197.542969 283.964844 C 199.125 283.964844 200.414062 282.679688 200.414062 281.09375 C 200.414062 279.800781 199.550781 278.703125 198.371094 278.347656 L 198.371094 266.757812 L 192.429688 262.671875 L 192.429688 245.613281 C 193.210938 245.378906 193.980469 245.132812 194.742188 244.878906 L 194.742188 257.878906 L 204.566406 263.71875 L 204.566406 306.921875 C 203.386719 307.277344 202.523438 308.375 202.523438 309.671875 C 202.523438 311.253906 203.808594 312.542969 205.394531 312.542969 C 206.976562 312.542969 208.265625 311.253906 208.265625 309.671875 C 208.265625 308.375 207.40625 307.277344 206.222656 306.921875 L 206.222656 285.628906 L 210.433594 287.8125 L 210.433594 301.105469 L 214.636719 304.664062 L 214.636719 318.851562 C 213.457031 319.210938 212.59375 320.308594 212.59375 321.601562 C 212.59375 323.1875 213.878906 324.472656 215.464844 324.472656 C 217.046875 324.472656 218.335938 323.1875 218.335938 321.601562 C 218.335938 320.308594 217.472656 319.210938 216.292969 318.851562 L 216.292969 303.898438 L 212.085938 300.339844 L 212.085938 286.808594 L 206.226562 283.765625 L 206.226562 262.773438 L 196.398438 256.9375 L 196.398438 244.304688 C 197.183594 244.019531 197.953125 243.722656 198.710938 243.417969 L 198.710938 254.476562 L 210.4375 261.195312 L 210.4375 272.652344 C 209.257812 273.011719 208.390625 274.109375 208.390625 275.402344 C 208.390625 276.984375 209.679688 278.273438 211.261719 278.273438 C 212.847656 278.273438 214.132812 276.988281 214.132812 275.402344 C 214.132812 274.109375 213.269531 273.011719 212.089844 272.652344 L 212.089844 260.234375 L 200.363281 253.519531 L 200.363281 242.710938 C 201.148438 242.371094 201.917969 242.011719 202.675781 241.644531 L 202.675781 253.253906 L 215.886719 260.851562 L 215.886719 292.324219 C 214.707031 292.679688 213.84375 293.777344 213.84375 295.074219 C 213.84375 296.652344 215.128906 297.945312 216.714844 297.945312 C 218.296875 297.945312 219.585938 296.660156 219.585938 295.074219 C 219.585938 293.777344 218.722656 292.679688 217.542969 292.324219 L 217.542969 283.675781 L 223.238281 287.117188 L 223.238281 303.558594 C 222.058594 303.914062 221.195312 305.011719 221.195312 306.308594 C 221.195312 307.890625 222.480469 309.179688 224.066406 309.179688 C 225.652344 309.179688 226.9375 307.894531 226.9375 306.308594 C 226.9375 305.011719 226.074219 303.914062 224.894531 303.558594 L 224.894531 286.179688 L 217.546875 281.742188 L 217.546875 259.890625 L 204.332031 252.292969 L 204.332031 240.8125 C 211.488281 237.082031 217.523438 232.144531 222.367188 226.042969 C 226.644531 220.664062 229.992188 214.382812 232.386719 207.285156 L 243.960938 207.285156 L 266.527344 223.160156 L 266.738281 223.3125 L 284.558594 223.3125 C 284.917969 224.492188 286.011719 225.355469 287.308594 225.355469 C 288.890625 225.355469 290.179688 224.070312 290.179688 222.484375 C 290.179688 220.898438 288.894531 219.613281 287.308594 219.613281 C 286.015625 219.613281 284.917969 220.480469 284.558594 221.65625 L 267.261719 221.65625 L 244.695312 205.777344 L 244.484375 205.628906 L 232.890625 205.628906 C 233.128906 204.867188 233.355469 204.097656 233.566406 203.316406 L 244.402344 203.316406 L 250.183594 207.28125 L 265.617188 207.28125 L 272.554688 213.367188 L 296.324219 213.367188 C 296.679688 214.546875 297.777344 215.414062 299.070312 215.414062 C 300.652344 215.414062 301.941406 214.125 301.941406 212.542969 C 301.941406 210.957031 300.652344 209.671875 299.070312 209.671875 C 297.777344 209.671875 296.679688 210.535156 296.324219 211.714844 L 291.367188 211.714844 L 294.136719 207.28125 L 315.417969 207.28125 C 315.773438 208.460938 316.871094 209.324219 318.164062 209.324219 C 319.746094 209.324219 321.035156 208.039062 321.035156 206.453125 C 321.035156 204.871094 319.75 203.582031 318.164062 203.582031 C 316.871094 203.582031 315.773438 204.449219 315.417969 205.628906 L 293.21875 205.628906 L 289.421875 211.722656 L 273.183594 211.722656 L 268.132812 207.289062 L 281.824219 207.289062 C 282.179688 208.46875 283.277344 209.335938 284.570312 209.335938 C 286.152344 209.335938 287.441406 208.046875 287.441406 206.464844 C 287.441406 204.878906 286.15625 203.59375 284.570312 203.59375 C 283.277344 203.59375 282.179688 204.453125 281.824219 205.636719 L 250.703125 205.636719 L 244.925781 201.671875 L 234.015625 201.671875 C 234.207031 200.90625 234.390625 200.128906 234.566406 199.34375 L 246.328125 199.359375 L 251.75 203.324219 L 273.835938 203.324219 L 280.316406 194.078125 L 285.355469 194.078125 L 291.132812 201.421875 L 305.417969 201.421875 C 305.773438 202.601562 306.871094 203.464844 308.167969 203.464844 C 309.753906 203.464844 311.039062 202.179688 311.039062 200.59375 C 311.039062 199.007812 309.753906 197.722656 308.167969 197.722656 C 306.871094 197.722656 305.773438 198.585938 305.417969 199.765625 L 301.308594 199.765625 L 305.335938 194.078125 L 325.234375 194.078125 C 325.589844 195.257812 326.6875 196.121094 327.980469 196.121094 C 329.566406 196.121094 330.851562 194.835938 330.851562 193.25 C 330.851562 191.664062 329.566406 190.378906 327.980469 190.378906 C 326.6875 190.378906 325.589844 191.242188 325.234375 192.421875 L 316.34375 192.421875 L 320.796875 187.472656 L 331.835938 187.472656 C 332.191406 188.652344 333.289062 189.515625 334.585938 189.515625 C 336.164062 189.515625 337.457031 188.230469 337.457031 186.644531 C 337.457031 185.0625 336.164062 183.777344 334.585938 183.777344 Z M 294.984375 192.035156 C 295.65625 192.035156 296.199219 192.578125 296.199219 193.25 C 296.199219 193.921875 295.65625 194.464844 294.984375 194.464844 C 294.3125 194.464844 293.765625 193.921875 293.765625 193.25 C 293.765625 192.578125 294.3125 192.035156 294.984375 192.035156 Z M 294.984375 182.671875 C 295.65625 182.671875 296.199219 183.214844 296.199219 183.886719 C 296.199219 184.558594 295.65625 185.105469 294.984375 185.105469 C 294.3125 185.105469 293.765625 184.558594 293.765625 183.886719 C 293.765625 183.21875 294.3125 182.671875 294.984375 182.671875 Z M 261.511719 191.539062 C 262.183594 191.539062 262.730469 192.082031 262.730469 192.753906 C 262.730469 193.425781 262.183594 193.972656 261.511719 193.972656 C 260.839844 193.972656 260.296875 193.421875 260.296875 192.753906 C 260.296875 192.082031 260.839844 191.539062 261.511719 191.539062 Z M 332.066406 177.558594 C 332.738281 177.558594 333.28125 178.105469 333.28125 178.777344 C 333.28125 179.449219 332.734375 179.992188 332.066406 179.992188 C 331.394531 179.992188 330.847656 179.449219 330.847656 178.777344 C 330.847656 178.105469 331.394531 177.558594 332.066406 177.558594 Z M 308.164062 176.265625 C 308.835938 176.265625 309.378906 176.808594 309.378906 177.480469 C 309.378906 178.152344 308.835938 178.699219 308.164062 178.699219 C 307.492188 178.699219 306.945312 178.152344 306.945312 177.480469 C 306.945312 176.808594 307.492188 176.265625 308.164062 176.265625 Z M 300.53125 170.882812 C 301.203125 170.882812 301.75 171.433594 301.75 172.101562 C 301.75 172.773438 301.203125 173.316406 300.53125 173.316406 C 299.859375 173.316406 299.316406 172.773438 299.316406 172.101562 C 299.316406 171.433594 299.859375 170.882812 300.53125 170.882812 Z M 326.429688 169.714844 C 327.101562 169.714844 327.644531 170.265625 327.644531 170.933594 C 327.644531 171.605469 327.097656 172.148438 326.429688 172.148438 C 325.757812 172.148438 325.214844 171.605469 325.214844 170.933594 C 325.214844 170.261719 325.757812 169.714844 326.429688 169.714844 Z M 314.710938 157.429688 C 315.382812 157.429688 315.929688 157.976562 315.929688 158.644531 C 315.929688 159.316406 315.378906 159.863281 314.710938 159.863281 C 314.039062 159.863281 313.496094 159.316406 313.496094 158.644531 C 313.496094 157.972656 314.039062 157.429688 314.710938 157.429688 Z M 327.976562 150.28125 C 328.648438 150.28125 329.195312 150.832031 329.195312 151.5 C 329.195312 152.171875 328.648438 152.714844 327.976562 152.714844 C 327.304688 152.714844 326.761719 152.171875 326.761719 151.5 C 326.761719 150.832031 327.304688 150.28125 327.976562 150.28125 Z M 281.277344 157.429688 C 281.949219 157.429688 282.496094 157.976562 282.496094 158.644531 C 282.496094 159.316406 281.945312 159.863281 281.277344 159.863281 C 280.605469 159.863281 280.0625 159.316406 280.0625 158.644531 C 280.0625 157.972656 280.605469 157.429688 281.277344 157.429688 Z M 270.347656 162.878906 C 271.019531 162.878906 271.5625 163.425781 271.5625 164.097656 C 271.5625 164.769531 271.015625 165.3125 270.347656 165.3125 C 269.675781 165.3125 269.132812 164.765625 269.132812 164.097656 C 269.132812 163.425781 269.675781 162.878906 270.347656 162.878906 Z M 218.996094 88.855469 C 218.996094 88.183594 219.539062 87.640625 220.210938 87.640625 C 220.882812 87.640625 221.429688 88.1875 221.429688 88.855469 C 221.429688 89.527344 220.882812 90.070312 220.210938 90.070312 C 219.542969 90.070312 218.996094 89.527344 218.996094 88.855469 Z M 218.996094 123.503906 C 218.996094 122.832031 219.539062 122.289062 220.210938 122.289062 C 220.882812 122.289062 221.429688 122.832031 221.429688 123.503906 C 221.429688 124.175781 220.882812 124.722656 220.210938 124.722656 C 219.542969 124.722656 218.996094 124.171875 218.996094 123.503906 Z M 213.679688 93.664062 C 213.679688 92.992188 214.222656 92.445312 214.894531 92.445312 C 215.566406 92.445312 216.113281 92.996094 216.113281 93.664062 C 216.113281 94.335938 215.566406 94.878906 214.894531 94.878906 C 214.222656 94.878906 213.679688 94.335938 213.679688 93.664062 Z M 220.53125 64.9375 C 220.53125 64.265625 221.078125 63.71875 221.75 63.71875 C 222.417969 63.71875 222.964844 64.269531 222.964844 64.9375 C 222.964844 65.609375 222.417969 66.152344 221.75 66.152344 C 221.082031 66.152344 220.53125 65.609375 220.53125 64.9375 Z M 214.199219 59.53125 C 214.199219 58.859375 214.746094 58.3125 215.417969 58.3125 C 216.089844 58.3125 216.632812 58.859375 216.632812 59.53125 C 216.632812 60.203125 216.089844 60.746094 215.417969 60.746094 C 214.746094 60.746094 214.199219 60.203125 214.199219 59.53125 Z M 207.761719 105.695312 C 207.761719 105.023438 208.304688 104.480469 208.976562 104.480469 C 209.648438 104.480469 210.195312 105.023438 210.195312 105.695312 C 210.195312 106.367188 209.648438 106.914062 208.976562 106.914062 C 208.304688 106.914062 207.761719 106.367188 207.761719 105.695312 Z M 208.976562 131.0625 C 209.648438 131.0625 210.195312 131.605469 210.195312 132.277344 C 210.195312 132.949219 209.648438 133.496094 208.976562 133.496094 C 208.304688 133.496094 207.761719 132.945312 207.761719 132.277344 C 207.761719 131.609375 208.304688 131.0625 208.976562 131.0625 Z M 198.300781 120.640625 C 198.300781 119.96875 198.84375 119.425781 199.515625 119.425781 C 200.1875 119.425781 200.734375 119.96875 200.734375 120.640625 C 200.734375 121.3125 200.1875 121.859375 199.515625 121.859375 C 198.84375 121.859375 198.300781 121.3125 198.300781 120.640625 Z M 199.949219 95.707031 C 199.949219 95.035156 200.496094 94.492188 201.167969 94.492188 C 201.839844 94.492188 202.382812 95.035156 202.382812 95.707031 C 202.382812 96.378906 201.835938 96.921875 201.167969 96.921875 C 200.496094 96.921875 199.949219 96.378906 199.949219 95.707031 Z M 191.550781 81.316406 C 191.550781 80.644531 192.09375 80.097656 192.765625 80.097656 C 193.4375 80.097656 193.984375 80.648438 193.984375 81.316406 C 193.984375 81.988281 193.4375 82.53125 192.765625 82.53125 C 192.09375 82.53125 191.550781 81.988281 191.550781 81.316406 Z M 183.835938 93.664062 C 183.835938 92.992188 184.378906 92.445312 185.050781 92.445312 C 185.722656 92.445312 186.265625 92.996094 186.265625 93.664062 C 186.265625 94.335938 185.722656 94.878906 185.050781 94.878906 C 184.378906 94.878906 183.835938 94.335938 183.835938 93.664062 Z M 190.371094 110.746094 C 190.371094 110.074219 190.917969 109.53125 191.585938 109.53125 C 192.257812 109.53125 192.804688 110.074219 192.804688 110.746094 C 192.804688 111.417969 192.257812 111.964844 191.585938 111.964844 C 190.917969 111.96875 190.371094 111.417969 190.371094 110.746094 Z M 180.152344 126.921875 C 179.480469 126.921875 178.9375 126.371094 178.9375 125.703125 C 178.9375 125.03125 179.484375 124.488281 180.152344 124.488281 C 180.824219 124.488281 181.367188 125.03125 181.367188 125.703125 C 181.367188 126.375 180.824219 126.921875 180.152344 126.921875 Z M 184.492188 62.078125 C 184.492188 61.40625 185.039062 60.859375 185.710938 60.859375 C 186.382812 60.859375 186.925781 61.40625 186.925781 62.078125 C 186.925781 62.75 186.382812 63.292969 185.710938 63.292969 C 185.039062 63.296875 184.492188 62.75 184.492188 62.078125 Z M 178.007812 71.957031 C 178.007812 71.285156 178.550781 70.738281 179.222656 70.738281 C 179.894531 70.738281 180.4375 71.285156 180.4375 71.957031 C 180.4375 72.628906 179.894531 73.171875 179.222656 73.171875 C 178.554688 73.171875 178.007812 72.628906 178.007812 71.957031 Z M 164.710938 63.871094 C 164.710938 63.199219 165.257812 62.65625 165.929688 62.65625 C 166.601562 62.65625 167.144531 63.203125 167.144531 63.871094 C 167.144531 64.542969 166.59375 65.089844 165.929688 65.089844 C 165.257812 65.089844 164.710938 64.542969 164.710938 63.871094 Z M 172.621094 83.925781 C 172.621094 83.253906 173.164062 82.707031 173.835938 82.707031 C 174.507812 82.707031 175.054688 83.253906 175.054688 83.925781 C 175.054688 84.597656 174.507812 85.140625 173.835938 85.140625 C 173.164062 85.140625 172.621094 84.597656 172.621094 83.925781 Z M 166.753906 111.5 C 166.753906 110.828125 167.300781 110.285156 167.972656 110.285156 C 168.644531 110.285156 169.1875 110.832031 169.1875 111.5 C 169.1875 112.171875 168.644531 112.714844 167.972656 112.714844 C 167.300781 112.722656 166.753906 112.171875 166.753906 111.5 Z M 161.304688 98.769531 C 161.304688 98.097656 161.847656 97.554688 162.519531 97.554688 C 163.191406 97.554688 163.738281 98.097656 163.738281 98.769531 C 163.738281 99.441406 163.1875 99.988281 162.519531 99.988281 C 161.851562 99.988281 161.304688 99.441406 161.304688 98.769531 Z M 103.949219 159.148438 C 103.277344 159.148438 102.730469 158.605469 102.730469 157.933594 C 102.730469 157.261719 103.277344 156.714844 103.949219 156.714844 C 104.621094 156.714844 105.164062 157.265625 105.164062 157.933594 C 105.164062 158.605469 104.617188 159.148438 103.949219 159.148438 Z M 102.171875 168.351562 C 101.5 168.351562 100.953125 167.804688 100.953125 167.136719 C 100.953125 166.464844 101.5 165.917969 102.171875 165.917969 C 102.84375 165.917969 103.386719 166.464844 103.386719 167.136719 C 103.390625 167.804688 102.84375 168.351562 102.171875 168.351562 Z M 113.277344 175.449219 C 112.605469 175.449219 112.0625 174.90625 112.0625 174.234375 C 112.0625 173.5625 112.605469 173.019531 113.277344 173.019531 C 113.949219 173.019531 114.496094 173.566406 114.496094 174.234375 C 114.496094 174.902344 113.949219 175.449219 113.277344 175.449219 Z M 72.042969 151.015625 C 71.371094 151.015625 70.824219 150.472656 70.824219 149.800781 C 70.824219 149.128906 71.375 148.582031 72.042969 148.582031 C 72.714844 148.582031 73.257812 149.128906 73.257812 149.800781 C 73.257812 150.464844 72.714844 151.015625 72.042969 151.015625 Z M 56.425781 160.46875 C 55.753906 160.46875 55.210938 159.921875 55.210938 159.253906 C 55.210938 158.582031 55.753906 158.035156 56.425781 158.035156 C 57.097656 158.035156 57.640625 158.582031 57.640625 159.253906 C 57.640625 159.921875 57.097656 160.46875 56.425781 160.46875 Z M 71.8125 169.121094 C 71.140625 169.121094 70.597656 168.578125 70.597656 167.90625 C 70.597656 167.234375 71.140625 166.691406 71.8125 166.691406 C 72.484375 166.691406 73.03125 167.234375 73.03125 167.90625 C 73.03125 168.578125 72.484375 169.121094 71.8125 169.121094 Z M 54.855469 175.449219 C 54.183594 175.449219 53.640625 174.90625 53.640625 174.234375 C 53.640625 173.5625 54.183594 173.019531 54.855469 173.019531 C 55.527344 173.019531 56.074219 173.566406 56.074219 174.234375 C 56.074219 174.902344 55.527344 175.449219 54.855469 175.449219 Z M 89.589844 177.496094 C 88.917969 177.496094 88.371094 176.945312 88.371094 176.277344 C 88.371094 175.605469 88.921875 175.0625 89.589844 175.0625 C 90.261719 175.0625 90.804688 175.605469 90.804688 176.277344 C 90.804688 176.945312 90.261719 177.496094 89.589844 177.496094 Z M 81.910156 185.109375 C 81.238281 185.109375 80.691406 184.5625 80.691406 183.890625 C 80.691406 183.21875 81.238281 182.675781 81.910156 182.675781 C 82.582031 182.675781 83.125 183.21875 83.125 183.890625 C 83.128906 184.558594 82.582031 185.109375 81.910156 185.109375 Z M 46.710938 182.226562 C 46.039062 182.226562 45.496094 181.679688 45.496094 181.007812 C 45.496094 180.335938 46.039062 179.792969 46.710938 179.792969 C 47.382812 179.792969 47.925781 180.335938 47.925781 181.007812 C 47.925781 181.675781 47.382812 182.226562 46.710938 182.226562 Z M 40.40625 191.082031 C 39.734375 191.082031 39.191406 190.535156 39.191406 189.867188 C 39.191406 189.195312 39.734375 188.652344 40.40625 188.652344 C 41.078125 188.652344 41.625 189.195312 41.625 189.867188 C 41.625 190.535156 41.078125 191.082031 40.40625 191.082031 Z M 66.308594 191.90625 C 65.636719 191.90625 65.09375 191.359375 65.09375 190.691406 C 65.09375 190.019531 65.640625 189.472656 66.308594 189.472656 C 66.980469 189.472656 67.523438 190.019531 67.523438 190.691406 C 67.523438 191.363281 66.980469 191.90625 66.308594 191.90625 Z M 96.84375 191.761719 C 96.171875 191.761719 95.625 191.21875 95.625 190.546875 C 95.625 189.875 96.171875 189.332031 96.84375 189.332031 C 97.511719 189.332031 98.058594 189.875 98.058594 190.546875 C 98.058594 191.21875 97.511719 191.761719 96.84375 191.761719 Z M 84.964844 201.316406 C 84.292969 201.316406 83.746094 200.769531 83.746094 200.097656 C 83.746094 199.425781 84.292969 198.882812 84.964844 198.882812 C 85.636719 198.882812 86.179688 199.425781 86.179688 200.097656 C 86.183594 200.769531 85.636719 201.316406 84.964844 201.316406 Z M 108.398438 203.359375 C 107.726562 203.359375 107.183594 202.8125 107.183594 202.140625 C 107.183594 201.46875 107.726562 200.925781 108.398438 200.925781 C 109.070312 200.925781 109.617188 201.472656 109.617188 202.140625 C 109.617188 202.8125 109.070312 203.359375 108.398438 203.359375 Z M 58.023438 201.316406 C 57.351562 201.316406 56.804688 200.769531 56.804688 200.097656 C 56.804688 199.425781 57.355469 198.882812 58.023438 198.882812 C 58.695312 198.882812 59.238281 199.425781 59.238281 200.097656 C 59.238281 200.769531 58.695312 201.316406 58.023438 201.316406 Z M 70.601562 209.660156 C 69.929688 209.660156 69.382812 209.117188 69.382812 208.445312 C 69.382812 207.773438 69.929688 207.230469 70.601562 207.230469 C 71.273438 207.230469 71.816406 207.773438 71.816406 208.445312 C 71.8125 209.117188 71.269531 209.660156 70.601562 209.660156 Z M 55.980469 216.902344 C 55.308594 216.902344 54.761719 216.355469 54.761719 215.6875 C 54.761719 215.015625 55.308594 214.46875 55.980469 214.46875 C 56.652344 214.46875 57.195312 215.015625 57.195312 215.6875 C 57.195312 216.359375 56.652344 216.902344 55.980469 216.902344 Z M 97.902344 215.527344 C 97.230469 215.527344 96.6875 214.980469 96.6875 214.308594 C 96.6875 213.640625 97.230469 213.09375 97.902344 213.09375 C 98.574219 213.09375 99.117188 213.640625 99.117188 214.308594 C 99.117188 214.976562 98.570312 215.527344 97.902344 215.527344 Z M 84.964844 220.972656 C 84.292969 220.972656 83.746094 220.425781 83.746094 219.757812 C 83.746094 219.085938 84.292969 218.542969 84.964844 218.542969 C 85.636719 218.542969 86.179688 219.085938 86.179688 219.757812 C 86.183594 220.429688 85.636719 220.972656 84.964844 220.972656 Z M 69.335938 228.382812 C 68.664062 228.382812 68.117188 227.839844 68.117188 227.167969 C 68.117188 226.496094 68.664062 225.949219 69.335938 225.949219 C 70.007812 225.949219 70.550781 226.5 70.550781 227.167969 C 70.550781 227.835938 70.007812 228.382812 69.335938 228.382812 Z M 160.21875 282.210938 C 160.21875 282.882812 159.675781 283.429688 159.003906 283.429688 C 158.332031 283.429688 157.785156 282.882812 157.785156 282.210938 C 157.785156 281.542969 158.335938 280.996094 159.003906 280.996094 C 159.667969 280.996094 160.21875 281.542969 160.21875 282.210938 Z M 166.515625 291.984375 C 166.515625 292.65625 165.964844 293.203125 165.296875 293.203125 C 164.625 293.203125 164.082031 292.652344 164.082031 291.984375 C 164.082031 291.3125 164.625 290.769531 165.296875 290.769531 C 165.96875 290.765625 166.515625 291.3125 166.515625 291.984375 Z M 172.988281 275.234375 C 172.988281 275.90625 172.445312 276.449219 171.773438 276.449219 C 171.101562 276.449219 170.554688 275.90625 170.554688 275.234375 C 170.554688 274.5625 171.105469 274.015625 171.773438 274.015625 C 172.445312 274.015625 172.988281 274.566406 172.988281 275.234375 Z M 172.128906 313.746094 C 172.128906 314.417969 171.585938 314.960938 170.914062 314.960938 C 170.242188 314.960938 169.695312 314.414062 169.695312 313.746094 C 169.695312 313.074219 170.242188 312.527344 170.914062 312.527344 C 171.578125 312.527344 172.128906 313.074219 172.128906 313.746094 Z M 181.988281 298.664062 C 181.988281 299.335938 181.441406 299.882812 180.769531 299.882812 C 180.097656 299.882812 179.554688 299.335938 179.554688 298.664062 C 179.554688 297.992188 180.097656 297.449219 180.769531 297.449219 C 181.4375 297.449219 181.988281 297.992188 181.988281 298.664062 Z M 181.90625 327.667969 C 181.90625 328.339844 181.359375 328.882812 180.6875 328.882812 C 180.015625 328.882812 179.472656 328.339844 179.472656 327.667969 C 179.472656 326.996094 180.015625 326.449219 180.6875 326.449219 C 181.359375 326.449219 181.90625 327 181.90625 327.667969 Z M 188.84375 318.414062 C 188.84375 319.085938 188.296875 319.632812 187.628906 319.632812 C 186.957031 319.632812 186.410156 319.085938 186.410156 318.414062 C 186.410156 317.742188 186.957031 317.199219 187.628906 317.199219 C 188.292969 317.199219 188.84375 317.742188 188.84375 318.414062 Z M 198.746094 304.269531 C 198.746094 304.941406 198.203125 305.484375 197.53125 305.484375 C 196.859375 305.484375 196.3125 304.941406 196.3125 304.269531 C 196.3125 303.597656 196.859375 303.050781 197.53125 303.050781 C 198.199219 303.046875 198.746094 303.597656 198.746094 304.269531 Z M 198.746094 281.085938 C 198.746094 281.757812 198.203125 282.304688 197.53125 282.304688 C 196.859375 282.304688 196.3125 281.753906 196.3125 281.085938 C 196.3125 280.414062 196.859375 279.871094 197.53125 279.871094 C 198.199219 279.871094 198.746094 280.414062 198.746094 281.085938 Z M 216.660156 321.585938 C 216.660156 322.257812 216.117188 322.800781 215.445312 322.800781 C 214.773438 322.800781 214.226562 322.257812 214.226562 321.585938 C 214.226562 320.914062 214.773438 320.367188 215.445312 320.367188 C 216.117188 320.367188 216.660156 320.917969 216.660156 321.585938 Z M 206.59375 309.65625 C 206.59375 310.328125 206.046875 310.875 205.378906 310.875 C 204.707031 310.875 204.160156 310.328125 204.160156 309.65625 C 204.160156 308.988281 204.707031 308.441406 205.378906 308.441406 C 206.050781 308.441406 206.59375 308.988281 206.59375 309.65625 Z M 212.460938 275.390625 C 212.460938 276.0625 211.914062 276.605469 211.242188 276.605469 C 210.570312 276.605469 210.027344 276.0625 210.027344 275.390625 C 210.027344 274.71875 210.574219 274.171875 211.242188 274.171875 C 211.910156 274.167969 212.460938 274.71875 212.460938 275.390625 Z M 225.257812 306.3125 C 225.257812 306.984375 224.714844 307.527344 224.042969 307.527344 C 223.371094 307.527344 222.824219 306.980469 222.824219 306.3125 C 222.824219 305.640625 223.371094 305.09375 224.042969 305.09375 C 224.710938 305.089844 225.257812 305.640625 225.257812 306.3125 Z M 217.90625 295.074219 C 217.90625 295.746094 217.363281 296.289062 216.691406 296.289062 C 216.019531 296.289062 215.472656 295.742188 215.472656 295.074219 C 215.472656 294.402344 216.019531 293.855469 216.691406 293.855469 C 217.363281 293.855469 217.90625 294.402344 217.90625 295.074219 Z M 287.308594 221.273438 C 287.980469 221.273438 288.523438 221.816406 288.523438 222.488281 C 288.523438 223.160156 287.980469 223.707031 287.308594 223.707031 C 286.636719 223.707031 286.089844 223.15625 286.089844 222.488281 C 286.085938 221.816406 286.636719 221.273438 287.308594 221.273438 Z M 299.070312 211.332031 C 299.742188 211.332031 300.289062 211.878906 300.289062 212.550781 C 300.289062 213.222656 299.742188 213.765625 299.070312 213.765625 C 298.398438 213.765625 297.855469 213.222656 297.855469 212.550781 C 297.855469 211.878906 298.398438 211.332031 299.070312 211.332031 Z M 318.167969 205.246094 C 318.839844 205.246094 319.386719 205.792969 319.386719 206.464844 C 319.386719 207.132812 318.835938 207.679688 318.167969 207.679688 C 317.496094 207.679688 316.953125 207.132812 316.953125 206.464844 C 316.949219 205.792969 317.496094 205.246094 318.167969 205.246094 Z M 284.566406 205.246094 C 285.238281 205.246094 285.785156 205.792969 285.785156 206.464844 C 285.785156 207.132812 285.238281 207.679688 284.566406 207.679688 C 283.894531 207.679688 283.351562 207.132812 283.351562 206.464844 C 283.347656 205.792969 283.894531 205.246094 284.566406 205.246094 Z M 231.921875 201.671875 C 231.777344 202.226562 231.632812 202.777344 231.476562 203.324219 C 231.253906 204.109375 231.023438 204.878906 230.785156 205.636719 C 230.605469 206.191406 230.421875 206.746094 230.234375 207.289062 C 225.378906 221.390625 216.699219 231.851562 204.300781 238.554688 C 203.753906 238.847656 203.203125 239.132812 202.644531 239.414062 C 201.886719 239.792969 201.117188 240.160156 200.335938 240.511719 C 199.792969 240.757812 199.238281 240.992188 198.683594 241.226562 C 197.925781 241.542969 197.15625 241.847656 196.375 242.140625 C 195.832031 242.34375 195.277344 242.542969 194.71875 242.734375 C 193.964844 242.996094 193.191406 243.246094 192.410156 243.488281 C 191.867188 243.65625 191.3125 243.820312 190.757812 243.976562 C 190.410156 244.074219 190.066406 244.167969 189.71875 244.261719 C 189.289062 244.136719 188.867188 244.007812 188.445312 243.875 C 187.890625 243.695312 187.339844 243.515625 186.796875 243.332031 C 186.011719 243.066406 185.242188 242.792969 184.484375 242.5 C 183.929688 242.289062 183.378906 242.070312 182.832031 241.847656 C 182.046875 241.527344 181.277344 241.195312 180.519531 240.851562 C 179.964844 240.597656 179.410156 240.335938 178.867188 240.066406 C 178.082031 239.683594 177.3125 239.285156 176.554688 238.875 C 175.996094 238.574219 175.445312 238.261719 174.902344 237.941406 C 163.292969 231.136719 155.003906 220.914062 150.117188 207.367188 C 149.921875 206.824219 149.730469 206.269531 149.546875 205.71875 C 149.292969 204.960938 149.050781 204.191406 148.816406 203.40625 C 148.652344 202.863281 148.492188 202.308594 148.339844 201.753906 C 148.132812 200.992188 147.929688 200.222656 147.742188 199.441406 C 147.609375 198.898438 147.480469 198.34375 147.355469 197.789062 C 147.242188 197.296875 147.140625 196.804688 147.035156 196.304688 C 146.976562 196.027344 146.925781 195.753906 146.867188 195.472656 C 146.761719 194.921875 146.65625 194.367188 146.558594 193.824219 C 146.421875 193.050781 146.296875 192.28125 146.183594 191.515625 C 146.101562 190.960938 146.023438 190.40625 145.949219 189.859375 C 145.847656 189.082031 145.757812 188.3125 145.675781 187.550781 C 145.613281 186.992188 145.558594 186.441406 145.511719 185.898438 C 145.441406 185.121094 145.378906 184.347656 145.328125 183.589844 C 145.289062 183.03125 145.257812 182.484375 145.226562 181.933594 C 145.1875 181.152344 145.160156 180.382812 145.132812 179.625 C 145.117188 179.0625 145.105469 178.515625 145.097656 177.96875 C 144.976562 170.011719 145.746094 163.839844 146.109375 161.398438 C 148.585938 162.132812 154.769531 163.6875 162.132812 163.460938 C 166.757812 163.320312 171.039062 162.492188 174.890625 160.992188 C 175.449219 160.777344 176 160.542969 176.542969 160.296875 C 176.742188 160.210938 176.933594 160.117188 177.125 160.027344 C 177.710938 159.742188 178.289062 159.445312 178.855469 159.128906 C 179.417969 158.8125 179.96875 158.484375 180.507812 158.136719 C 181.304688 157.625 182.074219 157.078125 182.820312 156.496094 C 183.382812 156.054688 183.9375 155.585938 184.472656 155.101562 C 185.28125 154.375 186.050781 153.605469 186.78125 152.78125 C 187.355469 152.144531 187.90625 151.484375 188.433594 150.789062 C 188.886719 150.199219 189.324219 149.589844 189.746094 148.960938 C 190.070312 149.398438 190.402344 149.824219 190.742188 150.246094 C 191.28125 150.910156 191.832031 151.546875 192.398438 152.167969 C 193.144531 152.976562 193.914062 153.75 194.707031 154.476562 C 195.25 154.972656 195.800781 155.445312 196.363281 155.90625 C 197.113281 156.515625 197.882812 157.089844 198.671875 157.625 C 199.214844 157.996094 199.765625 158.351562 200.324219 158.6875 C 201.078125 159.140625 201.847656 159.5625 202.632812 159.957031 C 202.847656 160.0625 203.058594 160.164062 203.277344 160.269531 C 203.613281 160.425781 203.949219 160.578125 204.289062 160.726562 C 208.527344 162.566406 213.191406 163.554688 218.160156 163.675781 C 225.210938 163.84375 230.941406 162.230469 233.308594 161.433594 C 233.726562 163.875 234.621094 170 234.671875 177.886719 C 234.675781 178.433594 234.675781 178.980469 234.664062 179.542969 C 234.660156 180.300781 234.644531 181.070312 234.621094 181.851562 C 234.605469 182.398438 234.585938 182.949219 234.554688 183.507812 C 234.519531 184.265625 234.476562 185.039062 234.421875 185.816406 C 234.382812 186.363281 234.34375 186.914062 234.292969 187.46875 C 234.226562 188.230469 234.148438 189 234.0625 189.777344 C 234.003906 190.324219 233.9375 190.878906 233.867188 191.433594 C 233.769531 192.199219 233.660156 192.96875 233.539062 193.742188 C 233.453125 194.289062 233.359375 194.84375 233.265625 195.398438 C 233.1875 195.835938 233.105469 196.273438 233.023438 196.710938 C 232.957031 197.039062 232.898438 197.363281 232.828125 197.6875 C 232.710938 198.242188 232.59375 198.792969 232.46875 199.335938 C 232.308594 200.132812 232.117188 200.90625 231.921875 201.671875 Z M 308.164062 199.378906 C 308.835938 199.378906 309.378906 199.921875 309.378906 200.59375 C 309.378906 201.265625 308.835938 201.808594 308.164062 201.808594 C 307.492188 201.808594 306.945312 201.261719 306.945312 200.59375 C 306.945312 199.921875 307.492188 199.378906 308.164062 199.378906 Z M 327.976562 192.035156 C 328.648438 192.035156 329.195312 192.578125 329.195312 193.25 C 329.195312 193.921875 328.648438 194.464844 327.976562 194.464844 C 327.304688 194.464844 326.761719 193.921875 326.761719 193.25 C 326.761719 192.578125 327.304688 192.035156 327.976562 192.035156 Z M 334.585938 187.859375 C 333.914062 187.859375 333.367188 187.316406 333.367188 186.644531 C 333.367188 185.972656 333.914062 185.425781 334.585938 185.425781 C 335.257812 185.425781 335.800781 185.972656 335.800781 186.644531 C 335.800781 187.316406 335.257812 187.859375 334.585938 187.859375 Z M 334.585938 187.859375 " fill-opacity="1" fill-rule="nonzero"/></g><g clip-path="url(#11b0f5fcf5)"><path fill="#0ad9fd" d="M 200.757812 66.171875 L 200.757812 82.386719 C 199.578125 82.746094 198.714844 83.84375 198.714844 85.136719 C 198.714844 86.71875 200 88.007812 201.585938 88.007812 C 203.167969 88.007812 204.457031 86.722656 204.457031 85.136719 C 204.457031 83.84375 203.59375 82.746094 202.414062 82.386719 L 202.414062 75.089844 L 210.714844 70.394531 L 210.714844 50.058594 C 211.894531 49.699219 212.757812 48.601562 212.757812 47.308594 C 212.757812 45.726562 211.472656 44.4375 209.886719 44.4375 C 208.300781 44.4375 207.015625 45.722656 207.015625 47.308594 C 207.015625 48.601562 207.878906 49.699219 209.058594 50.058594 L 209.058594 69.433594 L 202.414062 73.191406 L 202.414062 66.144531 C 203.566406 65.773438 204.40625 64.691406 204.40625 63.414062 C 204.40625 61.832031 203.121094 60.542969 201.535156 60.542969 C 199.953125 60.542969 198.664062 61.828125 198.664062 63.414062 C 198.664062 64.726562 199.554688 65.832031 200.757812 66.171875 Z M 208.671875 47.308594 C 208.671875 46.636719 209.214844 46.09375 209.886719 46.09375 C 210.558594 46.09375 211.101562 46.636719 211.101562 47.308594 C 211.101562 47.980469 210.558594 48.523438 209.886719 48.523438 C 209.214844 48.523438 208.671875 47.980469 208.671875 47.308594 Z M 202.800781 85.136719 C 202.800781 85.808594 202.257812 86.351562 201.585938 86.351562 C 200.914062 86.351562 200.367188 85.808594 200.367188 85.136719 C 200.367188 84.464844 200.914062 83.921875 201.585938 83.921875 C 202.253906 83.921875 202.800781 84.464844 202.800781 85.136719 Z M 201.535156 62.195312 C 202.207031 62.195312 202.753906 62.742188 202.753906 63.414062 C 202.753906 64.085938 202.207031 64.628906 201.535156 64.628906 C 200.863281 64.628906 200.320312 64.085938 200.320312 63.414062 C 200.320312 62.742188 200.863281 62.195312 201.535156 62.195312 Z M 201.535156 62.195312 " fill-opacity="1" fill-rule="nonzero"/></g></svg>