<svg xmlns="http://www.w3.org/2000/svg" xmlns:xlink="http://www.w3.org/1999/xlink" width="500" zoomAndPan="magnify" viewBox="0 0 375 374.999991" height="500" preserveAspectRatio="xMidYMid meet" version="1.0"><defs><clipPath id="6a7c3fcace"><path d="M 0 15 L 375 15 L 375 357.75 L 0 357.75 Z M 0 15 " clip-rule="nonzero"/></clipPath></defs><path fill="#0ad9fd" d="M 206.945312 179.582031 L 204.164062 179.582031 L 204.164062 173.269531 C 204.164062 165.59375 197.917969 159.351562 190.25 159.351562 C 182.574219 159.351562 176.335938 165.59375 176.335938 173.269531 L 176.335938 179.582031 L 173.132812 179.582031 C 172.816406 179.582031 172.496094 179.613281 172.1875 179.683594 C 170.125 180.125 168.628906 181.976562 168.628906 184.089844 L 168.628906 202.152344 C 168.628906 205.773438 169.539062 208.847656 171.332031 211.300781 C 172.660156 213.121094 174.480469 214.597656 176.742188 215.710938 C 180.160156 217.378906 184.632812 218.230469 190.042969 218.230469 C 196.347656 218.230469 201.359375 217.085938 204.9375 214.824219 C 209.261719 212.09375 211.460938 207.832031 211.460938 202.152344 L 211.460938 184.089844 C 211.453125 181.601562 209.433594 179.582031 206.945312 179.582031 Z M 180.953125 173.269531 C 180.953125 168.144531 185.125 163.972656 190.25 163.972656 C 195.375 163.972656 199.546875 168.144531 199.546875 173.269531 L 199.546875 179.582031 L 180.957031 179.582031 L 180.957031 173.269531 Z M 208.582031 202.148438 C 208.582031 210.90625 202.339844 215.351562 190.039062 215.351562 C 185.066406 215.351562 181.019531 214.605469 177.996094 213.125 C 176.160156 212.222656 174.695312 211.039062 173.644531 209.601562 C 172.21875 207.652344 171.496094 205.144531 171.496094 202.148438 L 171.496094 184.085938 C 171.496094 183.316406 172.039062 182.648438 172.785156 182.484375 C 172.898438 182.457031 173.015625 182.449219 173.132812 182.449219 L 206.949219 182.449219 C 207.855469 182.449219 208.585938 183.179688 208.585938 184.085938 L 208.585938 202.148438 Z M 208.582031 202.148438 " fill-opacity="1" fill-rule="nonzero"/><path fill="#0ad9fd" d="M 191.714844 198.097656 C 191.769531 198 191.816406 197.898438 191.839844 197.796875 L 193.335938 192.046875 C 193.472656 191.515625 193.136719 191.078125 192.589844 191.078125 L 187.90625 191.078125 C 187.355469 191.078125 187.019531 191.515625 187.15625 192.046875 L 188.652344 197.796875 C 188.675781 197.902344 188.722656 198.007812 188.78125 198.097656 C 187.785156 198.625 187.105469 199.671875 187.105469 200.875 C 187.105469 202.609375 188.507812 204.011719 190.246094 204.011719 C 191.980469 204.011719 193.382812 202.609375 193.382812 200.875 C 193.386719 199.671875 192.707031 198.625 191.714844 198.097656 Z M 191.714844 198.097656 " fill-opacity="1" fill-rule="nonzero"/><path fill="#0ad9fd" d="M 242.460938 149.949219 L 241.082031 150.277344 C 236.433594 151.382812 231.734375 151.941406 227.117188 151.941406 C 217.25 151.941406 203.042969 149.257812 191.40625 136.480469 L 190.4375 135.414062 L 189.507812 136.507812 C 181.050781 146.4375 168.777344 151.683594 154.011719 151.683594 C 149.347656 151.683594 144.363281 151.140625 139.582031 150.117188 L 138.199219 149.820312 L 138.054688 151.226562 C 137.285156 158.71875 136.5 173.652344 139.796875 189.496094 C 142.554688 202.757812 147.59375 214.113281 154.769531 223.261719 C 163.390625 234.246094 175.234375 242.128906 189.960938 246.683594 L 190.320312 246.796875 L 190.679688 246.695312 C 205.871094 242.410156 217.992188 234.699219 226.710938 223.785156 C 233.957031 214.710938 238.953125 203.363281 241.558594 190.039062 C 244.679688 174.078125 243.570312 158.949219 242.632812 151.355469 Z M 239.070312 189.554688 C 236.546875 202.46875 231.71875 213.457031 224.730469 222.207031 C 216.414062 232.613281 204.851562 239.996094 190.351562 244.160156 C 176.289062 239.742188 164.988281 232.191406 156.761719 221.703125 C 149.828125 212.867188 144.957031 201.859375 142.273438 188.992188 C 139.238281 174.40625 139.746094 160.59375 140.441406 152.886719 C 144.996094 153.773438 149.558594 154.222656 154.019531 154.222656 C 161.777344 154.222656 168.902344 152.851562 175.191406 150.152344 C 181.058594 147.632812 186.203125 143.964844 190.5 139.222656 C 202.570312 151.800781 217.007812 154.480469 227.117188 154.480469 C 231.472656 154.480469 235.894531 154.003906 240.285156 153.0625 C 241.148438 160.859375 241.941406 174.855469 239.070312 189.554688 Z M 239.070312 189.554688 " fill-opacity="1" fill-rule="nonzero"/><g clip-path="url(#6a7c3fcace)"><path fill="#0ad9fd" d="M 371.355469 174.175781 C 369.738281 174.175781 368.367188 175.253906 367.921875 176.730469 L 353.203125 176.730469 L 345.769531 184.988281 L 333.722656 184.988281 L 327.21875 194.167969 L 318.035156 194.167969 L 312.433594 187.054688 L 318.414062 187.054688 C 318.859375 188.53125 320.230469 189.609375 321.847656 189.609375 C 323.824219 189.609375 325.4375 188.003906 325.4375 186.019531 C 325.4375 184.039062 323.832031 182.433594 321.847656 182.433594 C 320.230469 182.433594 318.859375 183.511719 318.414062 184.988281 L 302.429688 184.988281 L 294.324219 196.546875 L 268.464844 196.546875 L 261.6875 191.589844 L 246.75 191.570312 C 246.804688 191.300781 246.855469 191.027344 246.90625 190.75 C 247.042969 190.066406 247.164062 189.378906 247.28125 188.703125 L 262.015625 188.703125 L 269.757812 194.277344 L 292.261719 194.277344 L 304.980469 175.351562 L 318.414062 175.351562 C 318.859375 176.828125 320.230469 177.90625 321.847656 177.90625 C 323.824219 177.90625 325.4375 176.300781 325.4375 174.316406 C 325.4375 172.335938 323.832031 170.730469 321.847656 170.730469 C 320.230469 170.730469 318.859375 171.808594 318.414062 173.285156 L 303.878906 173.285156 L 291.160156 192.210938 L 270.425781 192.210938 L 262.6875 186.636719 L 247.628906 186.636719 C 247.777344 185.667969 247.910156 184.699219 248.035156 183.746094 L 265.28125 183.746094 L 269.960938 186.429688 L 276.582031 186.429688 C 277.027344 187.90625 278.398438 188.984375 280.015625 188.984375 C 281.996094 188.984375 283.605469 187.378906 283.605469 185.398438 C 283.605469 183.421875 281.996094 181.808594 280.015625 181.808594 C 278.398438 181.808594 277.027344 182.882812 276.582031 184.363281 L 270.515625 184.363281 L 265.835938 181.679688 L 248.28125 181.679688 C 248.386719 180.707031 248.480469 179.746094 248.5625 178.792969 L 292.1875 178.792969 L 304.304688 160.613281 L 312.679688 160.613281 L 317.636719 167.339844 L 327.839844 167.339844 L 333.515625 175.347656 L 345.660156 175.347656 L 349.785156 168.886719 L 364.75 168.886719 C 365.175781 170.394531 366.558594 171.511719 368.207031 171.511719 C 370.183594 171.511719 371.796875 169.90625 371.796875 167.921875 C 371.796875 165.945312 370.1875 164.335938 368.207031 164.335938 C 366.613281 164.335938 365.257812 165.378906 364.792969 166.816406 L 348.65625 166.816406 L 344.523438 173.285156 L 334.582031 173.285156 L 330.367188 167.34375 L 334.886719 167.34375 C 335.332031 168.820312 336.707031 169.898438 338.324219 169.898438 C 340.304688 169.898438 341.914062 168.285156 341.914062 166.3125 C 341.914062 164.335938 340.304688 162.722656 338.324219 162.722656 C 336.707031 162.722656 335.332031 163.800781 334.886719 165.277344 L 318.675781 165.277344 L 315.238281 160.617188 L 325.351562 160.617188 C 325.796875 162.09375 327.167969 163.171875 328.785156 163.171875 C 330.761719 163.171875 332.375 161.566406 332.375 159.582031 C 332.375 157.605469 330.765625 155.996094 328.785156 155.996094 C 327.167969 155.996094 325.796875 157.070312 325.351562 158.550781 L 303.191406 158.550781 L 291.074219 176.730469 L 248.714844 176.730469 C 248.785156 175.75 248.839844 174.789062 248.882812 173.839844 L 286.105469 173.839844 L 299.855469 152.3125 L 336.820312 152.3125 L 341.667969 159.152344 L 357.722656 159.152344 C 358.167969 160.628906 359.539062 161.707031 361.15625 161.707031 C 363.132812 161.707031 364.746094 160.101562 364.746094 158.117188 C 364.746094 156.144531 363.136719 154.53125 361.15625 154.53125 C 359.539062 154.53125 358.167969 155.605469 357.722656 157.085938 L 342.730469 157.085938 L 337.882812 150.246094 L 322.554688 150.246094 L 325.996094 143.792969 L 343.074219 143.792969 C 343.519531 145.269531 344.890625 146.347656 346.511719 146.347656 C 348.484375 146.347656 350.097656 144.742188 350.097656 142.761719 C 350.097656 140.785156 348.492188 139.171875 346.511719 139.171875 C 344.890625 139.171875 343.519531 140.246094 343.074219 141.726562 L 334.945312 141.726562 L 338.917969 134.859375 L 359.65625 134.859375 C 360.101562 136.335938 361.476562 137.414062 363.09375 137.414062 C 365.074219 137.414062 366.679688 135.808594 366.679688 133.828125 C 366.679688 131.851562 365.074219 130.238281 363.09375 130.238281 C 361.476562 130.238281 360.101562 131.3125 359.65625 132.792969 L 337.726562 132.792969 L 332.554688 141.722656 L 324.757812 141.722656 L 320.214844 150.238281 L 301.171875 150.238281 L 303.75 146.207031 C 304.058594 146.292969 304.386719 146.34375 304.71875 146.34375 C 306.695312 146.34375 308.308594 144.738281 308.308594 142.753906 C 308.308594 140.777344 306.699219 139.167969 304.71875 139.167969 C 302.738281 139.167969 301.128906 140.773438 301.128906 142.753906 C 301.128906 143.652344 301.460938 144.464844 302.003906 145.09375 L 284.96875 171.769531 L 248.957031 171.769531 C 248.988281 170.785156 249.007812 169.824219 249.011719 168.878906 L 279.8125 168.878906 L 290.070312 153.019531 C 290.382812 153.105469 290.710938 153.15625 291.054688 153.15625 C 293.03125 153.15625 294.644531 151.550781 294.644531 149.570312 C 294.644531 147.589844 293.035156 145.980469 291.054688 145.980469 C 289.074219 145.980469 287.464844 147.589844 287.464844 149.570312 C 287.464844 150.460938 287.792969 151.273438 288.335938 151.902344 L 278.691406 166.8125 L 249.023438 166.8125 C 249.007812 163.664062 248.882812 160.8125 248.726562 158.371094 C 248.167969 149.914062 247.046875 144.511719 247 144.289062 L 246.6875 142.804688 L 245.285156 143.375 C 245.203125 143.410156 236.765625 146.773438 225.90625 146.519531 C 219.546875 146.371094 213.738281 145.0625 208.503906 142.621094 L 208.503906 123.601562 L 229.425781 112.179688 L 229.425781 102.265625 C 230.898438 101.820312 231.980469 100.445312 231.980469 98.828125 C 231.980469 97.210938 230.898438 95.839844 229.425781 95.394531 L 229.425781 58.953125 C 230.898438 58.507812 231.980469 57.132812 231.980469 55.515625 C 231.980469 53.539062 230.371094 51.929688 228.390625 51.929688 C 226.410156 51.929688 224.800781 53.535156 224.800781 55.515625 C 224.800781 57.132812 225.882812 58.507812 227.355469 58.953125 L 227.355469 95.394531 C 225.882812 95.839844 224.800781 97.210938 224.800781 98.828125 C 224.800781 100.445312 225.882812 101.820312 227.355469 102.265625 L 227.355469 110.957031 L 206.4375 122.378906 L 206.4375 141.582031 C 205.453125 141.050781 204.492188 140.476562 203.550781 139.859375 L 203.550781 117.25 L 211.859375 112.375 C 212.503906 113 213.378906 113.382812 214.347656 113.382812 C 216.328125 113.382812 217.9375 111.777344 217.9375 109.796875 C 217.9375 108.175781 216.855469 106.804688 215.382812 106.359375 L 215.382812 91.183594 L 222.777344 86.535156 L 222.777344 64.96875 C 224.253906 64.523438 225.332031 63.152344 225.332031 61.53125 C 225.332031 59.554688 223.726562 57.945312 221.746094 57.945312 C 219.769531 57.945312 218.15625 59.550781 218.15625 61.53125 C 218.15625 63.152344 219.238281 64.523438 220.710938 64.96875 L 220.710938 70.257812 L 214.660156 65.617188 L 214.660156 50.910156 L 231.34375 41.671875 L 231.34375 29.058594 C 232.820312 28.613281 233.898438 27.242188 233.898438 25.625 C 233.898438 23.648438 232.292969 22.035156 230.308594 22.035156 C 228.328125 22.035156 226.722656 23.640625 226.722656 25.625 C 226.722656 27.242188 227.800781 28.613281 229.277344 29.058594 L 229.277344 40.457031 L 214.660156 48.550781 L 214.660156 40.902344 L 223.527344 35.902344 L 223.527344 22.265625 C 224.949219 21.789062 225.984375 20.441406 225.984375 18.859375 C 225.984375 16.882812 224.375 15.273438 222.394531 15.273438 C 220.417969 15.273438 218.804688 16.878906 218.804688 18.859375 C 218.804688 20.515625 219.933594 21.90625 221.457031 22.320312 L 221.457031 34.695312 L 212.589844 39.691406 L 212.589844 66.636719 L 220.710938 72.863281 L 220.710938 85.40625 L 215.382812 88.753906 L 215.382812 80.003906 C 216.855469 79.558594 217.9375 78.1875 217.9375 76.570312 C 217.9375 74.59375 216.328125 72.980469 214.347656 72.980469 C 212.371094 72.980469 210.757812 74.585938 210.757812 76.570312 C 210.757812 78.1875 211.839844 79.558594 213.3125 80.003906 L 213.3125 106.363281 C 211.839844 106.808594 210.757812 108.183594 210.757812 109.800781 C 210.757812 110.066406 210.789062 110.328125 210.84375 110.578125 L 203.550781 114.859375 L 203.550781 98.6875 C 205.023438 98.242188 206.105469 96.867188 206.105469 95.25 C 206.105469 93.273438 204.496094 91.660156 202.515625 91.660156 C 200.539062 91.660156 198.925781 93.269531 198.925781 95.25 C 198.925781 96.867188 200.007812 98.242188 201.480469 98.6875 L 201.480469 138.410156 C 200.492188 137.671875 199.53125 136.878906 198.59375 136.035156 L 198.59375 91.222656 L 205.613281 85.628906 L 205.613281 67.523438 C 207.085938 67.078125 208.167969 65.707031 208.167969 64.085938 C 208.167969 62.105469 206.558594 60.5 204.578125 60.5 C 202.597656 60.5 200.988281 62.105469 200.988281 64.085938 C 200.988281 65.707031 202.070312 67.078125 203.542969 67.523438 L 203.542969 74.050781 L 195.113281 67.421875 L 195.113281 49.53125 C 196.585938 49.085938 197.667969 47.714844 197.667969 46.097656 C 197.667969 44.121094 196.058594 42.507812 194.078125 42.507812 C 192.097656 42.507812 190.488281 44.117188 190.488281 46.097656 C 190.488281 47.714844 191.570312 49.085938 193.042969 49.53125 L 193.042969 68.417969 L 203.542969 76.675781 L 203.542969 84.632812 L 196.527344 90.222656 L 196.527344 134.042969 C 195.527344 133.023438 194.566406 131.9375 193.636719 130.789062 L 193.636719 86.316406 C 195.113281 85.871094 196.191406 84.5 196.191406 82.882812 C 196.191406 80.898438 194.585938 79.292969 192.605469 79.292969 C 190.628906 79.292969 189.015625 80.898438 189.015625 82.882812 C 189.015625 84.5 190.089844 85.871094 191.570312 86.316406 L 191.570312 93.335938 L 185.378906 88.363281 L 185.378906 64.984375 C 186.902344 64.570312 188.015625 63.175781 188.015625 61.527344 C 188.015625 59.550781 186.410156 57.9375 184.429688 57.9375 C 182.445312 57.9375 180.839844 59.546875 180.839844 61.527344 C 180.839844 63.113281 181.878906 64.464844 183.3125 64.9375 L 183.3125 89.359375 L 191.570312 95.992188 L 191.570312 128.074219 C 191.476562 127.945312 191.386719 127.816406 191.296875 127.683594 L 190.1875 126.089844 L 189.175781 127.75 C 189.011719 128.015625 188.847656 128.277344 188.675781 128.539062 L 188.675781 107.417969 L 181.730469 102.644531 C 181.832031 102.308594 181.890625 101.953125 181.890625 101.582031 C 181.890625 99.601562 180.28125 97.996094 178.300781 97.996094 C 176.324219 97.996094 174.710938 99.601562 174.710938 101.582031 C 174.710938 103.558594 176.320312 105.171875 178.300781 105.171875 C 179.164062 105.171875 179.953125 104.863281 180.574219 104.359375 L 186.609375 108.503906 L 186.609375 131.488281 C 185.699219 132.675781 184.734375 133.789062 183.722656 134.835938 L 183.722656 114.488281 L 171.441406 107.195312 L 171.441406 94.074219 L 178.175781 90.175781 L 178.175781 50.980469 L 186.285156 47.484375 L 186.203125 25.507812 C 187.71875 25.085938 188.839844 23.699219 188.839844 22.050781 C 188.839844 20.074219 187.234375 18.460938 185.253906 18.460938 C 183.269531 18.460938 181.664062 20.070312 181.664062 22.050781 C 181.664062 23.636719 182.703125 24.988281 184.140625 25.460938 L 184.21875 46.121094 L 178.175781 48.726562 L 178.175781 37.832031 C 179.652344 37.386719 180.730469 36.015625 180.730469 34.398438 C 180.730469 32.417969 179.125 30.808594 177.144531 30.808594 C 175.167969 30.808594 173.554688 32.417969 173.554688 34.398438 C 173.554688 36.015625 174.632812 37.386719 176.109375 37.832031 L 176.109375 88.996094 L 171.441406 91.691406 L 171.441406 52.792969 C 172.914062 52.347656 173.996094 50.976562 173.996094 49.359375 C 173.996094 47.375 172.386719 45.769531 170.40625 45.769531 C 168.429688 45.769531 166.816406 47.375 166.816406 49.359375 C 166.816406 50.976562 167.898438 52.347656 169.371094 52.792969 L 169.371094 59.542969 L 161.554688 54.039062 L 161.554688 27.726562 C 163.027344 27.28125 164.109375 25.910156 164.109375 24.292969 C 164.109375 22.316406 162.496094 20.703125 160.519531 20.703125 C 158.539062 20.703125 156.929688 22.3125 156.929688 24.292969 C 156.929688 25.910156 158.011719 27.28125 159.484375 27.726562 L 159.484375 55.109375 L 169.367188 62.070312 L 169.367188 108.378906 L 181.648438 115.671875 L 181.648438 136.816406 C 180.722656 137.628906 179.757812 138.398438 178.761719 139.109375 L 178.761719 118.753906 L 164.101562 110.359375 L 164.101562 87.269531 C 165.578125 86.824219 166.65625 85.453125 166.65625 83.832031 C 166.65625 81.859375 165.050781 80.246094 163.070312 80.246094 C 161.085938 80.246094 159.480469 81.851562 159.480469 83.832031 C 159.480469 85.453125 160.558594 86.824219 162.035156 87.269531 L 162.035156 111.554688 L 176.691406 119.953125 L 176.691406 140.476562 C 175.761719 141.050781 174.796875 141.582031 173.804688 142.070312 L 173.804688 122.746094 L 157.289062 113.25 L 157.289062 71.355469 C 158.761719 70.910156 159.84375 69.539062 159.84375 67.921875 C 159.84375 65.941406 158.234375 64.332031 156.253906 64.332031 C 154.273438 64.332031 152.664062 65.941406 152.664062 67.921875 C 152.664062 69.539062 153.746094 70.910156 155.21875 71.355469 L 155.21875 114.449219 L 171.738281 123.945312 L 171.738281 143.011719 C 167.011719 144.988281 161.6875 146.074219 155.789062 146.261719 C 144.519531 146.625 135.257812 143.40625 135.167969 143.371094 L 133.773438 142.875 L 133.503906 144.328125 C 133.460938 144.546875 132.480469 149.867188 132.089844 158.222656 C 131.972656 160.726562 131.90625 163.667969 131.960938 166.925781 L 115.359375 166.925781 L 86.285156 143.40625 C 86.503906 142.941406 86.632812 142.421875 86.632812 141.875 C 86.632812 139.898438 85.027344 138.285156 83.042969 138.285156 C 81.0625 138.285156 79.457031 139.894531 79.457031 141.875 C 79.457031 143.851562 81.0625 145.464844 83.042969 145.464844 C 83.71875 145.464844 84.355469 145.269531 84.898438 144.941406 L 94.046875 152.34375 L 84.261719 152.34375 C 83.816406 150.871094 82.445312 149.789062 80.828125 149.789062 C 78.847656 149.789062 77.238281 151.398438 77.238281 153.378906 C 77.238281 155.355469 78.847656 156.96875 80.828125 156.96875 C 82.445312 156.96875 83.816406 155.890625 84.261719 154.414062 L 96.601562 154.414062 L 114.628906 168.992188 L 132.007812 168.992188 C 132.039062 169.933594 132.074219 170.898438 132.125 171.878906 L 109.003906 171.878906 L 97.992188 163.679688 C 98.1875 163.238281 98.296875 162.757812 98.296875 162.246094 C 98.296875 160.269531 96.6875 158.65625 94.707031 158.65625 C 92.726562 158.65625 91.117188 160.269531 91.117188 162.246094 C 91.117188 164.226562 92.726562 165.835938 94.707031 165.835938 C 95.421875 165.835938 96.089844 165.621094 96.652344 165.257812 L 105.546875 171.875 L 94.085938 171.875 L 82.5 163.765625 L 77.511719 163.765625 L 70.765625 153.300781 L 66.386719 153.300781 L 59.902344 142.488281 L 51.460938 142.488281 L 45.902344 134.03125 C 46.4375 133.40625 46.773438 132.585938 46.773438 131.695312 C 46.773438 129.714844 45.164062 128.109375 43.183594 128.109375 C 41.207031 128.109375 39.59375 129.714844 39.59375 131.695312 C 39.59375 133.671875 41.203125 135.285156 43.183594 135.285156 C 43.519531 135.285156 43.847656 135.234375 44.160156 135.148438 L 49 142.484375 L 27.09375 142.484375 C 26.648438 141.007812 25.273438 139.929688 23.65625 139.929688 C 21.675781 139.929688 20.066406 141.535156 20.066406 143.519531 C 20.066406 145.496094 21.675781 147.105469 23.65625 147.105469 C 25.273438 147.105469 26.648438 146.027344 27.09375 144.550781 L 58.746094 144.550781 L 63.988281 153.300781 L 46.328125 153.300781 C 45.882812 151.828125 44.507812 150.746094 42.890625 150.746094 C 40.910156 150.746094 39.300781 152.355469 39.300781 154.335938 C 39.300781 156.316406 40.910156 157.925781 42.890625 157.925781 C 44.507812 157.925781 45.882812 156.84375 46.328125 155.371094 L 56.949219 155.371094 L 51.472656 161.210938 L 25.132812 161.210938 C 24.6875 159.738281 23.3125 158.65625 21.695312 158.65625 C 19.71875 158.65625 18.105469 160.269531 18.105469 162.246094 C 18.105469 164.226562 19.714844 165.835938 21.695312 165.835938 C 23.3125 165.835938 24.6875 164.753906 25.132812 163.28125 L 52.363281 163.28125 L 59.78125 155.371094 L 69.65625 155.371094 L 75.066406 163.765625 L 68.546875 163.765625 C 68.101562 162.292969 66.726562 161.210938 65.109375 161.210938 C 63.132812 161.210938 61.523438 162.820312 61.523438 164.800781 C 61.523438 166.777344 63.128906 168.390625 65.109375 168.390625 C 66.726562 168.390625 68.101562 167.3125 68.546875 165.835938 L 81.867188 165.835938 L 93.453125 173.945312 L 132.265625 173.945312 C 132.324219 174.890625 132.402344 175.855469 132.488281 176.832031 L 85.113281 176.832031 L 79.523438 173.113281 L 58.890625 173.113281 C 58.394531 171.726562 57.066406 170.730469 55.511719 170.730469 C 53.535156 170.730469 51.921875 172.335938 51.921875 174.316406 C 51.921875 176.292969 53.53125 177.90625 55.511719 177.90625 C 57.191406 177.90625 58.597656 176.746094 58.992188 175.183594 L 65.605469 175.183594 L 60.6875 181.789062 L 49.550781 181.789062 L 40.949219 169.679688 L 14.949219 169.679688 C 14.503906 168.203125 13.132812 167.125 11.511719 167.125 C 9.535156 167.125 7.925781 168.730469 7.925781 170.714844 C 7.925781 172.691406 9.535156 174.300781 11.511719 174.300781 C 13.132812 174.300781 14.503906 173.222656 14.949219 171.746094 L 26.488281 171.746094 L 21.703125 180.753906 L 7.070312 180.753906 C 6.625 179.277344 5.253906 178.199219 3.632812 178.199219 C 1.65625 178.199219 0.046875 179.804688 0.046875 181.789062 C 0.046875 183.761719 1.652344 185.375 3.632812 185.375 C 5.253906 185.375 6.625 184.300781 7.070312 182.820312 L 22.949219 182.820312 L 28.832031 171.746094 L 39.882812 171.746094 L 47.011719 181.789062 L 39.445312 181.789062 C 39 180.3125 37.628906 179.234375 36.011719 179.234375 C 34.035156 179.234375 32.421875 180.839844 32.421875 182.820312 C 32.421875 184.796875 34.03125 186.410156 36.011719 186.410156 C 37.628906 186.410156 39 185.335938 39.445312 183.855469 L 61.722656 183.855469 L 68.183594 175.183594 L 78.898438 175.183594 L 84.488281 178.898438 L 132.6875 178.898438 C 132.785156 179.851562 132.90625 180.816406 133.027344 181.789062 L 77.660156 181.789062 C 77.273438 180.222656 75.863281 179.054688 74.175781 179.054688 C 72.203125 179.054688 70.589844 180.660156 70.589844 182.640625 C 70.589844 184.617188 72.203125 186.230469 74.175781 186.230469 C 75.730469 186.230469 77.050781 185.238281 77.546875 183.855469 L 133.308594 183.855469 C 133.445312 184.808594 133.601562 185.777344 133.765625 186.742188 L 85.167969 186.742188 L 79.554688 192.921875 L 62.761719 193.515625 C 62.304688 192.058594 60.941406 190.992188 59.335938 190.992188 C 57.355469 190.992188 55.746094 192.601562 55.746094 194.582031 C 55.746094 196.558594 57.355469 198.171875 59.335938 198.171875 C 60.964844 198.171875 62.347656 197.074219 62.777344 195.585938 L 80.496094 194.960938 L 86.085938 188.8125 L 93.058594 188.8125 L 89.691406 193.710938 C 89.351562 193.609375 89 193.550781 88.628906 193.550781 C 86.652344 193.550781 85.042969 195.160156 85.042969 197.140625 C 85.042969 199.121094 86.648438 200.730469 88.628906 200.730469 C 90.609375 200.730469 92.21875 199.121094 92.21875 197.140625 C 92.21875 196.28125 91.910156 195.488281 91.40625 194.867188 L 95.566406 188.8125 L 134.148438 188.8125 C 134.242188 189.304688 134.339844 189.792969 134.441406 190.285156 C 134.539062 190.761719 134.640625 191.234375 134.738281 191.699219 L 101.558594 191.699219 L 94.261719 203.980469 L 80.761719 203.980469 L 77.265625 199.101562 L 52.761719 199.101562 L 48.425781 193.550781 L 29.089844 193.550781 C 28.644531 192.078125 27.269531 190.996094 25.652344 190.996094 C 23.675781 190.996094 22.066406 192.605469 22.066406 194.585938 C 22.066406 196.5625 23.671875 198.175781 25.652344 198.175781 C 27.269531 198.175781 28.644531 197.09375 29.089844 195.621094 L 47.417969 195.621094 L 51.753906 201.175781 L 76.199219 201.175781 L 78.214844 203.992188 L 44.804688 203.992188 C 44.359375 202.515625 42.988281 201.4375 41.371094 201.4375 C 39.390625 201.4375 37.78125 203.042969 37.78125 205.027344 C 37.78125 207 39.390625 208.613281 41.371094 208.613281 C 42.988281 208.613281 44.359375 207.535156 44.804688 206.058594 L 55.351562 206.058594 L 48.027344 213.027344 L 26.535156 213.027344 C 26.089844 211.550781 24.714844 210.472656 23.097656 210.472656 C 21.121094 210.472656 19.511719 212.078125 19.511719 214.0625 C 19.511719 216.039062 21.117188 217.648438 23.097656 217.648438 C 24.714844 217.648438 26.089844 216.574219 26.535156 215.09375 L 48.855469 215.09375 L 58.351562 206.042969 L 95.4375 206.042969 L 102.734375 193.761719 L 135.207031 193.761719 C 135.445312 194.734375 135.683594 195.699219 135.945312 196.648438 L 105.8125 196.648438 L 97.414062 211.308594 L 78.9375 211.308594 C 78.492188 209.832031 77.121094 208.753906 75.503906 208.753906 C 73.523438 208.753906 71.914062 210.359375 71.914062 212.339844 C 71.914062 214.316406 73.523438 215.929688 75.503906 215.929688 C 77.121094 215.929688 78.492188 214.851562 78.9375 213.375 L 98.613281 213.375 L 107.007812 198.71875 L 136.523438 198.71875 C 136.8125 199.691406 137.109375 200.652344 137.421875 201.605469 L 109.390625 201.605469 L 99.894531 218.121094 L 62.765625 218.121094 C 62.320312 216.648438 60.949219 215.566406 59.332031 215.566406 C 57.347656 215.566406 55.742188 217.175781 55.742188 219.15625 C 55.742188 221.132812 57.347656 222.746094 59.332031 222.746094 C 60.949219 222.746094 62.320312 221.667969 62.765625 220.191406 L 80.273438 220.191406 L 76.507812 227.382812 L 43.230469 227.382812 C 42.785156 225.90625 41.410156 224.828125 39.792969 224.828125 C 37.816406 224.828125 36.207031 226.433594 36.207031 228.417969 C 36.207031 230.398438 37.8125 232.003906 39.792969 232.003906 C 41.410156 232.003906 42.785156 230.925781 43.230469 229.449219 L 77.761719 229.449219 L 82.609375 220.191406 L 101.085938 220.191406 L 110.582031 203.671875 L 138.121094 203.671875 C 141.148438 212.234375 145.253906 219.863281 150.398438 226.457031 C 156.207031 233.90625 163.355469 240.027344 171.761719 244.769531 L 171.761719 257.679688 L 150.84375 269.101562 L 150.84375 293.789062 C 149.367188 294.234375 148.289062 295.605469 148.289062 297.222656 C 148.289062 299.207031 149.894531 300.8125 151.878906 300.8125 C 153.859375 300.8125 155.464844 299.207031 155.464844 297.222656 C 155.464844 295.605469 154.390625 294.234375 152.910156 293.789062 L 152.910156 270.332031 L 173.832031 258.910156 L 173.832031 245.894531 C 174.777344 246.390625 175.742188 246.871094 176.71875 247.339844 L 176.71875 264.035156 L 166.8125 269.851562 L 166.8125 274.75 L 158.71875 278.445312 L 158.71875 306.003906 C 157.242188 306.449219 156.164062 307.820312 156.164062 309.441406 C 156.164062 311.414062 157.769531 313.027344 159.75 313.027344 C 161.726562 313.027344 163.339844 311.414062 163.339844 309.441406 C 163.339844 307.820312 162.265625 306.449219 160.785156 306.003906 L 160.785156 279.777344 L 166.8125 277.023438 L 166.8125 285.070312 C 165.335938 285.515625 164.257812 286.886719 164.257812 288.503906 C 164.257812 290.488281 165.871094 292.09375 167.847656 292.09375 C 169.828125 292.09375 171.433594 290.488281 171.433594 288.503906 C 171.433594 286.886719 170.355469 285.515625 168.878906 285.070312 L 168.878906 271.03125 L 176.722656 266.429688 L 176.722656 285.925781 L 171.765625 293.480469 L 171.765625 310.21875 L 165.738281 316.84375 L 165.738281 333.207031 C 164.261719 333.652344 163.183594 335.023438 163.183594 336.640625 C 163.183594 338.617188 164.789062 340.230469 166.769531 340.230469 C 168.746094 340.230469 170.359375 338.621094 170.359375 336.640625 C 170.359375 335.023438 169.28125 333.652344 167.804688 333.207031 L 167.804688 317.640625 L 173.835938 311.015625 L 173.835938 294.097656 L 178.792969 286.539062 L 178.792969 248.28125 C 179.738281 248.699219 180.703125 249.105469 181.679688 249.496094 L 181.679688 288.1875 L 177.960938 293.777344 L 177.960938 314.386719 C 176.539062 314.863281 175.503906 316.203125 175.503906 317.785156 C 175.503906 319.765625 177.113281 321.375 179.09375 321.375 C 181.074219 321.375 182.683594 319.765625 182.683594 317.785156 C 182.683594 316.132812 181.554688 314.738281 180.03125 314.324219 L 180.03125 294.402344 L 183.746094 288.8125 L 183.746094 250.289062 C 184.699219 250.640625 185.664062 250.972656 186.636719 251.296875 L 186.636719 321.398438 L 177.960938 329.765625 L 177.960938 350.613281 C 176.488281 351.058594 175.40625 352.429688 175.40625 354.046875 C 175.40625 356.027344 177.015625 357.636719 178.996094 357.636719 C 180.972656 357.636719 182.585938 356.027344 182.585938 354.046875 C 182.585938 352.429688 181.503906 351.058594 180.03125 350.613281 L 180.03125 330.644531 L 186.636719 324.277344 L 186.636719 339.046875 C 185.160156 339.492188 184.082031 340.863281 184.082031 342.480469 C 184.082031 344.464844 185.6875 346.070312 187.667969 346.070312 C 189.648438 346.070312 191.257812 344.464844 191.257812 342.480469 C 191.257812 340.863281 190.175781 339.492188 188.703125 339.046875 L 188.703125 251.960938 C 189.109375 252.085938 189.515625 252.207031 189.925781 252.324219 L 190.265625 252.421875 L 190.609375 252.332031 C 190.941406 252.242188 191.269531 252.15625 191.597656 252.0625 L 191.597656 273.878906 L 199.019531 278.984375 L 199.019531 284.097656 L 192.421875 289.070312 L 192.421875 307.375 L 199.019531 310.421875 L 199.019531 321.363281 C 197.542969 321.808594 196.464844 323.179688 196.464844 324.796875 C 196.464844 326.78125 198.070312 328.386719 200.054688 328.386719 C 202.03125 328.386719 203.640625 326.78125 203.640625 324.796875 C 203.640625 323.179688 202.5625 321.808594 201.085938 321.363281 L 201.085938 309.101562 L 194.488281 306.054688 L 194.488281 290.097656 L 199.019531 286.683594 L 199.019531 292.386719 C 197.542969 292.832031 196.464844 294.203125 196.464844 295.820312 C 196.464844 297.796875 198.070312 299.410156 200.054688 299.410156 C 202.03125 299.410156 203.640625 297.804688 203.640625 295.820312 C 203.640625 294.203125 202.5625 292.832031 201.085938 292.386719 L 201.085938 277.898438 L 193.664062 272.792969 L 193.664062 251.46875 C 194.636719 251.179688 195.597656 250.871094 196.550781 250.554688 L 196.550781 266.804688 L 208.832031 274.097656 L 208.832031 328.105469 C 207.359375 328.550781 206.277344 329.921875 206.277344 331.542969 C 206.277344 333.523438 207.886719 335.128906 209.867188 335.128906 C 211.84375 335.128906 213.457031 333.523438 213.457031 331.542969 C 213.457031 329.921875 212.382812 328.550781 210.902344 328.105469 L 210.902344 301.488281 L 216.164062 304.21875 L 216.164062 320.835938 L 221.421875 325.285156 L 221.421875 343.019531 C 219.949219 343.464844 218.867188 344.835938 218.867188 346.453125 C 218.867188 348.4375 220.476562 350.042969 222.457031 350.042969 C 224.433594 350.042969 226.046875 348.4375 226.046875 346.453125 C 226.046875 344.835938 224.964844 343.464844 223.492188 343.019531 L 223.492188 324.328125 L 218.234375 319.878906 L 218.234375 302.964844 L 210.90625 299.160156 L 210.90625 272.921875 L 198.625 265.625 L 198.625 249.832031 C 199.601562 249.480469 200.566406 249.105469 201.511719 248.726562 L 201.511719 262.550781 L 216.171875 270.945312 L 216.171875 285.269531 C 214.695312 285.714844 213.617188 287.085938 213.617188 288.707031 C 213.617188 290.683594 215.222656 292.292969 217.203125 292.292969 C 219.1875 292.292969 220.792969 290.6875 220.792969 288.707031 C 220.792969 287.085938 219.714844 285.714844 218.238281 285.269531 L 218.238281 269.746094 L 203.582031 261.351562 L 203.582031 247.839844 C 204.558594 247.414062 205.519531 246.96875 206.46875 246.507812 L 206.46875 261.019531 L 222.984375 270.515625 L 222.984375 309.859375 C 221.511719 310.304688 220.429688 311.675781 220.429688 313.292969 C 220.429688 315.269531 222.039062 316.882812 224.019531 316.882812 C 225.996094 316.882812 227.605469 315.277344 227.605469 313.292969 C 227.605469 311.675781 226.527344 310.304688 225.050781 309.859375 L 225.050781 299.046875 L 232.175781 303.347656 L 232.175781 323.902344 C 230.699219 324.347656 229.621094 325.71875 229.621094 327.339844 C 229.621094 329.3125 231.226562 330.925781 233.207031 330.925781 C 235.191406 330.925781 236.796875 329.320312 236.796875 327.339844 C 236.796875 325.71875 235.71875 324.347656 234.242188 323.902344 L 234.242188 302.179688 L 225.058594 296.628906 L 225.058594 269.316406 L 208.542969 259.820312 L 208.542969 245.46875 C 217.484375 240.804688 225.027344 234.632812 231.082031 227.007812 C 236.429688 220.28125 240.617188 212.433594 243.605469 203.5625 L 258.074219 203.5625 L 286.28125 223.40625 L 286.550781 223.59375 L 308.824219 223.59375 C 309.269531 225.070312 310.640625 226.148438 312.261719 226.148438 C 314.234375 226.148438 315.847656 224.542969 315.847656 222.558594 C 315.847656 220.578125 314.242188 218.972656 312.261719 218.972656 C 310.640625 218.972656 309.269531 220.050781 308.824219 221.527344 L 287.203125 221.527344 L 258.996094 201.675781 L 258.730469 201.488281 L 244.242188 201.488281 C 244.539062 200.535156 244.820312 199.574219 245.085938 198.601562 L 258.625 198.601562 L 265.855469 203.554688 L 285.144531 203.554688 L 293.820312 211.164062 L 323.527344 211.164062 C 323.972656 212.636719 325.34375 213.71875 326.964844 213.71875 C 328.941406 213.71875 330.550781 212.109375 330.550781 210.128906 C 330.550781 208.148438 328.941406 206.539062 326.964844 206.539062 C 325.34375 206.539062 323.972656 207.621094 323.527344 209.09375 L 317.332031 209.09375 L 320.792969 203.554688 L 347.394531 203.554688 C 347.839844 205.03125 349.214844 206.109375 350.832031 206.109375 C 352.808594 206.109375 354.421875 204.503906 354.421875 202.523438 C 354.421875 200.539062 352.8125 198.933594 350.832031 198.933594 C 349.214844 198.933594 347.839844 200.011719 347.394531 201.488281 L 319.648438 201.488281 L 314.902344 209.105469 L 294.601562 209.105469 L 288.289062 203.566406 L 305.40625 203.566406 C 305.851562 205.039062 307.222656 206.121094 308.839844 206.121094 C 310.816406 206.121094 312.429688 204.511719 312.429688 202.53125 C 312.429688 200.550781 310.820312 198.941406 308.839844 198.941406 C 307.222656 198.941406 305.851562 200.019531 305.40625 201.496094 L 266.507812 201.496094 L 259.28125 196.542969 L 245.644531 196.542969 C 245.882812 195.585938 246.113281 194.613281 246.335938 193.632812 L 261.03125 193.65625 L 267.8125 198.609375 L 295.421875 198.609375 L 303.519531 187.050781 L 309.816406 187.050781 L 317.042969 196.230469 L 334.898438 196.230469 C 335.34375 197.703125 336.714844 198.785156 338.335938 198.785156 C 340.316406 198.785156 341.921875 197.175781 341.921875 195.195312 C 341.921875 193.214844 340.316406 191.605469 338.335938 191.605469 C 336.714844 191.605469 335.34375 192.6875 334.898438 194.160156 L 329.757812 194.160156 L 334.796875 187.050781 L 359.667969 187.050781 C 360.113281 188.523438 361.484375 189.605469 363.101562 189.605469 C 365.085938 189.605469 366.691406 187.996094 366.691406 186.015625 C 366.691406 184.035156 365.085938 182.425781 363.101562 182.425781 C 361.484375 182.425781 360.113281 183.507812 359.667969 184.980469 L 348.554688 184.980469 L 354.121094 178.792969 L 367.921875 178.792969 C 368.367188 180.265625 369.738281 181.347656 371.355469 181.347656 C 373.332031 181.347656 374.945312 179.738281 374.945312 177.757812 C 374.945312 175.78125 373.332031 174.175781 371.355469 174.175781 Z M 321.855469 184.496094 C 322.695312 184.496094 323.375 185.175781 323.375 186.015625 C 323.375 186.855469 322.695312 187.535156 321.855469 187.535156 C 321.015625 187.535156 320.332031 186.855469 320.332031 186.015625 C 320.332031 185.175781 321.015625 184.496094 321.855469 184.496094 Z M 321.855469 172.792969 C 322.695312 172.792969 323.375 173.472656 323.375 174.3125 C 323.375 175.152344 322.695312 175.832031 321.855469 175.832031 C 321.015625 175.832031 320.332031 175.152344 320.332031 174.3125 C 320.332031 173.476562 321.015625 172.792969 321.855469 172.792969 Z M 280.015625 183.875 C 280.855469 183.875 281.535156 184.558594 281.535156 185.398438 C 281.535156 186.234375 280.855469 186.917969 280.015625 186.917969 C 279.175781 186.917969 278.496094 186.230469 278.496094 185.398438 C 278.496094 184.558594 279.175781 183.875 280.015625 183.875 Z M 368.207031 166.402344 C 369.046875 166.402344 369.726562 167.082031 369.726562 167.921875 C 369.726562 168.761719 369.042969 169.445312 368.207031 169.445312 C 367.367188 169.445312 366.6875 168.761719 366.6875 167.921875 C 366.6875 167.082031 367.367188 166.402344 368.207031 166.402344 Z M 338.328125 164.785156 C 339.167969 164.785156 339.847656 165.464844 339.847656 166.304688 C 339.847656 167.144531 339.167969 167.824219 338.328125 167.824219 C 337.488281 167.824219 336.808594 167.144531 336.808594 166.304688 C 336.808594 165.464844 337.488281 164.785156 338.328125 164.785156 Z M 328.792969 158.058594 C 329.628906 158.058594 330.3125 158.742188 330.3125 159.578125 C 330.3125 160.417969 329.628906 161.097656 328.792969 161.097656 C 327.953125 161.097656 327.269531 160.417969 327.269531 159.578125 C 327.269531 158.742188 327.953125 158.058594 328.792969 158.058594 Z M 361.164062 156.597656 C 362.003906 156.597656 362.683594 157.285156 362.683594 158.121094 C 362.683594 158.957031 361.996094 159.640625 361.164062 159.640625 C 360.324219 159.640625 359.640625 158.957031 359.640625 158.121094 C 359.640625 157.28125 360.324219 156.597656 361.164062 156.597656 Z M 346.515625 141.238281 C 347.355469 141.238281 348.035156 141.925781 348.035156 142.761719 C 348.035156 143.601562 347.351562 144.28125 346.515625 144.28125 C 345.675781 144.28125 344.996094 143.601562 344.996094 142.761719 C 344.996094 141.921875 345.675781 141.238281 346.515625 141.238281 Z M 363.097656 132.304688 C 363.9375 132.304688 364.617188 132.992188 364.617188 133.828125 C 364.617188 134.667969 363.9375 135.347656 363.097656 135.347656 C 362.257812 135.347656 361.578125 134.667969 361.578125 133.828125 C 361.578125 132.992188 362.257812 132.304688 363.097656 132.304688 Z M 304.722656 141.238281 C 305.5625 141.238281 306.246094 141.925781 306.246094 142.761719 C 306.246094 143.601562 305.558594 144.28125 304.722656 144.28125 C 303.882812 144.28125 303.203125 143.601562 303.203125 142.761719 C 303.203125 141.921875 303.882812 141.238281 304.722656 141.238281 Z M 291.058594 148.054688 C 291.898438 148.054688 292.578125 148.734375 292.578125 149.574219 C 292.578125 150.414062 291.894531 151.09375 291.058594 151.09375 C 290.21875 151.09375 289.539062 150.410156 289.539062 149.574219 C 289.539062 148.734375 290.21875 148.054688 291.058594 148.054688 Z M 226.871094 55.523438 C 226.871094 54.683594 227.550781 54 228.390625 54 C 229.230469 54 229.910156 54.6875 229.910156 55.523438 C 229.910156 56.363281 229.230469 57.042969 228.390625 57.042969 C 227.554688 57.042969 226.871094 56.363281 226.871094 55.523438 Z M 226.871094 98.835938 C 226.871094 97.996094 227.550781 97.3125 228.390625 97.3125 C 229.230469 97.3125 229.910156 97.996094 229.910156 98.835938 C 229.910156 99.671875 229.230469 100.355469 228.390625 100.355469 C 227.554688 100.355469 226.871094 99.667969 226.871094 98.835938 Z M 220.222656 61.53125 C 220.222656 60.691406 220.90625 60.011719 221.746094 60.011719 C 222.585938 60.011719 223.265625 60.699219 223.265625 61.53125 C 223.265625 62.371094 222.585938 63.054688 221.746094 63.054688 C 220.90625 63.054688 220.222656 62.371094 220.222656 61.53125 Z M 228.789062 25.625 C 228.789062 24.785156 229.46875 24.101562 230.308594 24.101562 C 231.148438 24.101562 231.832031 24.789062 231.832031 25.625 C 231.832031 26.464844 231.148438 27.144531 230.308594 27.144531 C 229.476562 27.144531 228.789062 26.464844 228.789062 25.625 Z M 220.875 18.867188 C 220.875 18.027344 221.554688 17.34375 222.394531 17.34375 C 223.234375 17.34375 223.914062 18.027344 223.914062 18.867188 C 223.914062 19.707031 223.234375 20.386719 222.394531 20.386719 C 221.554688 20.386719 220.875 19.707031 220.875 18.867188 Z M 212.828125 76.574219 C 212.828125 75.734375 213.507812 75.054688 214.347656 75.054688 C 215.1875 75.054688 215.867188 75.734375 215.867188 76.574219 C 215.867188 77.414062 215.1875 78.09375 214.347656 78.09375 C 213.507812 78.09375 212.828125 77.414062 212.828125 76.574219 Z M 214.347656 108.28125 C 215.1875 108.28125 215.867188 108.960938 215.867188 109.800781 C 215.867188 110.640625 215.1875 111.320312 214.347656 111.320312 C 213.507812 111.320312 212.828125 110.636719 212.828125 109.800781 C 212.828125 108.964844 213.507812 108.28125 214.347656 108.28125 Z M 201 95.253906 C 201 94.414062 201.679688 93.734375 202.519531 93.734375 C 203.359375 93.734375 204.042969 94.414062 204.042969 95.253906 C 204.042969 96.09375 203.359375 96.777344 202.519531 96.777344 C 201.679688 96.777344 201 96.09375 201 95.253906 Z M 203.0625 64.085938 C 203.0625 63.246094 203.746094 62.566406 204.585938 62.566406 C 205.421875 62.566406 206.105469 63.246094 206.105469 64.085938 C 206.105469 64.925781 205.417969 65.609375 204.585938 65.609375 C 203.746094 65.609375 203.0625 64.925781 203.0625 64.085938 Z M 192.5625 46.097656 C 192.5625 45.257812 193.246094 44.578125 194.082031 44.578125 C 194.921875 44.578125 195.605469 45.261719 195.605469 46.097656 C 195.605469 46.9375 194.921875 47.617188 194.082031 47.617188 C 193.246094 47.617188 192.5625 46.9375 192.5625 46.097656 Z M 182.917969 61.53125 C 182.917969 60.691406 183.597656 60.011719 184.4375 60.011719 C 185.277344 60.011719 185.960938 60.699219 185.960938 61.53125 C 185.960938 62.371094 185.277344 63.054688 184.4375 63.054688 C 183.597656 63.054688 182.917969 62.371094 182.917969 61.53125 Z M 191.089844 82.886719 C 191.089844 82.046875 191.773438 81.367188 192.609375 81.367188 C 193.449219 81.367188 194.128906 82.046875 194.128906 82.886719 C 194.128906 83.726562 193.449219 84.40625 192.609375 84.40625 C 191.773438 84.414062 191.089844 83.726562 191.089844 82.886719 Z M 178.316406 103.105469 C 177.476562 103.105469 176.792969 102.417969 176.792969 101.582031 C 176.792969 100.742188 177.480469 100.0625 178.316406 100.0625 C 179.15625 100.0625 179.835938 100.742188 179.835938 101.582031 C 179.835938 102.421875 179.15625 103.105469 178.316406 103.105469 Z M 183.742188 22.050781 C 183.742188 21.210938 184.421875 20.53125 185.261719 20.53125 C 186.101562 20.53125 186.785156 21.210938 186.785156 22.050781 C 186.785156 22.890625 186.101562 23.570312 185.261719 23.570312 C 184.421875 23.574219 183.742188 22.890625 183.742188 22.050781 Z M 175.632812 34.398438 C 175.632812 33.558594 176.3125 32.878906 177.152344 32.878906 C 177.992188 32.878906 178.671875 33.558594 178.671875 34.398438 C 178.671875 35.238281 177.992188 35.917969 177.152344 35.917969 C 176.320312 35.917969 175.632812 35.238281 175.632812 34.398438 Z M 159.015625 24.292969 C 159.015625 23.453125 159.695312 22.773438 160.535156 22.773438 C 161.375 22.773438 162.054688 23.457031 162.054688 24.292969 C 162.054688 25.132812 161.371094 25.8125 160.535156 25.8125 C 159.695312 25.8125 159.015625 25.132812 159.015625 24.292969 Z M 168.902344 49.359375 C 168.902344 48.519531 169.582031 47.835938 170.421875 47.835938 C 171.261719 47.835938 171.941406 48.519531 171.941406 49.359375 C 171.941406 50.199219 171.261719 50.878906 170.421875 50.878906 C 169.582031 50.878906 168.902344 50.199219 168.902344 49.359375 Z M 161.570312 83.828125 C 161.570312 82.988281 162.25 82.308594 163.089844 82.308594 C 163.929688 82.308594 164.609375 82.992188 164.609375 83.828125 C 164.609375 84.667969 163.929688 85.347656 163.089844 85.347656 C 162.25 85.355469 161.570312 84.667969 161.570312 83.828125 Z M 154.753906 67.917969 C 154.753906 67.078125 155.4375 66.394531 156.277344 66.394531 C 157.113281 66.394531 157.796875 67.078125 157.796875 67.917969 C 157.796875 68.757812 157.109375 69.4375 156.277344 69.4375 C 155.441406 69.4375 154.753906 68.757812 154.753906 67.917969 Z M 83.058594 143.390625 C 82.21875 143.390625 81.539062 142.710938 81.539062 141.871094 C 81.539062 141.03125 82.21875 140.347656 83.058594 140.347656 C 83.898438 140.347656 84.582031 141.035156 84.582031 141.871094 C 84.582031 142.710938 83.894531 143.390625 83.058594 143.390625 Z M 80.839844 154.894531 C 80 154.894531 79.316406 154.207031 79.316406 153.375 C 79.316406 152.535156 80 151.851562 80.839844 151.851562 C 81.675781 151.851562 82.359375 152.535156 82.359375 153.375 C 82.363281 154.207031 81.675781 154.894531 80.839844 154.894531 Z M 94.722656 163.765625 C 93.882812 163.765625 93.203125 163.085938 93.203125 162.246094 C 93.203125 161.40625 93.882812 160.726562 94.722656 160.726562 C 95.5625 160.726562 96.242188 161.410156 96.242188 162.246094 C 96.242188 163.082031 95.5625 163.765625 94.722656 163.765625 Z M 43.179688 133.222656 C 42.339844 133.222656 41.65625 132.542969 41.65625 131.703125 C 41.65625 130.863281 42.34375 130.179688 43.179688 130.179688 C 44.019531 130.179688 44.699219 130.863281 44.699219 131.703125 C 44.699219 132.535156 44.019531 133.222656 43.179688 133.222656 Z M 23.65625 145.039062 C 22.816406 145.039062 22.136719 144.359375 22.136719 143.519531 C 22.136719 142.679688 22.816406 141.996094 23.65625 141.996094 C 24.496094 141.996094 25.175781 142.679688 25.175781 143.519531 C 25.175781 144.359375 24.496094 145.039062 23.65625 145.039062 Z M 42.890625 155.855469 C 42.050781 155.855469 41.371094 155.175781 41.371094 154.335938 C 41.371094 153.496094 42.050781 152.816406 42.890625 152.816406 C 43.730469 152.816406 44.410156 153.496094 44.410156 154.335938 C 44.410156 155.175781 43.730469 155.855469 42.890625 155.855469 Z M 21.695312 163.765625 C 20.855469 163.765625 20.175781 163.085938 20.175781 162.246094 C 20.175781 161.40625 20.855469 160.726562 21.695312 160.726562 C 22.535156 160.726562 23.214844 161.410156 23.214844 162.246094 C 23.214844 163.082031 22.535156 163.765625 21.695312 163.765625 Z M 65.109375 166.320312 C 64.269531 166.320312 63.589844 165.636719 63.589844 164.800781 C 63.589844 163.960938 64.277344 163.28125 65.109375 163.28125 C 65.949219 163.28125 66.632812 163.960938 66.632812 164.800781 C 66.632812 165.636719 65.949219 166.320312 65.109375 166.320312 Z M 55.511719 175.839844 C 54.671875 175.839844 53.992188 175.15625 53.992188 174.316406 C 53.992188 173.476562 54.671875 172.796875 55.511719 172.796875 C 56.351562 172.796875 57.03125 173.476562 57.03125 174.316406 C 57.035156 175.152344 56.351562 175.839844 55.511719 175.839844 Z M 11.511719 172.234375 C 10.671875 172.234375 9.992188 171.554688 9.992188 170.714844 C 9.992188 169.875 10.671875 169.191406 11.511719 169.191406 C 12.351562 169.191406 13.035156 169.875 13.035156 170.714844 C 13.035156 171.546875 12.351562 172.234375 11.511719 172.234375 Z M 3.632812 183.308594 C 2.792969 183.308594 2.113281 182.621094 2.113281 181.789062 C 2.113281 180.949219 2.792969 180.265625 3.632812 180.265625 C 4.472656 180.265625 5.15625 180.949219 5.15625 181.789062 C 5.15625 182.621094 4.472656 183.308594 3.632812 183.308594 Z M 36.011719 184.335938 C 35.171875 184.335938 34.488281 183.652344 34.488281 182.816406 C 34.488281 181.976562 35.175781 181.296875 36.011719 181.296875 C 36.851562 181.296875 37.53125 181.976562 37.53125 182.816406 C 37.53125 183.65625 36.851562 184.335938 36.011719 184.335938 Z M 74.175781 184.15625 C 73.335938 184.15625 72.65625 183.476562 72.65625 182.636719 C 72.65625 181.796875 73.335938 181.117188 74.175781 181.117188 C 75.015625 181.117188 75.699219 181.796875 75.699219 182.636719 C 75.699219 183.476562 75.015625 184.15625 74.175781 184.15625 Z M 59.332031 196.097656 C 58.492188 196.097656 57.808594 195.414062 57.808594 194.574219 C 57.808594 193.738281 58.492188 193.054688 59.332031 193.054688 C 60.171875 193.054688 60.851562 193.738281 60.851562 194.574219 C 60.855469 195.414062 60.171875 196.097656 59.332031 196.097656 Z M 88.625 198.652344 C 87.785156 198.652344 87.105469 197.96875 87.105469 197.128906 C 87.105469 196.292969 87.785156 195.609375 88.625 195.609375 C 89.464844 195.609375 90.144531 196.296875 90.144531 197.128906 C 90.144531 197.96875 89.464844 198.652344 88.625 198.652344 Z M 25.652344 196.097656 C 24.8125 196.097656 24.132812 195.414062 24.132812 194.574219 C 24.132812 193.738281 24.820312 193.054688 25.652344 193.054688 C 26.492188 193.054688 27.175781 193.738281 27.175781 194.574219 C 27.175781 195.414062 26.492188 196.097656 25.652344 196.097656 Z M 41.375 206.53125 C 40.535156 206.53125 39.855469 205.847656 39.855469 205.011719 C 39.855469 204.171875 40.535156 203.488281 41.375 203.488281 C 42.214844 203.488281 42.898438 204.171875 42.898438 205.011719 C 42.890625 205.847656 42.210938 206.53125 41.375 206.53125 Z M 23.097656 215.582031 C 22.257812 215.582031 21.578125 214.894531 21.578125 214.0625 C 21.578125 213.222656 22.257812 212.539062 23.097656 212.539062 C 23.9375 212.539062 24.621094 213.222656 24.621094 214.0625 C 24.621094 214.902344 23.9375 215.582031 23.097656 215.582031 Z M 75.503906 213.863281 C 74.664062 213.863281 73.984375 213.179688 73.984375 212.339844 C 73.984375 211.5 74.664062 210.820312 75.503906 210.820312 C 76.34375 210.820312 77.023438 211.5 77.023438 212.339844 C 77.023438 213.175781 76.335938 213.863281 75.503906 213.863281 Z M 59.332031 220.671875 C 58.492188 220.671875 57.808594 219.984375 57.808594 219.148438 C 57.808594 218.3125 58.492188 217.628906 59.332031 217.628906 C 60.171875 217.628906 60.851562 218.3125 60.851562 219.148438 C 60.855469 219.988281 60.171875 220.671875 59.332031 220.671875 Z M 39.792969 229.933594 C 38.953125 229.933594 38.273438 229.25 38.273438 228.410156 C 38.273438 227.570312 38.953125 226.890625 39.792969 226.890625 C 40.632812 226.890625 41.316406 227.578125 41.316406 228.410156 C 41.316406 229.246094 40.632812 229.933594 39.792969 229.933594 Z M 153.398438 297.21875 C 153.398438 298.058594 152.71875 298.738281 151.878906 298.738281 C 151.039062 298.738281 150.355469 298.058594 150.355469 297.21875 C 150.355469 296.378906 151.042969 295.699219 151.878906 295.699219 C 152.710938 295.699219 153.398438 296.378906 153.398438 297.21875 Z M 161.265625 309.433594 C 161.265625 310.273438 160.582031 310.957031 159.746094 310.957031 C 158.90625 310.957031 158.226562 310.269531 158.226562 309.433594 C 158.226562 308.59375 158.90625 307.914062 159.746094 307.914062 C 160.585938 307.910156 161.265625 308.59375 161.265625 309.433594 Z M 169.359375 288.496094 C 169.359375 289.335938 168.679688 290.015625 167.839844 290.015625 C 167 290.015625 166.320312 289.335938 166.320312 288.496094 C 166.320312 287.65625 167.007812 286.976562 167.839844 286.976562 C 168.679688 286.976562 169.359375 287.660156 169.359375 288.496094 Z M 168.285156 336.636719 C 168.285156 337.476562 167.605469 338.15625 166.765625 338.15625 C 165.925781 338.15625 165.246094 337.46875 165.246094 336.636719 C 165.246094 335.796875 165.925781 335.113281 166.765625 335.113281 C 167.601562 335.113281 168.285156 335.796875 168.285156 336.636719 Z M 180.609375 317.785156 C 180.609375 318.625 179.929688 319.304688 179.089844 319.304688 C 178.25 319.304688 177.566406 318.625 177.566406 317.785156 C 177.566406 316.945312 178.25 316.265625 179.089844 316.265625 C 179.921875 316.265625 180.609375 316.945312 180.609375 317.785156 Z M 180.507812 354.035156 C 180.507812 354.875 179.824219 355.558594 178.984375 355.558594 C 178.144531 355.558594 177.464844 354.875 177.464844 354.035156 C 177.464844 353.195312 178.144531 352.515625 178.984375 352.515625 C 179.824219 352.515625 180.507812 353.203125 180.507812 354.035156 Z M 189.179688 342.472656 C 189.179688 343.3125 188.5 343.992188 187.660156 343.992188 C 186.820312 343.992188 186.136719 343.3125 186.136719 342.472656 C 186.136719 341.632812 186.820312 340.949219 187.660156 340.949219 C 188.492188 340.949219 189.179688 341.632812 189.179688 342.472656 Z M 201.558594 324.789062 C 201.558594 325.628906 200.878906 326.308594 200.039062 326.308594 C 199.199219 326.308594 198.515625 325.628906 198.515625 324.789062 C 198.515625 323.949219 199.199219 323.269531 200.039062 323.269531 C 200.871094 323.261719 201.558594 323.949219 201.558594 324.789062 Z M 201.558594 295.8125 C 201.558594 296.652344 200.878906 297.332031 200.039062 297.332031 C 199.199219 297.332031 198.515625 296.644531 198.515625 295.8125 C 198.515625 294.972656 199.199219 294.289062 200.039062 294.289062 C 200.871094 294.289062 201.558594 294.972656 201.558594 295.8125 Z M 223.953125 346.433594 C 223.953125 347.273438 223.269531 347.953125 222.429688 347.953125 C 221.589844 347.953125 220.910156 347.273438 220.910156 346.433594 C 220.910156 345.59375 221.589844 344.914062 222.429688 344.914062 C 223.269531 344.914062 223.953125 345.597656 223.953125 346.433594 Z M 211.367188 331.527344 C 211.367188 332.367188 210.679688 333.046875 209.847656 333.046875 C 209.007812 333.046875 208.328125 332.367188 208.328125 331.527344 C 208.328125 330.6875 209.007812 330.003906 209.847656 330.003906 C 210.6875 330.003906 211.367188 330.6875 211.367188 331.527344 Z M 218.699219 288.691406 C 218.699219 289.53125 218.019531 290.210938 217.179688 290.210938 C 216.339844 290.210938 215.65625 289.53125 215.65625 288.691406 C 215.65625 287.851562 216.34375 287.167969 217.179688 287.167969 C 218.011719 287.164062 218.699219 287.851562 218.699219 288.691406 Z M 234.699219 327.34375 C 234.699219 328.183594 234.015625 328.863281 233.175781 328.863281 C 232.335938 328.863281 231.65625 328.175781 231.65625 327.34375 C 231.65625 326.503906 232.335938 325.824219 233.175781 325.824219 C 234.011719 325.816406 234.699219 326.503906 234.699219 327.34375 Z M 225.507812 313.292969 C 225.507812 314.132812 224.828125 314.816406 223.988281 314.816406 C 223.148438 314.816406 222.46875 314.128906 222.46875 313.292969 C 222.46875 312.457031 223.148438 311.773438 223.988281 311.773438 C 224.828125 311.773438 225.507812 312.457031 225.507812 313.292969 Z M 312.261719 221.042969 C 313.097656 221.042969 313.78125 221.726562 313.78125 222.566406 C 313.78125 223.40625 313.097656 224.085938 312.261719 224.085938 C 311.421875 224.085938 310.738281 223.398438 310.738281 222.566406 C 310.734375 221.726562 311.421875 221.042969 312.261719 221.042969 Z M 326.964844 208.621094 C 327.804688 208.621094 328.484375 209.300781 328.484375 210.140625 C 328.484375 210.980469 327.804688 211.660156 326.964844 211.660156 C 326.125 211.660156 325.441406 210.980469 325.441406 210.140625 C 325.441406 209.300781 326.125 208.621094 326.964844 208.621094 Z M 350.835938 201.011719 C 351.675781 201.011719 352.355469 201.691406 352.355469 202.53125 C 352.355469 203.371094 351.671875 204.050781 350.835938 204.050781 C 349.996094 204.050781 349.316406 203.371094 349.316406 202.53125 C 349.3125 201.691406 349.996094 201.011719 350.835938 201.011719 Z M 308.835938 201.011719 C 309.675781 201.011719 310.355469 201.691406 310.355469 202.53125 C 310.355469 203.371094 309.675781 204.050781 308.835938 204.050781 C 307.996094 204.050781 307.3125 203.371094 307.3125 202.53125 C 307.308594 201.691406 307.996094 201.011719 308.835938 201.011719 Z M 243.027344 196.542969 C 242.847656 197.238281 242.664062 197.925781 242.46875 198.609375 C 242.191406 199.589844 241.90625 200.550781 241.605469 201.496094 C 241.382812 202.195312 241.152344 202.886719 240.917969 203.566406 C 234.847656 221.191406 223.996094 234.269531 208.5 242.644531 C 207.820312 243.011719 207.128906 243.371094 206.433594 243.71875 C 205.484375 244.195312 204.523438 244.652344 203.542969 245.089844 C 202.863281 245.398438 202.171875 245.695312 201.480469 245.988281 C 200.535156 246.382812 199.570312 246.761719 198.59375 247.128906 C 197.914062 247.386719 197.222656 247.628906 196.527344 247.871094 C 195.578125 248.199219 194.617188 248.511719 193.636719 248.8125 C 192.957031 249.023438 192.265625 249.226562 191.570312 249.421875 C 191.140625 249.546875 190.710938 249.664062 190.273438 249.78125 C 189.738281 249.621094 189.210938 249.464844 188.683594 249.292969 C 187.988281 249.074219 187.300781 248.847656 186.621094 248.617188 C 185.640625 248.285156 184.679688 247.941406 183.730469 247.578125 C 183.035156 247.3125 182.351562 247.042969 181.664062 246.761719 C 180.6875 246.359375 179.722656 245.945312 178.777344 245.515625 C 178.078125 245.199219 177.390625 244.871094 176.707031 244.539062 C 175.730469 244.058594 174.765625 243.558594 173.820312 243.046875 C 173.117188 242.667969 172.433594 242.28125 171.753906 241.882812 C 157.242188 233.371094 146.882812 220.59375 140.773438 203.664062 C 140.527344 202.984375 140.285156 202.292969 140.054688 201.601562 C 139.738281 200.652344 139.4375 199.691406 139.144531 198.710938 C 138.941406 198.03125 138.742188 197.339844 138.550781 196.644531 C 138.289062 195.691406 138.039062 194.730469 137.804688 193.757812 C 137.636719 193.074219 137.476562 192.386719 137.316406 191.6875 C 137.179688 191.074219 137.050781 190.460938 136.917969 189.835938 C 136.847656 189.488281 136.78125 189.144531 136.707031 188.796875 C 136.574219 188.105469 136.445312 187.414062 136.324219 186.734375 C 136.148438 185.765625 135.996094 184.800781 135.851562 183.84375 C 135.75 183.152344 135.652344 182.464844 135.5625 181.777344 C 135.433594 180.804688 135.320312 179.84375 135.21875 178.890625 C 135.140625 178.191406 135.074219 177.507812 135.011719 176.828125 C 134.925781 175.855469 134.851562 174.886719 134.785156 173.9375 C 134.738281 173.242188 134.695312 172.554688 134.660156 171.871094 C 134.609375 170.894531 134.574219 169.929688 134.542969 168.984375 C 134.523438 168.28125 134.507812 167.59375 134.496094 166.914062 C 134.347656 156.96875 135.304688 149.253906 135.761719 146.199219 C 138.859375 147.117188 146.589844 149.0625 155.789062 148.78125 C 161.574219 148.601562 166.925781 147.566406 171.738281 145.695312 C 172.4375 145.421875 173.125 145.128906 173.804688 144.824219 C 174.050781 144.714844 174.292969 144.597656 174.53125 144.484375 C 175.265625 144.132812 175.984375 143.757812 176.691406 143.363281 C 177.398438 142.96875 178.085938 142.5625 178.761719 142.125 C 179.753906 141.484375 180.714844 140.800781 181.648438 140.074219 C 182.355469 139.519531 183.046875 138.9375 183.714844 138.332031 C 184.726562 137.421875 185.6875 136.457031 186.605469 135.429688 C 187.320312 134.636719 188.007812 133.804688 188.667969 132.941406 C 189.234375 132.203125 189.777344 131.441406 190.304688 130.652344 C 190.714844 131.199219 191.128906 131.734375 191.554688 132.261719 C 192.226562 133.089844 192.917969 133.886719 193.621094 134.660156 C 194.554688 135.675781 195.515625 136.640625 196.511719 137.546875 C 197.1875 138.167969 197.878906 138.761719 198.578125 139.335938 C 199.515625 140.097656 200.476562 140.816406 201.464844 141.484375 C 202.140625 141.945312 202.832031 142.390625 203.53125 142.8125 C 204.472656 143.378906 205.433594 143.90625 206.417969 144.398438 C 206.683594 144.53125 206.949219 144.660156 207.222656 144.789062 C 207.640625 144.988281 208.058594 145.175781 208.484375 145.359375 C 213.785156 147.660156 219.617188 148.898438 225.824219 149.046875 C 234.636719 149.257812 241.804688 147.238281 244.761719 146.246094 C 245.285156 149.296875 246.402344 156.953125 246.460938 166.8125 C 246.46875 167.492188 246.46875 168.179688 246.457031 168.878906 C 246.453125 169.828125 246.433594 170.789062 246.402344 171.769531 C 246.378906 172.449219 246.355469 173.140625 246.320312 173.835938 C 246.273438 174.785156 246.222656 175.75 246.148438 176.722656 C 246.105469 177.40625 246.054688 178.097656 245.992188 178.789062 C 245.910156 179.738281 245.8125 180.703125 245.703125 181.675781 C 245.628906 182.359375 245.546875 183.050781 245.460938 183.742188 C 245.335938 184.699219 245.199219 185.664062 245.050781 186.628906 C 244.941406 187.316406 244.824219 188.007812 244.707031 188.699219 C 244.609375 189.246094 244.507812 189.792969 244.40625 190.34375 C 244.324219 190.75 244.246094 191.15625 244.160156 191.5625 C 244.015625 192.257812 243.867188 192.941406 243.714844 193.625 C 243.507812 194.617188 243.273438 195.585938 243.027344 196.542969 Z M 338.328125 193.675781 C 339.167969 193.675781 339.847656 194.355469 339.847656 195.195312 C 339.847656 196.035156 339.167969 196.714844 338.328125 196.714844 C 337.488281 196.714844 336.808594 196.03125 336.808594 195.195312 C 336.808594 194.355469 337.488281 193.675781 338.328125 193.675781 Z M 363.097656 184.496094 C 363.9375 184.496094 364.617188 185.175781 364.617188 186.015625 C 364.617188 186.855469 363.9375 187.535156 363.097656 187.535156 C 362.257812 187.535156 361.578125 186.855469 361.578125 186.015625 C 361.578125 185.175781 362.257812 184.496094 363.097656 184.496094 Z M 371.355469 179.277344 C 370.515625 179.277344 369.835938 178.597656 369.835938 177.757812 C 369.835938 176.917969 370.515625 176.238281 371.355469 176.238281 C 372.195312 176.238281 372.875 176.917969 372.875 177.757812 C 372.875 178.597656 372.195312 179.277344 371.355469 179.277344 Z M 371.355469 179.277344 " fill-opacity="1" fill-rule="nonzero"/></g><path fill="#0ad9fd" d="M 204.070312 27.167969 L 204.070312 47.4375 C 202.597656 47.882812 201.515625 49.253906 201.515625 50.875 C 201.515625 52.851562 203.125 54.460938 205.105469 54.460938 C 207.082031 54.460938 208.695312 52.855469 208.695312 50.875 C 208.695312 49.253906 207.613281 47.882812 206.140625 47.4375 L 206.140625 38.316406 L 216.519531 32.449219 L 216.519531 7.023438 C 217.992188 6.578125 219.074219 5.207031 219.074219 3.589844 C 219.074219 1.613281 217.464844 0 215.484375 0 C 213.503906 0 211.894531 1.609375 211.894531 3.589844 C 211.894531 5.207031 212.976562 6.578125 214.449219 7.023438 L 214.449219 31.246094 L 206.140625 35.945312 L 206.140625 27.132812 C 207.585938 26.667969 208.632812 25.316406 208.632812 23.71875 C 208.632812 21.742188 207.027344 20.128906 205.042969 20.128906 C 203.070312 20.128906 201.457031 21.738281 201.457031 23.71875 C 201.457031 25.363281 202.566406 26.746094 204.070312 27.167969 Z M 213.964844 3.589844 C 213.964844 2.75 214.644531 2.066406 215.484375 2.066406 C 216.324219 2.066406 217.003906 2.75 217.003906 3.589844 C 217.003906 4.429688 216.324219 5.109375 215.484375 5.109375 C 214.644531 5.109375 213.964844 4.429688 213.964844 3.589844 Z M 206.625 50.875 C 206.625 51.714844 205.945312 52.394531 205.105469 52.394531 C 204.265625 52.394531 203.585938 51.714844 203.585938 50.875 C 203.585938 50.035156 204.265625 49.351562 205.105469 49.351562 C 205.941406 49.351562 206.625 50.035156 206.625 50.875 Z M 205.046875 22.199219 C 205.882812 22.199219 206.566406 22.878906 206.566406 23.71875 C 206.566406 24.558594 205.882812 25.238281 205.046875 25.238281 C 204.207031 25.238281 203.523438 24.558594 203.523438 23.71875 C 203.523438 22.878906 204.207031 22.199219 205.046875 22.199219 Z M 205.046875 22.199219 " fill-opacity="1" fill-rule="nonzero"/></svg>