<svg xmlns="http://www.w3.org/2000/svg" xmlns:xlink="http://www.w3.org/1999/xlink" width="500" zoomAndPan="magnify" viewBox="0 0 375 374.999991" height="500" preserveAspectRatio="xMidYMid meet" version="1.0"><defs><clipPath id="59967ff850"><path d="M 37.5 37.5 L 337.5 37.5 L 337.5 337.5 L 37.5 337.5 Z M 37.5 37.5 " clip-rule="nonzero"/></clipPath></defs><g clip-path="url(#59967ff850)"><path fill="#0ad9fd" d="M 133.210938 134.75 C 147.648438 132.484375 160.261719 125.933594 170.046875 118.949219 L 204.953125 118.949219 C 214.738281 125.933594 227.351562 132.484375 241.789062 134.75 C 244.855469 135.230469 247.070312 137.824219 247.070312 140.925781 L 247.070312 187.421875 C 247.070312 221.007812 212.976562 249.226562 187.5 256.050781 C 162.023438 249.226562 127.929688 221.007812 127.929688 187.421875 L 127.929688 140.925781 C 127.929688 137.824219 130.144531 135.230469 133.210938 134.75 Z M 94.199219 217.1875 C 92.425781 212.472656 87.875 209.113281 82.539062 209.113281 C 75.664062 209.113281 70.089844 214.6875 70.089844 221.5625 C 70.089844 228.4375 75.664062 234.011719 82.539062 234.011719 C 87.875 234.011719 92.425781 230.65625 94.199219 225.9375 L 132.066406 225.9375 C 130.128906 223.125 128.355469 220.207031 126.789062 217.1875 Z M 187.5 192.3125 C 183.492188 192.3125 180.242188 195.5625 180.242188 199.574219 C 180.242188 201.941406 181.375 204.042969 183.125 205.367188 L 183.125 211.648438 C 183.125 214.066406 185.082031 216.023438 187.5 216.023438 C 189.917969 216.023438 191.875 214.066406 191.875 211.648438 L 191.875 205.367188 C 193.628906 204.042969 194.757812 201.941406 194.757812 199.574219 C 194.757812 195.5625 191.507812 192.3125 187.5 192.3125 Z M 157.8125 251.34375 C 154.757812 249.230469 151.828125 246.96875 149.0625 244.605469 L 149.0625 280.800781 C 144.34375 282.574219 140.988281 287.125 140.988281 292.460938 C 140.988281 299.335938 146.5625 304.910156 153.4375 304.910156 C 160.3125 304.910156 165.886719 299.335938 165.886719 292.460938 C 165.886719 287.125 162.527344 282.574219 157.8125 280.800781 Z M 221.5625 304.910156 C 228.4375 304.910156 234.011719 299.335938 234.011719 292.460938 C 234.011719 287.125 230.65625 282.574219 225.9375 280.800781 L 225.9375 244.601562 C 223.171875 246.96875 220.242188 249.230469 217.1875 251.34375 L 217.1875 280.800781 C 212.472656 282.574219 209.113281 287.125 209.113281 292.460938 C 209.113281 299.335938 214.6875 304.910156 221.5625 304.910156 Z M 242.933594 225.9375 L 280.800781 225.9375 C 282.574219 230.65625 287.125 234.011719 292.460938 234.011719 C 299.335938 234.011719 304.910156 228.4375 304.910156 221.5625 C 304.910156 214.6875 299.335938 209.113281 292.460938 209.113281 C 287.125 209.113281 282.574219 212.46875 280.800781 217.1875 L 248.210938 217.1875 C 246.644531 220.207031 244.871094 223.125 242.933594 225.9375 Z M 70.089844 153.4375 C 70.089844 146.5625 75.664062 140.988281 82.539062 140.988281 C 87.875 140.988281 92.425781 144.34375 94.199219 149.0625 L 119.179688 149.0625 L 119.179688 157.8125 L 94.199219 157.8125 C 92.425781 162.527344 87.875 165.886719 82.539062 165.886719 C 75.664062 165.886719 70.089844 160.3125 70.089844 153.4375 Z M 149.0625 120.960938 C 152.0625 119.640625 154.984375 118.132812 157.8125 116.472656 L 157.8125 94.199219 C 162.527344 92.425781 165.886719 87.875 165.886719 82.542969 C 165.886719 75.664062 160.3125 70.09375 153.4375 70.09375 C 146.5625 70.09375 140.988281 75.664062 140.988281 82.542969 C 140.988281 87.875 144.34375 92.429688 149.0625 94.199219 Z M 37.5 187.5 C 37.5 180.625 43.074219 175.050781 49.949219 175.050781 C 55.285156 175.050781 59.835938 178.40625 61.609375 183.125 L 119.179688 183.125 L 119.179688 187.421875 C 119.179688 188.917969 119.238281 190.402344 119.347656 191.875 L 61.605469 191.875 C 59.835938 196.589844 55.285156 199.949219 49.949219 199.949219 C 43.074219 199.949219 37.5 194.375 37.5 187.5 Z M 221.5625 70.089844 C 214.6875 70.089844 209.113281 75.664062 209.113281 82.539062 C 209.113281 87.875 212.472656 92.425781 217.1875 94.199219 L 217.1875 116.472656 C 220.015625 118.132812 222.9375 119.640625 225.9375 120.960938 L 225.9375 94.199219 C 230.65625 92.425781 234.011719 87.875 234.011719 82.539062 C 234.011719 75.664062 228.4375 70.089844 221.5625 70.089844 Z M 255.820312 149.0625 L 280.800781 149.0625 C 282.574219 144.34375 287.125 140.988281 292.460938 140.988281 C 299.335938 140.988281 304.910156 146.5625 304.910156 153.4375 C 304.910156 160.3125 299.335938 165.886719 292.460938 165.886719 C 287.125 165.886719 282.574219 162.527344 280.800781 157.8125 L 255.820312 157.8125 Z M 187.5 37.5 C 194.375 37.5 199.949219 43.074219 199.949219 49.949219 C 199.949219 55.285156 196.59375 59.835938 191.875 61.609375 L 191.875 110.199219 L 183.125 110.199219 L 183.125 61.605469 C 178.40625 59.835938 175.050781 55.285156 175.050781 49.949219 C 175.050781 43.074219 180.625 37.5 187.5 37.5 Z M 337.5 187.5 C 337.5 180.625 331.925781 175.050781 325.050781 175.050781 C 319.714844 175.050781 315.164062 178.40625 313.390625 183.125 L 255.820312 183.125 L 255.820312 187.421875 C 255.820312 188.917969 255.761719 190.402344 255.652344 191.875 L 313.390625 191.875 C 315.164062 196.589844 319.714844 199.949219 325.050781 199.949219 C 331.925781 199.949219 337.5 194.375 337.5 187.5 Z M 187.5 337.5 C 194.375 337.5 199.949219 331.925781 199.949219 325.050781 C 199.949219 319.714844 196.59375 315.164062 191.875 313.394531 L 191.875 263.902344 C 190.425781 264.339844 188.960938 264.71875 187.5 265.113281 C 186.039062 264.71875 184.574219 264.339844 183.125 263.902344 L 183.125 313.394531 C 178.40625 315.164062 175.050781 319.714844 175.050781 325.050781 C 175.050781 331.925781 180.625 337.5 187.5 337.5 Z M 164.488281 175.160156 L 159.875 175.160156 C 157.457031 175.160156 155.5 177.117188 155.5 179.535156 L 155.5 204.28125 C 155.5 221.890625 169.890625 236.285156 187.5 236.285156 C 205.109375 236.285156 219.5 221.890625 219.5 204.28125 L 219.5 179.535156 C 219.5 177.117188 217.542969 175.160156 215.125 175.160156 L 210.511719 175.160156 L 210.511719 161.730469 C 210.511719 149.0625 200.164062 138.714844 187.5 138.714844 C 174.835938 138.714844 164.488281 149.0625 164.488281 161.730469 Z M 201.761719 175.160156 L 201.761719 161.730469 C 201.761719 153.894531 195.335938 147.464844 187.5 147.464844 C 179.664062 147.464844 173.238281 153.894531 173.238281 161.730469 L 173.238281 175.160156 Z M 201.761719 175.160156 " fill-opacity="1" fill-rule="evenodd"/></g></svg>