<svg version="1.1" viewBox="0 0 374.4 374.4" width="150" height="150" xmlns="http://www.w3.org/2000/svg" preserveAspectRatio="xMidYMid meet">
 <style type="text/css">
    .st0{fill:#007FA3;}
    .st1{fill:#84BD00;}
    .st2{fill:#00C3DE;}
 </style>
 <!-- Centering the wide logo vertically within the square 374.4 unit space -->
 <g transform="translate(0, 157.25)">
  <g>
   <rect x="46.7" class="st0" width="13.3" height="13.3"></rect>
   <polygon class="st0" points="13.3,46.6 13.3,33.3 0,33.3 0,59.9 26.6,59.9 26.6,46.6"></polygon>
   <polygon class="st1" points="40,20 40,46.6 26.6,46.6 26.6,59.9 53.3,59.9 53.3,20"></polygon>
   <polygon class="st2" points="0,6.7 0,33.3 13.3,33.3 13.3,20 13.3,20 39.9,20 39.9,6.7"></polygon>
  </g>
  <path class="st0" d="M90.5,25.3c-1.1-1-1.6-2.4-1.6-4.1c0-2.4,0.9-4.3,2.7-5.6c1.8-1.3,4.3-2,7.3-2c3.2,0,5.8,0.8,7.8,2.5
      c2.1,1.7,3.2,3.8,3.5,6.5h8.5c-0.1-3.2-1.1-6-2.8-8.4c-1.7-2.5-4-4.4-7-5.8c-3-1.4-6.3-2.1-10.1-2.1c-3.7,0-6.9,0.7-9.7,2
      c-2.8,1.3-5,3.1-6.6,5.5c-1.6,2.4-2.4,5-2.4,8c0,3.3,0.8,5.9,2.3,7.9c1.5,2,3.5,3.5,5.9,4.5c2.4,1,5.4,1.8,8.8,2.4
      c3.4,0.6,6,1.2,7.8,1.7c1.9,0.6,3.3,1.3,4.4,2.4c1.1,1,1.6,2.4,1.6,4.2c0,2.5-1,4.4-3,5.8c-2,1.4-4.6,2.1-7.8,2.1
      c-3.7,0-6.6-0.9-8.9-2.8c-2.3-1.9-3.5-4.4-3.8-7.5l-8.5-0.2c0,3.5,1,6.5,2.7,9.2c1.8,2.7,4.2,4.8,7.4,6.3c3.2,1.5,6.8,2.3,11,2.3
      c3.8,0,7.1-0.7,10.1-2.1c3-1.4,5.3-3.3,6.9-5.8c1.7-2.5,2.5-5.2,2.5-8.3c0-3.2-0.8-5.8-2.3-7.7c-1.6-2-3.6-3.4-6-4.4
      c-2.5-1-5.4-1.8-8.8-2.4c-3.4-0.6-5.9-1.2-7.7-1.7C93,27,91.6,26.3,90.5,25.3 M148.5,40l19.6-33.2h-9.7l-14.2,24.1L130.4,6.8
      h-10.1L139.8,40v19.5h8.6V40z M180.5,25.3c-1.1-1-1.6-2.4-1.6-4.1c0-2.4,0.9-4.3,2.7-5.6c1.8-1.3,4.3-2,7.3-2
      c3.2,0,5.8,0.8,7.8,2.5c2.1,1.7,3.2,3.8,3.5,6.5h8.5c-0.2-3.2-1.1-6-2.8-8.4c-1.7-2.5-4-4.4-7-5.8c-3-1.4-6.3-2.1-10.1-2.1
      c-3.7,0-6.9,0.7-9.7,2c-2.8,1.3-5,3.1-6.6,5.5c-1.6,2.4-2.4,5-2.4,8c0,3.3,0.8,5.9,2.3,7.9c1.5,2,3.5,3.5,5.9,4.5
      c2.4,1,5.4,1.8,8.8,2.4c3.4,0.6,6,1.2,7.8,1.7c1.9,0.6,3.3,1.3,4.4,2.4c1.1,1,1.6,2.4,1.6,4.2c0,2.5-1,4.4-3,5.8
      c-2,1.4-4.6,2.1-7.8,2.1c-3.7,0-6.6-0.9-8.9-2.8c-2.3-1.9-3.5-4.4-3.8-7.5l-8.5-0.2c0.1,3.5,1,6.5,2.7,9.2
      c1.8,2.7,4.2,4.8,7.4,6.3c3.2,1.5,6.8,2.3,11,2.3c3.8,0,7.1-0.7,10.1-2.1c3-1.4,5.3-3.3,6.9-5.8c1.7-2.5,2.5-5.2,2.5-8.3
      c0-3.2-0.8-5.8-2.3-7.7c-1.6-2-3.6-3.4-6-4.4c-2.5-1-5.4-1.8-8.8-2.4c-3.4-0.6-5.9-1.2-7.7-1.7C183.1,27,181.6,26.3,180.5,25.3
       M246.7,23.6c0,2.8-0.9,5-2.7,6.7c-1.8,1.7-4.3,2.5-7.4,2.5h-11.4V14.4h11.4c3.1,0,5.6,0.8,7.4,2.5
      C245.8,18.5,246.7,20.8,246.7,23.6 M253.3,32.4c1.5-2.5,2.3-5.5,2.3-8.8c0-3.4-0.8-6.3-2.3-8.8c-1.5-2.5-3.6-4.5-6.4-5.9
      c-2.8-1.4-5.9-2.1-9.5-2.1h-20.8v52.6h8.6V40.4h12.1c3.6,0,6.8-0.7,9.5-2.1C249.6,36.9,251.8,35,253.3,32.4 M290.4,30.3
      c-1.8,1.7-4.3,2.5-7.4,2.5h-11.4V14.4H283c3.1,0,5.6,0.8,7.4,2.5c1.8,1.7,2.7,3.9,2.7,6.7C293.1,26.4,292.2,28.7,290.4,30.3
       M302.9,59.5l-11.1-21c3.1-1.1,5.6-3,7.4-5.6c1.9-2.7,2.8-5.7,2.8-9.2c0-3.4-0.8-6.3-2.3-8.8c-1.5-2.5-3.7-4.5-6.4-5.9
      c-2.8-1.4-6-2.1-9.6-2.1h-20.8v52.6h8.6V40.4h11.7l10,19.1H302.9z M351.6,33.2c0,3.7-0.7,7-2.1,9.9c-1.4,2.9-3.4,5.2-5.9,6.8
      c-2.5,1.6-5.4,2.4-8.7,2.4c-3.3,0-6.2-0.8-8.7-2.4c-2.5-1.6-4.5-3.9-5.9-6.8c-1.4-2.9-2.1-6.2-2.1-9.9c0-3.7,0.7-7,2.1-9.9
      c1.4-2.9,3.4-5.2,5.9-6.8c2.5-1.6,5.4-2.4,8.7-2.4c3.3,0,6.2,0.8,8.7,2.4c2.5,1.6,4.5,3.9,5.9,6.8
      C350.9,26.2,351.6,29.5,351.6,33.2 M360.5,33.2c0-5.1-1.1-9.7-3.2-13.8c-2.2-4.1-5.2-7.2-9.1-9.5c-3.9-2.3-8.3-3.5-13.3-3.5
      c-5,0-9.4,1.2-13.3,3.5c-3.9,2.3-6.9,5.5-9.1,9.5c-2.2,4.1-3.2,8.6-3.2,13.8c0,5.1,1.1,9.7,3.2,13.8c2.2,4.1,5.2,7.2,9.1,9.5
      c3.9,2.3,8.3,3.5,13.3,3.5c5,0,9.4-1.2,13.3-3.5c3.9-2.3,6.9-5.5,9.1-9.5C359.4,42.9,360.5,38.3,360.5,33.2 M365.2,7.5h1.8V6.7
      h-4.5v0.8h1.8v4.9h1V7.5z M374.4,12.5V6.7h-1.2l-1.8,4.6l-1.8-4.6h-1.2v5.8h0.9V8.2l1.7,4.3h0.8l1.7-4.3v4.3H374.4z"></path>
 </g>
</svg>
